<?xml version="1.0" encoding="utf-8"?>
<!-- Generator: Adobe Illustrator 21.1.0, SVG Export Plug-In . SVG Version: 6.00 Build 0)  -->
<svg version="1.1" id="レイヤー_1" xmlns="http://www.w3.org/2000/svg" xmlns:xlink="http://www.w3.org/1999/xlink" x="0px"
	 y="0px" viewBox="0 0 3445.2 1940.3" style="enable-background:new 0 0 3445.2 1940.3;" xml:space="preserve">
<style type="text/css">
	.st0{opacity:5.000000e-02;fill:#C30D23;}
	.st1{fill:#C30D23;}
	.st2{fill:#FFFFFF;}
	.st3{opacity:4.000000e-02;fill:#41A5E7;}
	.st4{fill:#3CA5E7;}
	.st5{opacity:0.1;fill:#74340B;}
	.st6{fill:#864E2B;}
	.st7{opacity:8.000000e-02;fill:#F2971B;}
	.st8{fill:#F28B00;}
	.st9{opacity:8.000000e-02;fill:#8EC43E;}
	.st10{fill:#69C314;}
</style>
<rect x="1159.8" class="st0" width="1159.8" height="1942.9"/>
<path class="st1" d="M1159.8,0v347.4c144.8,18.6,351,30.2,579.9,30.2c228.9,0,435.1-11.6,579.9-30.2V0H1159.8z"/>
<g>
	<g>
		<path class="st2" d="M1437.6,159.4l4.6-69.9h18.1l16.2,48.8l16.8-48.8h17.9l4.6,69.9h-12.2l-3.6-55.7l-18.3,52.8h-11l-17.8-52.9
			l-3.6,55.8H1437.6z"/>
		<path class="st2" d="M1528.3,171.7c1.8,0.5,3.2,0.6,4.8,0.6c6.9,0,10.5-2.6,12.7-8.6l0.3-0.7l-19.3-55.2h13.2l12.1,38.5l13.8-38.5
			h12.5c-3.5,9.6-18.3,48.9-22.6,60.2c-3.6,9.4-10.1,14.5-21,14.5c-2,0-4.7-0.1-6.4-0.7V171.7z"/>
		<path class="st2" d="M1662.7,161.7c-7-9.7-15.7-19.2-24.3-26.7c-9.8,11.2-21.6,19.4-35.6,26l-7.3-9.1c24.4-10.4,41.5-27.9,50-49.8
			h-41.2V91.8h48.6l6.3,7.1c-4,10.7-8.7,19.8-14.3,27.7c9.7,7.3,19.3,17.1,27.2,27.1L1662.7,161.7z"/>
		<path class="st2" d="M1686.2,129c8.1-6.5,16-14.9,22.4-22.7c2.8-3.3,5.8-5,8.7-5c2.9,0,5.9,1.5,8.6,4.5
			c10.3,11.1,27.4,26.2,42.5,37.2l-8.2,10.9c-14.7-11.9-31.4-27.8-40.5-38.4c-0.9-1.1-1.7-1.7-2.4-1.7c-0.8,0-1.7,0.7-2.6,1.8
			c-5.3,6.7-13.9,16-21.3,22.6L1686.2,129z M1764.1,104c0,6-4.7,10.6-10.6,10.6s-10.6-4.6-10.6-10.6s4.7-10.6,10.6-10.6
			S1764.1,98.1,1764.1,104z M1747.9,104c0,3.2,2.4,5.6,5.6,5.6s5.6-2.4,5.6-5.6s-2.4-5.6-5.6-5.6S1747.9,100.9,1747.9,104z"/>
		<path class="st2" d="M1789.8,109.1c7.5,2.5,16.6,7.1,23.7,11.9l-5.7,10c-7.2-4.9-16.2-9.6-23.2-12.5L1789.8,109.1z M1786.7,149.9
			c29.1-4.3,49.2-16.6,61.6-43.8l9.7,7.3c-13.5,28.7-36.7,42.8-68.1,48.1L1786.7,149.9z M1797.6,87.6c7.4,2.6,16,6.7,23.1,11.7
			l-5.6,9.9c-7.3-5.2-15.7-9.3-22.8-12.3L1797.6,87.6z"/>
		<path class="st2" d="M1916.3,162.9l-10.2,1.8l-7.7-39.7l-17.6,2.6l-1.3-9.8l17-2.4l-3.3-16.9l10.4-1.7l3.3,17.1l32.9-4.6l5,6.5
			c-4.4,10.5-10.8,19.7-18.1,26l-7.3-6.2c5.2-4.5,9.9-10.5,12.5-15.6l-23.1,3.4L1916.3,162.9z"/>
		<path class="st2" d="M1989.9,90.8v21.3c0,21.6-6.1,36.5-20.6,48.4l-8.6-7.8c13.2-10,17.8-22.4,17.8-41.2V90.8H1989.9z M2015,88.2
			v57.2c7.7-3.3,17.3-10.7,24.9-20.4l6.2,9.8c-8.1,10.5-22.4,20.2-36.5,25.7l-6-5.2V88.2H2015z"/>
		<path class="st2" d="M1466.8,256c8.1-6.5,16-14.9,22.4-22.7c2.8-3.3,5.8-5,8.7-5c2.9,0,5.9,1.5,8.6,4.5
			c10.3,11.1,27.4,26.2,42.5,37.2l-8.2,10.9c-14.7-11.9-31.4-27.8-40.5-38.4c-0.9-1.1-1.7-1.7-2.4-1.7c-0.8,0-1.7,0.7-2.6,1.8
			c-5.3,6.7-13.9,16-21.3,22.6L1466.8,256z M1526.6,224.5c3.4,3.4,7.3,9.1,9.9,14.5l-6.2,3.6c-2.8-5.9-6-11.2-9.4-15L1526.6,224.5z
			 M1536.9,219.3c3.4,3.3,7.1,8.5,10,14.3l-6.1,3.4c-2.6-5.6-6.4-11.2-9.6-14.6L1536.9,219.3z"/>
		<path class="st2" d="M1583,268.1c0,6,3,8.3,14.3,8.3c12,0,22.7-1,33.3-3.2l1.4,11.2c-11,1.9-22.1,2.7-34.7,2.7
			c-19.3,0-25.6-5-25.6-17v-54.7h11.3V243c13.9-3.5,28.4-9.4,39.2-16.4l6,10c-13.3,7.3-29.8,13.2-45.3,16.6V268.1z M1625.5,211.2
			c3.5,3.5,7.3,9.1,10,14.6l-6.2,3.5c-2.8-5.9-6.1-11.1-9.4-15L1625.5,211.2z M1636,206.1c3.4,3.3,7,8.4,10,14.2l-6.1,3.4
			c-2.6-5.5-6.5-11.2-9.6-14.5L1636,206.1z"/>
		<path class="st2" d="M1730.6,245v11.7h-74.8V245H1730.6z"/>
		<path class="st2" d="M1815.4,288.7c-7-9.7-15.7-19.2-24.3-26.7c-9.8,11.2-21.6,19.4-35.6,26l-7.3-9.1c24.4-10.4,41.5-27.9,50-49.8
			H1757v-10.4h48.6l6.3,7.1c-4,10.7-8.7,19.8-14.3,27.7c9.7,7.3,19.3,17.1,27.2,27.1L1815.4,288.7z"/>
		<path class="st2" d="M1871.7,233c-6,8.3-12.9,15.3-20.2,20.6l-8.2-7.2c12.6-9.1,23-22.8,28.8-37l11.2,3.4
			c-1.7,3.6-3.4,7.3-5.4,10.6h27.5l6.1,6.2c-9.3,33.2-26.6,51.2-54.8,61.9l-6.9-9.4c12.6-4.7,22.9-11.1,31-19
			c-5.2-5.2-11-9.8-16.4-13.1l6.5-7.2c5.4,2.7,11.4,7.2,16.9,12.3c4.9-6.6,8.6-14,11.2-22.3H1871.7z"/>
		<path class="st2" d="M2009.6,245v11.7h-74.8V245H2009.6z"/>
	</g>
</g>
<rect class="st3" width="1159.8" height="1942.9"/>
<path class="st4" d="M0,0v347.4c144.8,18.6,351,30.2,579.9,30.2c228.9,0,435.1-11.6,579.9-30.2V0H0z"/>
<g>
	<g>
		<path class="st2" d="M248.7,122.4c5.3-1.7,11.3-2.5,16.8-2.5c15.3,0,24.8,8.8,24.8,19.9c0,13-8.6,21.2-22.7,21.2
			c-2,0-4.4-0.1-6.3-0.4l-2.1-10.9c3.1,0.6,5.3,0.7,7.6,0.7c7.4,0,12.2-3.3,12.2-10.7c0-5.6-3.8-10.1-13.7-10.1
			c-5.7,0-11.6,0.9-16.6,2.8v20.3c0,8.5-4.4,11.6-10,11.6c-4.3,0-7.8-0.8-13.9-4.6c-5.4-3.4-8.2-7.9-8.2-12.3
			c0-5.8,3.6-14,21.7-22.1v-15.1c-6.2,0.6-12.6,0.8-18.1,0.8c-0.4-1.7-0.6-3.5-0.6-5.5c0-1.7,0.1-3.3,0.4-4.8c5.7,0,12-0.3,18.3-0.7
			c-0.1-5.2-0.2-10.4-0.4-15.6c1.5-0.3,3.4-0.5,5.5-0.5c2,0,4.1,0.2,5.6,0.5c-0.2,4.8-0.3,9.8-0.4,14.7c5.1-0.6,9.9-1.3,14-2.1
			c0.8,2.3,1.3,5.4,1.3,8.4c0,0.6,0,1,0,1.5c-4.5,0.9-9.8,1.8-15.3,2.4V122.4z M238.4,135.8c-9.2,5-10.9,8.3-10.9,11
			c0,1.5,0.9,2.8,3.4,4.3s4.1,1.9,5.3,1.9c1.5,0,2.1-0.6,2.1-2.4V135.8z M295.3,105.3c-1.4,3.1-4.2,6.4-7,8.5
			c-5.4-5.8-12.6-11.1-18.9-14c1.5-3.2,3.7-6.4,6-8.1C281.9,94.4,289.8,99.8,295.3,105.3z"/>
		<path class="st2" d="M353,125.6c4.1,1.4,8.5,2.2,12.6,2.2c7.1,0,10.8-2.9,10.8-9.1c0-4.9-4-8.4-10.4-8.4c-7.4,0-15.2,1.7-28.3,6.4
			c2.3,6.6,4.6,13.1,6.6,19.6c2.6,8.6,5.1,17.1,7.3,25.7c-2.9,1.8-7.3,3.3-11.4,3.5c-3.3-14.1-7.7-29.9-12.7-45
			c-5.6,2.1-11.4,4.4-17.1,6.8c-1.9-2.8-3.3-7-3.8-10.5c5.8-2.2,11.7-4.4,17.4-6.3c-2.1-6-4.4-11.8-6.7-17.3c2.9-1.8,7-3.1,10.5-3.1
			c2.1,5.3,4.4,11.1,6.6,17c7.7-2.5,13.9-4.3,19.2-5.4c-4.7-4.7-10-8.6-15.2-11.3c1.4-3,4-6,6.3-7.4c5.3,2.2,11.3,6,16.3,11
			c-1.6,2.4-4.1,5.5-6.7,7.6c4.2-0.8,8.1-1.2,11.7-1.2c13.1,0,21.8,8.4,21.8,18.3c0,12.6-8.6,19.4-21.9,19.4
			c-4.1,0-8.2-0.6-11.6-1.6L353,125.6z"/>
		<path class="st2" d="M428.2,145c28.5-3.3,37.1-11.1,37.1-23.9c0-7.5-5.5-12.9-17.1-12.9c-8.6,0-20.7,2.2-43.1,9
			c-2-3.2-3.3-7.7-3.3-11.8c24.1-6.3,36.5-8,46.5-8c19.8,0,28.9,10.8,28.9,23.7c0,19.1-13.5,31.5-44,35.1L428.2,145z"/>
		<path class="st2" d="M500.6,113.1v-10h24.1c0.1-2.5,0.2-5.1,0.2-7.8v-11h11.3v10.5c-0.1,2.8-0.1,5.5-0.2,8.3h25l5.4,5.2
			c-0.5,17-1.4,28.8-3,38.6c-1.7,10.3-6.6,14.7-14.9,14.7c-3.9,0-8.6-0.4-12.3-0.9l-1.2-11.3c4.7,0.8,8,1.2,11.7,1.2
			c3.1,0,4.7-1.2,5.5-5.8c1.5-8.5,2.4-18,2.6-31.8h-19.7c-2.7,24.1-13.3,40.1-31.9,50.2l-7-8.6c16.1-9.3,24.6-21.1,27.5-41.6H500.6z
			"/>
		<path class="st2" d="M600.8,91.3c7.7,4.4,15.4,10.5,22,17.9l-8.5,8.9c-6.5-7.3-14.4-14.2-21-18.9L600.8,91.3z M594.8,149.4
			c29.6-7,49.2-22.5,58.9-47.5l10,6.1c-10.8,28.3-34.3,45.5-64.8,52.3L594.8,149.4z"/>
		<path class="st2" d="M677.6,151c10.7-14,17.5-30.5,20.7-52.7l11.7,2.5c-3,22.9-10.4,40.7-22.3,57L677.6,151z M736.8,96
			c10.3,16.1,19.1,35.7,24.5,56.8l-12.4,4.7c-4.7-19.9-12.5-39.8-22.3-56.7L736.8,96z M763,90.3c0,6-4.6,10.6-10.6,10.6
			c-6,0-10.6-4.7-10.6-10.6s4.7-10.6,10.6-10.6C758.4,79.7,763,84.3,763,90.3z M746.8,90.3c0,3.2,2.4,5.6,5.6,5.6s5.6-2.4,5.6-5.6
			s-2.4-5.6-5.6-5.6S746.8,87.1,746.8,90.3z"/>
		<path class="st2" d="M850,141.7v10.9h-75.1v-10.9H850z M783.3,97.7h58.1v10.9h-58.1V97.7z"/>
		<path class="st2" d="M942.8,118v11.7H868V118H942.8z"/>
		<path class="st2" d="M336.9,230.5c-5.7,10-12.1,17.7-21.4,25.4c-2.5-3.5-4.4-5.4-7.9-7.8c9.9-7.3,16.8-15.6,22.3-26.5
			c2.6-5.3,3.9-8.7,4.5-12.4l11.5,1.8c-0.7,1.4-0.9,1.9-1.9,4.2c-0.7,2-1.6,3.8-2.6,6.1h15.8c3.3,0,5.1-0.1,7.1-0.5l5,4.9
			c-1,2.4-1,2.4-2.4,6.2c-2.7,7.3-5.8,13.7-9.5,20c2.3,4.6,5.9,9.6,9.8,14c3.3,3.7,7.9,7.3,13.9,11.3c3.4,2.3,5.1,3.2,9.6,5.2
			c-3.1,3.1-4.9,5.8-7,10.1c-14.7-8.4-25.2-18.8-32.2-31.7c-3.7,4.8-8.1,9.5-13.8,14.6c-4,3.5-8.8,7.3-14.4,10.9
			c-3.7,2.4-5.8,3.5-11.2,6.1c-2-4-4-6.7-6.8-9.1c12.9-5.9,21.5-11.5,30.2-20.3c9.6-9.5,14.7-17.8,20.3-32.6H336.9z"/>
		<path class="st2" d="M416.4,253.4c-1,17.9-3.6,27.7-10.3,39.5c-2.6-3.4-4.7-5.6-8.4-8.6c3.6-5.8,5.4-10.2,6.8-17
			c2-9.5,2.9-22.7,2.9-45.2c0-4.5-0.2-7.2-0.6-10.3c3.3,0.4,6.7,0.5,12,0.5h48.5c4.6,0,7.7-0.1,10.5-0.4c-0.3,2.4-0.3,4.7-0.3,8.1
			v10c0,3.6,0,5.3,0.3,8.1c-3-0.2-5.9-0.3-10-0.3h-16.5v7.1H472c4.1,0,6-0.1,9-0.5v9.5c-3-0.4-5.7-0.5-9.1-0.5h-20.5v8.3h16.4
			c3.4,0,5.5-0.1,7.7-0.4c-0.2,2.3-0.3,4.5-0.3,7.6v15.5c0,3.5,0.1,6,0.4,8.7h-10v-3.8h-35.2v3.8h-9.9c0.3-2.6,0.5-4.7,0.5-8.4
			v-15.9c0-3.4-0.1-5.3-0.3-7.5c2.5,0.3,3.5,0.3,7.2,0.3h13.8v-8.3H416.4z M441.7,237.7H417l-0.2,7.1h24.9V237.7z M468.1,229.1v-8.2
			h-51.1v8.2H468.1z M430.5,280.6h35.2v-10.3h-35.2V280.6z"/>
		<path class="st2" d="M509,226.8c-5.1,0-8.2,0.2-11.8,0.6v-10.8c3.3,0.4,6.3,0.6,11.9,0.6h49.1c5.3,0,8.3-0.1,11.7-0.6v10.8
			c-3.7-0.5-6.8-0.6-11.7-0.6h-20v48.8h24.5c5.2,0,8.6-0.2,12.3-0.7v11.1c-3.3-0.5-7.4-0.7-12.3-0.7h-58.3c-4.6,0-8.5,0.2-12.3,0.7
			V275c3.7,0.5,7,0.7,12.5,0.7h22.9v-48.8H509z"/>
		<path class="st2" d="M621.3,265c-3.8,3.3-5.8,4.7-11.2,7.8c-1.1-2-1.6-2.7-3.5-4.9c-5.2,3.3-9.6,5.6-18,9.7
			c-0.2,0-0.6,0.3-1.2,0.7c-0.2,0.1-0.5,0.3-0.8,0.5l-2.3-10.7c2.4-0.6,5.8-1.7,10.2-3.6v-24.1h-2.6c-2.6,0-4.7,0.1-7.1,0.5V231
			c2.1,0.3,4.2,0.4,7.2,0.4h2.5v-11.3c0-4.7-0.2-7.4-0.6-10.1h10.6c-0.5,3-0.6,5.4-0.6,10.1v11.3h1.7c3,0,4.7-0.1,6.4-0.3v9.4
			c-2.1-0.2-3.9-0.3-6.3-0.3h-1.8v19.6c2.4-1.3,3.2-1.8,6.1-3.4v6.3c5-3,8.2-5.8,10.8-9.2h-2c-3.8,0-6.3,0.1-8.5,0.5v-9.1
			c2,0.4,4.4,0.5,8.6,0.5h39.8c4.4,0,7.3-0.2,9.5-0.6v9.1c-2.5-0.3-5.5-0.4-9.4-0.4H631c-0.8,1.4-1.3,2.1-2.5,3.7h29
			c4.5,0,6.2-0.1,8.9-0.3c-0.2,1.5-0.3,2.6-0.5,5.4c-0.4,11.4-1.8,20.6-3.6,24.7c-2,4.2-4.8,5.4-12.8,5.4c-2.5,0-4.1-0.1-7.6-0.3
			c-0.4-3.3-1.1-5.8-2.5-8.4c-4.9,4.3-8.7,6.9-15.1,10c-2-3-3.4-4.6-6.5-7c8-3.4,11.8-5.8,16.6-9.8c3.8-3.3,6.7-7,9.5-12.2h-5.4
			c-5.7,8.5-13.5,14.6-25.3,20c-1.6-2.8-2.9-4.4-5.9-6.9c10.4-3.9,16.4-7.6,21.1-13.1H621.3z M624.1,241.5c-3.5,0-6.5,0.1-8.4,0.3
			c0.3-2.4,0.4-5,0.4-8.7v-13.3c0-3.9-0.1-5.5-0.4-8.3c2.8,0.4,4.9,0.5,9.2,0.5h26.6c4.6,0,7.1-0.1,9.8-0.5c-0.3,2.6-0.4,4.4-0.4,9
			v12.6c0,4,0.1,6.6,0.4,8.7c-1.9-0.2-4.6-0.3-8.3-0.3H624.1z M625.5,223.8h25.9V220h-25.9V223.8z M625.5,234.2h25.9v-3.7h-25.9
			V234.2z M653.2,265c-3.5,7.7-7.1,12.6-12.7,17.9c3.7,0.5,6.7,0.7,9.4,0.7c3.3,0,4.4-0.9,5.1-4.8c0.7-3.2,1.2-7.2,1.7-13.8H653.2z"
			/>
		<path class="st2" d="M698.8,266.3c-4.4,0-7.5,0.1-9.9,0.3c0.4-2.7,0.5-5.5,0.5-9.7v-33.3c0-4.9-0.2-9-0.5-11.3
			c2.7,0.3,5.4,0.4,9.6,0.4h42.1c4.1,0,7-0.1,9.6-0.4c-0.3,2-0.5,6.2-0.5,11.3v33.3c0,4.4,0.1,7.1,0.5,9.7c-2.4-0.2-5.9-0.3-9.6-0.3
			h-7.9v14c0,2.6,0.8,2.9,8,2.9c7,0,8.7-0.4,9.9-2c0.8-1.3,1.4-4.7,1.6-11.6c3.7,2,6,2.9,9.4,3.7c-0.8,10.1-1.8,13.6-4.1,15.8
			c-2.5,2.3-6.4,3.1-16.6,3.1c-15.2,0-17.9-1.2-17.9-8.1v-17.9h-8.2c-1.1,7-4,12.6-8.7,16.9c-5.8,5.3-12.6,8.6-23.1,11
			c-1.6-3.8-2.7-5.8-5.3-9c8.6-1.5,13.4-3.2,17.8-6c4.9-3.2,7.5-7.1,8.7-12.8H698.8z M699,227.8h41.2v-6H699V227.8z M699,242.5h41.2
			v-6.1H699V242.5z M699,257.4h41.2V251H699V257.4z"/>
		<path class="st2" d="M783,268c-4.7,0-8.3,0.2-11.1,0.6v-10c3.1,0.4,6.7,0.6,11,0.6h24.8v-0.7c0-1.8-0.1-3.4-0.3-4.9h3.9
			c3.9-2,7-4.1,10.8-7.4h-25.1c-3.7,0-6.2,0.1-9.1,0.4v-9c2.7,0.3,5.3,0.4,9.2,0.4h30.1c3.6,0,5.3-0.1,7-0.4l5,5.6
			c-1.5,1.2-1.5,1.2-3.3,2.7c-6.4,5.5-11.1,8.9-18.2,13.3v0.1h23.7c4.6,0,8.6-0.2,11.3-0.6v10c-2.6-0.4-6.5-0.6-11.3-0.6h-23.6V284
			c0,3.2-0.3,4.5-1.1,5.8c-1.6,2.2-4.7,3-12.9,3c-1.2,0-4.2-0.1-9-0.3c-0.9-4.8-1.4-6.4-3-9.7c4.5,0.6,8.5,0.8,11.3,0.8
			c4,0,4.6-0.3,4.6-2V268H783z M787.8,223c-2-4-3.3-5.9-6.8-10.3l9.1-2.7c3.2,3.9,5.3,7.2,8.3,13h9.6c-1.4-4.3-2.9-7.4-5.4-11.4
			l9.4-2.7c3.7,7.1,4.3,8.3,6.3,14.1h7.7c2.7-3.6,5.9-9.4,7.4-13.7l9.9,2.8c-2.1,3.9-4.7,8.1-6.9,10.9h4.1c6.2,0,7.9-0.1,11.3-0.4
			c-0.3,2.2-0.4,4.2-0.4,7.5v8.5c0,2.5,0.2,4.7,0.5,7h-10v-14.1h-59.3v14.1h-10c0.4-2.1,0.5-4.2,0.5-7v-8.5c0-3.3-0.1-5.1-0.4-7.5
			c4.2,0.4,4.7,0.4,10.8,0.4H787.8z"/>
	</g>
</g>
<rect x="2319.7" class="st5" width="1125.6" height="646.8"/>
<g>
	<rect x="2319.7" class="st6" width="1125.6" height="241.9"/>
</g>
<g>
	<g>
		<path class="st2" d="M2510.6,88.6c-0.9,1.8-1,2.2-1.7,4c-1.2,3-1.2,3-4.8,11.3v39.1c0,3.2,0.1,6.1,0.4,8.7h-8.4
			c0.3-2.7,0.4-5.1,0.4-8.8v-20.1c0-1.7,0-2.1,0.1-8.1c-2.4,3.4-4.2,5.5-6.7,8.1c-1-3.2-1.9-5.3-3.7-8.2c5.3-4.8,9.8-11.4,13.4-19.5
			c1.6-3.7,2.5-6.6,3-9.3L2510.6,88.6z M2522,103.7c-3.1,6.3-6.8,11.7-11.6,17.1c-1.7-2.9-2.6-4.1-5-6.6c5.3-5.5,8.9-10.8,11.9-17.9
			c1.7-4.2,2.8-7.8,3.1-10.2l8.1,2.4c-0.7,1.7-0.9,2.3-1.4,3.7c-1.1,2.9-1.2,3.2-1.8,4.7h19.2c3.5,0,5.7-0.1,7.7-0.4v7.6
			c-2-0.2-4.5-0.4-7.7-0.4H2531v9h11.5c3,0,4.9-0.1,7-0.4v7.5c-2.3-0.2-4.4-0.4-7.1-0.4H2531v9h11.6c3,0,4.9-0.1,7.1-0.4v7.6
			c-2.3-0.2-4.4-0.4-7.1-0.4H2531v8.1c0,4.2,0.1,6.6,0.4,8.5h-8.5c0.4-2.1,0.4-4.2,0.4-8.5v-39.7H2522z"/>
		<path class="st2" d="M2592.2,99.3c-6,0.9-11.6,1.6-18.9,2.2c-0.6-2.2-0.9-5-0.9-7.5c0-0.3,0-0.5,0-0.8c9.7-0.8,21.5-1.8,30.7-3.1
			c1.4,1.7,2.3,4.2,2.4,6.7l-17.3,18.1l0.2,0.2c3.4-1.4,7.3-2.2,11.2-2.2c13,0,18.9,7,18.9,15.2c0,12.5-10.1,21-31.9,22.2l-3.2-8.5
			c20.6-1.3,26.1-6.5,26.1-13.8c0-4.2-3.4-7.9-10.6-7.9c-4.7,0-11.2,1.7-15.6,4.1c-5.3,3-10.2,6.4-14.7,10.4c-2.2-1.5-4.3-4-5.3-6.3
			c11.4-9.7,20.5-19.3,28.8-28.9L2592.2,99.3z"/>
		<path class="st2" d="M2655.2,143.7c14.5-5,19.9-12.7,19.9-22c0-4.7-3-7.3-9.6-7.3c-5.8,0-15,1.8-23.6,5c-1.2-2.2-2.2-5.5-2.2-8.6
			c8.8-3,18.5-4.5,25.6-4.5c13.8,0,18.8,6.6,18.8,15.3c0,12.9-7.8,23.5-23.5,29.6L2655.2,143.7z M2679.2,91.9c0,0.1,0,0.3,0,0.4
			c0,2.7-0.6,5.8-1.4,8c-9.2-0.8-20.5-2.7-28.4-4.8c0.1-2.6,1.2-6,2.4-8.1C2659.2,89.4,2669.5,91.2,2679.2,91.9z"/>
		<path class="st2" d="M2727,146.5h-11v-10.4h11V146.5z M2717.9,129.5c0-11.2-1.7-21.5-1.7-34.5v-2.6h10.5v2.5
			c0,13-1.7,23.3-1.7,34.6H2717.9z"/>
		<path class="st2" d="M2789.3,103.1c-6.2,0.9-12.4,1.5-18.1,1.8l-2.4-8c14-0.6,30.5-2.9,42.1-7l4.3,7.3c-5.3,1.7-11.2,3.1-17.1,4.2
			v12.1h23.5v7.6h-23.8c-1.4,14-8.7,23.1-23.3,28.8l-4.8-7.1c12-4.6,17.8-11.1,19.2-21.7h-25.8v-7.6h26.1V103.1z"/>
		<path class="st2" d="M2846.2,127.8v-7.4h30v-10.1h-32.5V103h40.5v47h-8.1v-4.2h-32.9v-7.3h32.9v-10.8H2846.2z"/>
		<path class="st2" d="M2950.8,133.3v-28.4h-38.7v-8.3h47.7V147h-8.9v-5.5h-39.2v-8.3H2950.8z"/>
		<path class="st2" d="M3028.1,99l4.8,5.3c-7.3,21.9-21,36.7-40.8,45.5l-5.8-7.1c17.9-7.7,30.6-20.7,35.9-36.1h-19.4
			c-4.5,6.2-9.8,11.7-15.4,15.9l-6.4-5.6c9.5-7.3,17.6-17.6,22.4-28.8l8.6,2.5c-1.3,2.9-2.7,5.7-4.3,8.4H3028.1z"/>
		<path class="st2" d="M3105.7,113.9c-5.1,19.9-17.2,30.9-35.6,36l-4.5-7.6c16.7-4.6,26.3-13,30.3-25.5H3054V109h47.1L3105.7,113.9z
			 M3098.6,92.5v8h-37.7v-8H3098.6z"/>
		<path class="st2" d="M3132.3,93.8c6,3.4,12,8.1,17.1,13.8l-6.6,6.9c-5-5.7-11.2-11-16.3-14.6L3132.3,93.8z M3127.7,138.8
			c22.9-5.4,38.1-17.4,45.6-36.8l7.7,4.8c-8.4,21.9-26.6,35.2-50.2,40.5L3127.7,138.8z"/>
		<path class="st2" d="M3221.3,103.1c-6.2,0.9-12.4,1.5-18.1,1.8l-2.4-8c14-0.6,30.5-2.9,42.1-7l4.3,7.3c-5.3,1.7-11.2,3.1-17.1,4.2
			v12.1h23.5v7.6h-23.8c-1.4,14-8.7,23.1-23.3,28.8l-4.8-7.1c12-4.6,17.8-11.1,19.2-21.7h-25.8v-7.6h26.1V103.1z"/>
	</g>
</g>
<g>
	<path class="st6" d="M3429.2,16v614.8H2335.7V16H3429.2 M3445.2,0H2319.7v646.8h1125.6V0L3445.2,0z"/>
</g>
<rect x="2319.7" y="646.8" class="st7" width="1125.6" height="646.8"/>
<g>
	<rect x="2319.7" y="646.8" class="st8" width="1125.6" height="241.9"/>
</g>
<g>
	<g>
		<path class="st2" d="M2538.4,747.6c-4.3,25.4-17.3,39.9-39.8,48.3l-5-7.8c19.3-6.6,31.6-19.2,34.6-37.1h-41.2v-8.3h46.4
			L2538.4,747.6z"/>
		<path class="st2" d="M2564.6,739.1h9.1v32.2h-9.1V739.1z M2603.5,738.2v23.1c0,18.2-8.3,29.1-23.3,35.4l-5.5-7.5
			c14.1-5.3,19.7-13.4,19.7-28.8v-22.2H2603.5z"/>
		<path class="st2" d="M2682.4,747.6c-4.3,25.4-17.3,39.9-39.8,48.3l-5-7.8c19.3-6.6,31.6-19.2,34.6-37.1h-41.2v-8.3h46.4
			L2682.4,747.6z"/>
		<path class="st2" d="M2708.6,739.1h9.1v32.2h-9.1V739.1z M2747.5,738.2v23.1c0,18.2-8.3,29.1-23.3,35.4l-5.5-7.5
			c14.1-5.3,19.7-13.4,19.7-28.8v-22.2H2747.5z"/>
		<path class="st2" d="M2792.9,734c1.5,3.2,3.2,5.5,7.1,8.7c11.9,9.5,14,13.5,14,19.4c0,6-4.2,12.1-11.9,17.3l-1.2-1.4
			c6.6-5.6,8.9-10,8.9-14.6c0-4.9-4.6-9.5-15.8-16.3v37.2c0,3-0.1,4.6-1.1,6.5c-2.2,4.3-7.5,7.4-12.5,7.4c-4.9,0-8.1-2.8-8.1-7.1
			c0-2.4,1.2-4.8,3.2-6.4c2.4-2,5.9-3.3,8.7-3.3c2.3,0,4.2,0.4,6.4,1.2V734H2792.9z"/>
		<path class="st2" d="M2840.7,769.8c6.3-5,12.4-11.5,17.4-17.6c2.2-2.6,4.5-3.9,6.8-3.9c2.2,0,4.5,1.2,6.7,3.5
			c8,8.6,21.2,20.3,32.9,28.8l-6.3,8.4c-11.4-9.2-24.3-21.5-31.3-29.7c-0.7-0.9-1.3-1.3-1.9-1.3c-0.6,0-1.3,0.5-2,1.4
			c-4.1,5.2-10.7,12.4-16.5,17.5L2840.7,769.8z M2887,745.4c2.7,2.7,5.6,7.1,7.6,11.2l-4.8,2.8c-2.2-4.5-4.7-8.6-7.3-11.6
			L2887,745.4z M2895,741.4c2.7,2.6,5.5,6.6,7.8,11.1l-4.8,2.7c-2-4.3-5-8.6-7.4-11.3L2895,741.4z"/>
		<path class="st2" d="M2930.7,779.2c0,4.6,2.3,6.4,11.1,6.4c9.3,0,17.6-0.8,25.8-2.4l1.1,8.6c-8.5,1.4-17.1,2.1-26.9,2.1
			c-15,0-19.8-3.9-19.8-13.2v-42.3h8.7v21.4c10.7-2.7,22-7.3,30.4-12.7l4.7,7.7c-10.3,5.6-23,10.2-35.1,12.9V779.2z M2963.6,735.1
			c2.7,2.7,5.6,7.1,7.7,11.3l-4.8,2.7c-2.2-4.5-4.8-8.6-7.3-11.6L2963.6,735.1z M2971.7,731.2c2.7,2.6,5.4,6.5,7.8,11l-4.8,2.7
			c-2-4.2-5-8.6-7.4-11.2L2971.7,731.2z"/>
		<path class="st2" d="M3045,761.3v9.1h-57.9v-9.1H3045z"/>
		<path class="st2" d="M3110.6,795.1c-5.4-7.5-12.2-14.8-18.8-20.7c-7.6,8.6-16.7,15-27.6,20.2l-5.6-7.1
			c18.9-8.1,32.1-21.6,38.7-38.5h-31.9V741h37.7l4.9,5.5c-3.1,8.3-6.8,15.3-11.1,21.5c7.5,5.7,15,13.2,21.1,21L3110.6,795.1z"/>
		<path class="st2" d="M3154.2,752c-4.7,6.4-10,11.9-15.6,16l-6.3-5.5c9.7-7.1,17.8-17.6,22.3-28.7l8.6,2.7
			c-1.3,2.8-2.7,5.6-4.2,8.2h21.3l4.8,4.8c-7.2,25.7-20.6,39.6-42.4,48l-5.3-7.3c9.8-3.7,17.7-8.6,24-14.7c-4-4-8.5-7.6-12.7-10.2
			l5-5.5c4.2,2.1,8.9,5.5,13.1,9.5c3.8-5.1,6.7-10.9,8.6-17.3H3154.2z"/>
		<path class="st2" d="M3261,761.3v9.1h-57.9v-9.1H3261z"/>
	</g>
</g>
<g>
	<path class="st8" d="M3429.2,662.8v614.8H2335.7V662.8H3429.2 M3445.2,646.8H2319.7v646.8h1125.6V646.8L3445.2,646.8z"/>
</g>
<rect x="2319.7" y="1293.5" class="st9" width="1125.6" height="646.8"/>
<g>
	<rect x="2319.7" y="1293.5" class="st10" width="1125.6" height="241.9"/>
</g>
<g>
	<g>
		<path class="st2" d="M2494.1,1409.1h-6.3c-3.5,0-5.5,0.1-7.2,0.4v-7.4c1.9,0.3,3.5,0.4,7.3,0.4h5.3v-6.9h-4.2
			c-2.9,0-4.4,0.1-6.5,0.3v-7.3c1.6,0.3,3.2,0.4,6.6,0.4h4.2v-1.9c0-3.1-0.1-4.5-0.4-6.3h8.1c-0.4,1.7-0.4,3.2-0.4,6.3v1.9h2.4
			c3.3,0,4.6-0.1,6.2-0.4v7.3c-1.9-0.2-3.4-0.3-6.2-0.3h-2.4v6.9h3.7c3,0,4.6-0.1,6.3-0.4v1.4c3.2-1.6,5-3,6.4-5.4
			c1.4-2.3,2.2-4.6,2.4-7.8h-2.9c-2.7,0-4,0.1-5.5,0.3v-7.3c1.9,0.3,4.4,0.4,7.5,0.4h16.8c3.7,0,5.8-0.1,7.1-0.4
			c-0.2,1.7-0.2,1.9-0.4,6.6c-0.1,3.5-0.6,9.6-0.9,11.3c-1.1,6-3.3,7.6-10.4,7.6c-0.9,0-1.4,0-4-0.1c-0.3-3.7-0.6-4.8-1.7-7.2
			c2.5,0.4,4.2,0.5,5.7,0.5c1.8,0,2.7-0.4,3-1.5c0.6-1.9,0.9-4.7,1.1-10.3h-8c-0.6,3.9-1.3,6.7-2.6,9.5c-1.8,4-5,7.3-10,10.1
			c-1.1-2.2-1.9-3.5-3.6-5.3v5c-1.7-0.3-3.3-0.4-6.6-0.4h-2.7v8.1h3.2c2.6,0,3.9-0.1,5.7-0.4v7.2c-1.8-0.3-3-0.4-5.7-0.4h-3.2v11
			c4.5,1.8,9.1,2.3,20.4,2.3c10.1,0,17.4-0.4,24-1.2c-1.5,3.7-1.8,4.8-2.2,7.8c-9.4,0.2-15.3,0.4-17.8,0.4
			c-13.5,0-19.4-0.5-24.9-2.2c-4.9-1.5-8.9-4.6-12-9.2c-1.2,4.8-2.3,8.1-4.3,12.3c-1.9-2.1-3.4-3.3-5.9-4.8c2.1-3.9,3-6.1,3.9-10.5
			c1-4.5,1.5-8.8,1.5-13.4c0-1.4-0.1-2.2-0.2-3.4l7.1,0.9c-0.1,1.4-0.1,1.4-0.3,5.7c-0.1,1.8-0.1,3-0.4,5.3c1.2,2.2,2.3,3.5,4.1,5.3
			V1409.1z M2512.5,1416.2c0-3.2-0.1-4.4-0.2-5.8c1.8,0.2,3.1,0.3,6.3,0.3h15.4c3.5,0,5.5-0.1,7.7-0.3c-0.2,1.9-0.3,3.3-0.3,7.1v8
			c0,4,0.1,5.5,0.3,7.3c-2.2-0.2-4.3-0.3-7.3-0.3h-14.4c-3.5,0-5.6,0.1-7.7,0.3c0.2-1.9,0.3-3.6,0.3-7.1V1416.2z M2519.6,1426.1
			h14.4v-9.4h-14.4V1426.1z"/>
		<path class="st2" d="M2580.2,1403.4c8.9,2.7,19.2,7.1,28.5,12.7l-3.9,7.8c-7.8-4.8-16.8-8.9-24.6-11.8v31h-9v-60.1h9V1403.4z
			 M2596.9,1387.3c2.7,2.7,5.7,7.1,7.7,11.2l-4.8,2.8c-2.2-4.6-4.7-8.6-7.3-11.7L2596.9,1387.3z M2604.9,1383.3
			c2.7,2.6,5.4,6.5,7.8,11.1l-4.8,2.6c-2-4.2-5-8.6-7.4-11.2L2604.9,1383.3z"/>
		<path class="st2" d="M2625.8,1404h57.7v7.7h-23.6c-0.6,15.4-7.2,25.7-19.9,32.2l-5.6-6.8c11.2-5.8,16-13.1,16.3-25.4h-24.9V1404z
			 M2632.5,1387.2h38.7v7.8h-38.7V1387.2z M2677.2,1380.6c2.1,3,4.2,7.8,5.6,12.4l-5.3,1.9c-1.4-4.8-3.2-9.3-5.3-12.7L2677.2,1380.6
			z M2685.7,1377.9c2.2,2.9,4.2,7.3,5.9,12.2l-5.2,1.8c-1.2-4.5-3.5-9.4-5.5-12.3L2685.7,1377.9z"/>
		<path class="st2" d="M2702.6,1404.2v-7.7h18.6c0.1-1.9,0.1-4,0.1-6v-8.5h8.8v8.1c-0.1,2.2-0.1,4.2-0.1,6.4h19.4l4.2,4
			c-0.4,13.2-1.1,22.3-2.3,29.9c-1.3,8-5.1,11.4-11.5,11.4c-3,0-6.6-0.3-9.5-0.7l-0.9-8.7c3.7,0.6,6.2,0.9,9.1,0.9
			c2.4,0,3.7-0.9,4.2-4.5c1.2-6.6,1.9-14,2-24.6h-15.3c-2.1,18.6-10.3,31-24.7,38.9l-5.4-6.7c12.5-7.2,19.1-16.3,21.3-32.2H2702.6z"
			/>
		<path class="st2" d="M2807.2,1442.7h-9.1v-32.5c-6.9,4.3-14.3,7.8-21.8,10.7l-5.2-7.2c18.3-6.7,33.3-16.1,45.8-30.7l7.4,5.3
			c-5.3,5.8-11,11-17.1,15.6V1442.7z"/>
		<path class="st2" d="M2902.2,1392.2c-3.5,9.1-9.9,16.9-17.6,22l-5.4-5.9c5.6-3.6,9.9-8.4,12.4-13.2h-46.8v-7.9h53.4L2902.2,1392.2
			z M2875.2,1401.2v6c0,18.4-7.2,29.5-23.1,35.8l-4.8-7.4c13.8-5.2,18.8-12.9,18.8-28.7v-5.7H2875.2z"/>
		<path class="st2" d="M2966.6,1441.9c-5.4-7.5-12.2-14.8-18.8-20.7c-7.6,8.6-16.7,15-27.6,20.2l-5.6-7.1
			c18.9-8.1,32.1-21.6,38.7-38.5h-31.9v-8.1h37.7l4.9,5.5c-3.1,8.3-6.8,15.3-11.1,21.5c7.5,5.7,15,13.2,21.1,21L2966.6,1441.9z"/>
		<path class="st2" d="M3004.6,1386.7v43.7c11.8-3.2,25.7-12,35.4-24.1l5.5,7.3c-10.6,13.8-26.4,23.3-45.6,27.4l-4.4-4.9v-49.4
			H3004.6z"/>
		<path class="st2" d="M3085.2,1396.7c-6.2,0.9-12.4,1.5-18.1,1.8l-2.4-8c14-0.6,30.5-2.9,42.1-7l4.3,7.3
			c-5.3,1.7-11.2,3.1-17.1,4.2v12.1h23.5v7.6h-23.8c-1.4,14-8.7,23.1-23.3,28.8l-4.8-7.1c12-4.6,17.8-11.1,19.2-21.7h-25.8v-7.6
			h26.1V1396.7z"/>
		<path class="st2" d="M3143.4,1399c2.7,4.6,5.1,10.4,6.9,16l-7.8,2.7c-1.7-5.7-4-11.5-6.4-16.1L3143.4,1399z M3184,1398.7
			c-3.6,22.2-13.7,37.4-31.8,45.7l-5-6.6c16.6-7.6,25.6-20.2,28.5-40.6L3184,1398.7z M3158.3,1395.9c2.9,4.9,5.3,10.6,6.8,15.8
			l-7.6,2.6c-1.5-5.6-4-11.5-6.4-16.2L3158.3,1395.9z"/>
		<path class="st2" d="M3252,1392.6l4.8,5.3c-7.3,21.9-21,36.7-40.8,45.5l-5.8-7.1c17.9-7.7,30.6-20.7,35.9-36.1h-19.4
			c-4.5,6.2-9.8,11.7-15.4,15.9l-6.4-5.6c9.5-7.3,17.6-17.6,22.4-28.8l8.6,2.5c-1.3,2.9-2.7,5.7-4.3,8.4H3252z"/>
	</g>
</g>
<g>
	<path class="st10" d="M3429.2,1309.5v614.8H2335.7v-614.8H3429.2 M3445.2,1293.5H2319.7v646.8h1125.6V1293.5L3445.2,1293.5z"/>
</g>
</svg>
