<?xml version="1.0" encoding="utf-8"?>
<!-- Generator: Adobe Illustrator 21.1.0, SVG Export Plug-In . SVG Version: 6.00 Build 0)  -->
<svg version="1.1" id="レイヤー_1" xmlns="http://www.w3.org/2000/svg" xmlns:xlink="http://www.w3.org/1999/xlink" x="0px"
	 y="0px" viewBox="0 0 3445.2 1940.3" style="enable-background:new 0 0 3445.2 1940.3;" xml:space="preserve">
<style type="text/css">
	.st0{opacity:5.000000e-02;fill:#C30D23;enable-background:new    ;}
	.st1{fill:#C30D23;}
	.st2{fill:#FFFFFF;}
	.st3{opacity:4.000000e-02;fill:#41A5E7;enable-background:new    ;}
	.st4{fill:#3CA5E7;}
	.st5{opacity:0.1;fill:#74340B;enable-background:new    ;}
	.st6{fill:#864E2B;}
	.st7{opacity:8.000000e-02;fill:#F2971B;enable-background:new    ;}
	.st8{fill:#F28B00;}
	.st9{opacity:8.000000e-02;fill:#8EC43E;enable-background:new    ;}
	.st10{fill:#69C314;}
</style>
<g id="レイヤー_4">
	<g>
		<rect x="1159.8" class="st0" width="1159.8" height="1942.9"/>
		<path class="st1" d="M1159.8,0v347.4c144.8,18.6,351,30.2,579.9,30.2s435.1-11.6,579.9-30.2V0H1159.8z"/>
		<g>
			<g>
				<path class="st2" d="M1520.9,105.4v-10h39.7l-0.6-17.7l11-0.1l0.6,17.8h19.5v10.1h-19.2l1.1,36.9c0,0.3,0,0.5,0,0.7
					c0,8.9-5,12.4-13.4,12.4c-4.4,0-7.7-0.3-11.5-0.8l-1.7-10.8c4.2,0.7,8.5,1,12.1,1c2.5,0,3.5-0.7,3.5-3.3c0-0.1,0-0.3,0-0.4
					l-0.5-14.7l0.2-14.5c-8.6,13.6-22.7,26-38.5,34.6l-6.9-8.5c15.3-7.9,28.5-19.7,37.4-32.6L1520.9,105.4L1520.9,105.4z"/>
				<path class="st2" d="M1622.6,82.6h11.7v41.2h-11.7V82.6z M1672.4,81.4V111c0,23.3-10.6,37.3-29.9,45.3l-7.1-9.6
					c18.1-6.7,25.3-17.2,25.3-36.9V81.4H1672.4z"/>
				<path class="st2" d="M1710.1,103.1c7.5,2.5,16.5,7,23.5,11.8l-5.6,10c-7.1-4.9-16-9.5-23.1-12.5L1710.1,103.1z M1707.1,143.5
					c28.9-4.2,48.8-16.5,61.1-43.4l9.6,7.2c-13.4,28.5-36.4,42.3-67.5,47.7L1707.1,143.5z M1717.9,81.7c7.4,2.6,15.9,6.6,22.9,11.6
					l-5.5,9.8c-7.2-5.2-15.6-9.2-22.6-12.2L1717.9,81.7z M1762.2,77.9c2.6,3.9,5.3,10.1,7.2,15.9l-6.7,2.4
					c-1.8-6.2-4.2-11.9-6.8-16.2L1762.2,77.9z M1773,74.4c2.8,3.7,5.4,9.3,7.6,15.6l-6.7,2.3c-1.5-5.9-4.4-12-6.9-15.9L1773,74.4z"
					/>
				<path class="st2" d="M1827.6,79.3h11.4v22.8h30.1v10.1h-30.2c-0.7,20.1-10.3,35-27.9,43.2l-7.4-9.5c14.9-7,22.5-16.7,23.8-33.7
					H1796v-10.1h31.6V79.3z"/>
				<path class="st2" d="M1912.3,84v21.1c0,21.4-6.1,36.2-20.4,48l-8.6-7.7c13.1-10,17.6-22.2,17.6-40.9V84H1912.3z M1937.2,81.4
					v56.7c7.7-3.3,17.2-10.6,24.7-20.2l6.2,9.7c-8,10.4-22.2,20-36.2,25.5l-6-5.2V81.4H1937.2z"/>
				<path class="st2" d="M1280,248.7c8-6.5,15.9-14.8,22.2-22.5c2.8-3.3,5.7-5,8.7-5c2.9,0,5.8,1.5,8.6,4.4
					c10.2,11,27.2,26,42.1,36.9l-8.1,10.8c-14.6-11.8-31.2-27.6-40.1-38.1c-0.9-1.1-1.7-1.7-2.4-1.7c-0.8,0-1.7,0.6-2.6,1.8
					c-5.3,6.6-13.7,15.9-21.1,22.4L1280,248.7z M1339.3,217.5c3.4,3.4,7.2,9,9.8,14.4l-6.2,3.6c-2.8-5.8-6-11.1-9.3-14.8
					L1339.3,217.5z M1349.5,212.3c3.4,3.3,7,8.4,10,14.2l-6.1,3.4c-2.6-5.5-6.4-11.1-9.5-14.5L1349.5,212.3z"/>
				<path class="st2" d="M1395.3,260.7c0,5.9,3,8.2,14.2,8.2c11.9,0,22.5-1,33-3.1l1.4,11.1c-10.9,1.8-21.9,2.7-34.4,2.7
					c-19.2,0-25.4-5-25.4-16.9v-54.2h11.2v27.4c13.7-3.5,28.1-9.3,38.9-16.2l6,9.9c-13.2,7.2-29.5,13.1-44.9,16.5L1395.3,260.7
					L1395.3,260.7z M1437.4,204.3c3.5,3.5,7.2,9,9.9,14.5l-6.2,3.5c-2.8-5.8-6.1-11-9.3-14.8L1437.4,204.3z M1447.8,199.2
					c3.4,3.3,6.9,8.3,10,14.1l-6.1,3.4c-2.6-5.4-6.5-11.1-9.5-14.4L1447.8,199.2z"/>
				<path class="st2" d="M1541.6,237.8v11.6h-74.1v-11.6H1541.6z"/>
				<path class="st2" d="M1625.7,281.1c-6.9-9.6-15.6-19-24.1-26.5c-9.7,11.1-21.4,19.3-35.3,25.8l-7.2-9
					c24.2-10.3,41.1-27.7,49.6-49.3h-40.9v-10.3h48.2l6.3,7c-4,10.6-8.7,19.6-14.2,27.5c9.6,7.3,19.2,17,27,26.8L1625.7,281.1z"/>
				<path class="st2" d="M1681.5,225.9c-6,8.2-12.8,15.2-20,20.5l-8.1-7.1c12.5-9,22.8-22.6,28.6-36.7l11.1,3.4
					c-1.7,3.6-3.4,7.2-5.3,10.5h27.3l6.1,6.2c-9.2,32.9-26.4,50.7-54.3,61.4l-6.8-9.3c12.5-4.7,22.7-11,30.7-18.8
					c-5.2-5.2-10.9-9.7-16.2-13l6.5-7.1c5.3,2.7,11.3,7.1,16.8,12.2c4.9-6.5,8.6-13.9,11.1-22.1L1681.5,225.9L1681.5,225.9z"/>
				<path class="st2" d="M1818.3,237.8v11.6h-74.1v-11.6H1818.3z"/>
				<path class="st2" d="M1861.5,204.6c-1.1,2.3-1.3,2.9-2.1,5.1c-1.5,3.9-1.5,3.9-6.2,14.5v50.1c0,4.2,0.2,7.8,0.6,11.2H1843
					c0.4-3.5,0.6-6.5,0.6-11.3v-25.7c0-2.2,0-2.7,0.2-10.3c-3.1,4.3-5.3,7-8.6,10.4c-1.3-4.2-2.5-6.8-4.8-10.5
					c6.7-6.1,12.5-14.6,17.2-25c2-4.7,3.2-8.4,3.9-11.9L1861.5,204.6z M1876.1,223.9c-4,8-8.7,15-14.8,21.9
					c-2.1-3.7-3.3-5.3-6.5-8.5c6.8-7,11.3-13.8,15.2-23c2.2-5.4,3.6-10,4-13.1l10.3,3c-0.9,2.1-1.2,3-1.8,4.8
					c-1.4,3.7-1.5,4.1-2.3,6h24.6c4.5,0,7.3-0.2,9.9-0.6v9.8c-2.6-0.3-5.8-0.5-9.9-0.5h-17.2v11.5h14.8c3.8,0,6.3-0.2,8.9-0.5v9.6
					c-3-0.3-5.6-0.5-9-0.5h-14.7v11.5h14.8c3.9,0,6.3-0.1,9-0.5v9.7c-3-0.3-5.6-0.5-9-0.5h-14.8v10.4c0,5.4,0.2,8.4,0.6,10.9h-10.9
					c0.5-2.7,0.6-5.3,0.6-10.9v-50.9h-1.8L1876.1,223.9L1876.1,223.9z"/>
				<path class="st2" d="M1956,275.2c18-7.5,24.3-18,24.3-34.4c0-14.1-4.6-20.6-11.1-20.6c-6.3,0-12,5.9-15.7,16.9
					c-1.9,6.1-3.3,12.5-4,19.2c-1.6,0.3-3.2,0.4-4.9,0.4c-1.8,0-3.4-0.1-5-0.4c-0.5-4.5-0.6-8.1-0.6-11.9c0-9.5,1.1-23.1,3.5-39.5
					c1-0.2,2.2-0.3,3.5-0.3c2.4,0,5.1,0.4,7.1,1c-1.9,9.7-3,16.2-3.6,21h0.5c4-11.1,12.1-16.9,20.5-16.9c12.2,0,20.9,11.1,20.9,31.1
					c0,20.8-8.7,35.1-28.2,43.6L1956,275.2z"/>
				<path class="st2" d="M2035.1,275c0,4.7,0.1,7.7,0.5,10.5h-10.7c0.4-3.4,0.6-6,0.6-10.6v-24.8c0-4.9,0-6.3,0.2-10.2
					c-2.5,4.2-4.2,6.5-7.1,9.7c-1.1-4.5-2.2-7.5-4-11c10-10.9,16.3-23.1,19-37l10,2.7c-3.2,9.4-5.3,14.8-8.4,21.3v35.2
					c9.8-7.4,18.6-19.6,23.8-32.6h-9.8c-3.1,0-6.6,0.2-9.6,0.5v-10.1c2.8,0.3,6.3,0.5,9.8,0.5h13.3v-8.2c0-3-0.2-5.8-0.6-8.6h10.6
					c-0.4,2.9-0.5,5.4-0.5,8.6v8.2h16.7c4,0,7.6-0.2,10.5-0.6v10.1c-3.1-0.3-6.7-0.5-10.2-0.5h-13.4c3,6.9,5.5,11.2,10.6,18.2
					c3.8,5.1,8.8,9.9,15.5,15c-2.5,2.8-4,4.9-6.3,9.3c-4.8-4.4-6.9-6.6-10.1-10.5v8.6c-1.9-0.3-3.9-0.4-6.6-0.4h-6.6v7.2
					c0,3.6,0.1,6.6,0.5,9.9h-10.6c0.5-3.4,0.7-6.5,0.7-9.9v-7.2h-6.5c-2.6,0-4.6,0.1-6.5,0.4v-8.5c-3.6,4.2-5.1,5.8-9.6,9.9
					c-1.9-3.5-3-5-5.2-7.5L2035.1,275L2035.1,275z M2062.8,248.7c0-4.7,0-6.5,0.2-10.8c-4.2,9.8-6.9,14.7-12.4,21.5
					c1.8,0.2,3.4,0.3,6,0.3h6.2V248.7z M2078.7,259.6c2.7,0,4.1-0.1,6.1-0.3c-5.2-6.6-8.9-12.9-12.8-21.8c0.2,5.1,0.3,7.2,0.3,10.8
					v11.3H2078.7z"/>
				<path class="st2" d="M2117.5,256.4c-0.7,11.8-1.5,17.2-3.7,25.1l-6.5-3.2c2.4-6.8,3.7-14.3,4.1-23.2L2117.5,256.4z M2172.2,230
					c0,3.3,0,3.8,0,5.4h9.6c3.7,0,5.3-0.1,7.2-0.3c-0.2,1.9-0.3,4.2-0.3,6.5v12.3c0,3.4,0.1,4.7,0.3,6.5c-2.7-0.2-4.5-0.3-7-0.3
					h-8.1c2.2,4.1,4.6,6.9,7.7,9.7c3.3,2.8,6.3,4.4,12.5,7.1c-2.1,3.1-3.4,5.7-4.7,9.5c-9.8-4.7-16.9-11.3-21.3-19.9
					c-4.1,9-10.5,15.3-20.3,19.9c-1.5-3.2-3.1-5.5-5.3-7.7c-1.7,5.3-3.7,6.5-10.6,6.5c-2,0-3.1-0.1-5.2-0.3c0-3.6-0.5-6.1-1.4-8.9
					c2.6,0.6,4.2,0.8,6.2,0.8c3.8,0,4.3-1.1,5.3-10.6l-3.7,1.6c-0.4-3.7-1.5-9.2-2.5-12.4l3.4-1c1.6,4.8,2,6.5,2.8,10.8
					c0.5-4.8,0.6-7.2,0.6-12.5H2119c-2.8,0-5.3,0.1-7.3,0.3c0.3-2.2,0.4-4.6,0.4-7.8v-31.1c0-4.6-0.1-6.7-0.4-9.4
					c2.7,0.4,5,0.5,9.1,0.5h15.9c4.2,0,6-0.1,8.5-0.5v8.8c-2.1-0.3-3.7-0.4-6.8-0.4h-3v5.8h1.8c2.4,0,4.1-0.1,6-0.4v2.4
					c4.2-2.3,6.9-4.3,10.7-7.7c3.9-3.5,6.4-6.6,8.6-10.5h9.6c2,3.2,4,5.4,7.4,8.5c4.5,3.8,7.8,5.8,14.8,9c-2,3.1-3.1,5.8-4.1,9.3
					c-3.4-1.7-4.5-2.3-6.6-3.7v4.4c-2.2-0.2-3.8-0.3-6.4-0.3L2172.2,230L2172.2,230z M2123.6,255.7c0.6,6.7,0.9,11.4,0.9,16.9
					c0,1,0,2.5,0,4.4l-6,0.9c0.3-4.6,0.4-6.3,0.4-12.4c0-4.4,0-5.5-0.4-9.1L2123.6,255.7z M2127.5,213.1h-6.7v5.8h6.7V213.1z
					 M2127.5,225.9h-6.7v5.7h6.7V225.9z M2120.7,238.5v6.2h6.7v-6.2H2120.7z M2129.1,255.1c1.4,5.4,2.1,10.8,2.5,17.7l-4.8,1.4
					c-0.4-9.5-0.6-12.2-1.8-18.1L2129.1,255.1z M2158.7,230c-2.4,0-4.2,0.1-6.1,0.4v-4.3c-1.8,1.3-2.8,1.9-5.7,3.8
					c-0.9-2.7-1.8-4.2-3.8-7.2v3.6c-1.9-0.3-3.5-0.4-6-0.4h-1.8v5.7h1.7c2.9,0,4.1-0.1,6-0.3v7.6c-1.9-0.3-3.7-0.4-6-0.4h-1.7v6.2
					h3.1c3.8,0,5.3-0.1,7.2-0.4c-0.2,1.7-0.3,3.7-0.4,7.6c-0.2,9.7-1.1,19.6-2.5,25.7c8.9-3.9,15-9.7,18.2-17.5h-6.5
					c-2.9,0-4.8,0.1-7.1,0.4c0.3-2,0.4-3.7,0.4-6.5v-12.3c0-3-0.1-4.1-0.3-6.5c1.8,0.2,3.5,0.3,7.2,0.3h8.9l-0.1-5.4h-4.7
					L2158.7,230L2158.7,230z M2156.2,242.9v9.6h6.6c0.4-3.1,0.5-5.5,0.6-9.6H2156.2z M2178.2,222c-4.8-3.7-7-6-11-10.9
					c-3.5,4.8-5.3,6.8-9.8,10.9h1.4H2178.2z M2172.1,242.9c-0.2,5.3-0.3,6.9-0.6,9.6h8.7v-9.6H2172.1z"/>
			</g>
		</g>
		<rect class="st3" width="1159.8" height="1942.9"/>
		<path class="st4" d="M0,0v347.4c144.8,18.6,351,30.2,579.9,30.2s435.1-11.6,579.9-30.2V0H0z"/>
		<g>
			<g>
				<path class="st2" d="M396.6,164.8c-5.7,0-9.2,0.2-13.2,0.6v-12.1c3.6,0.4,7.1,0.6,13.3,0.6h54.9c5.9,0,9.3-0.1,13.1-0.6v12.1
					c-4.2-0.5-7.6-0.6-13.1-0.6h-22.4v54.6h27.4c5.8,0,9.7-0.2,13.7-0.7v12.4c-3.7-0.5-8.3-0.7-13.7-0.7h-65.2
					c-5.2,0-9.5,0.2-13.7,0.7v-12.4c4.2,0.5,7.8,0.7,13.9,0.7h25.6v-54.6L396.6,164.8L396.6,164.8z"/>
				<path class="st2" d="M522.2,207.5c-4.3,3.7-6.5,5.3-12.5,8.7c-1.2-2.3-1.8-3-4-5.5c-5.8,3.6-10.7,6.2-20.2,10.8
					c-0.2,0-0.6,0.3-1.4,0.7c-0.2,0.1-0.5,0.3-0.9,0.5l-2.6-12c2.7-0.6,6.5-1.9,11.4-4.1v-26.9h-2.9c-2.9,0-5.3,0.1-7.9,0.5v-10.8
					c2.4,0.3,4.7,0.4,8,0.4h2.8v-12.6c0-5.2-0.2-8.3-0.6-11.3h11.9c-0.5,3.3-0.6,6-0.6,11.3v12.6h1.9c3.3,0,5.3-0.1,7.2-0.3V180
					c-2.4-0.2-4.4-0.3-7.1-0.3h-2v22c2.7-1.5,3.5-2,6.9-3.8v7.1c5.6-3.3,9.2-6.5,12.1-10.3h-2.2c-4.3,0-7.1,0.1-9.5,0.5V185
					c2.3,0.4,4.9,0.5,9.6,0.5h44.5c4.9,0,8.1-0.2,10.6-0.6v10.2c-2.8-0.3-6.1-0.4-10.5-0.4H533c-0.9,1.6-1.5,2.4-2.8,4.2h32.5
					c5,0,7-0.1,10-0.3c-0.2,1.7-0.3,2.9-0.5,6c-0.4,12.8-2,23.1-4.1,27.7c-2.2,4.7-5.4,6-14.4,6c-2.8,0-4.6-0.1-8.5-0.3
					c-0.4-3.7-1.2-6.5-2.8-9.4c-5.5,4.8-9.8,7.7-16.9,11.2c-2.2-3.3-3.9-5.1-7.3-7.8c8.9-3.8,13.2-6.5,18.5-10.9
					c4.3-3.6,7.5-7.8,10.6-13.6h-6c-6.3,9.5-15.1,16.3-28.3,22.4c-1.8-3.1-3.2-4.9-6.6-7.7c11.7-4.4,18.3-8.5,23.6-14.7L522.2,207.5
					L522.2,207.5z M525.3,181.3c-4,0-7.3,0.1-9.4,0.3c0.3-2.7,0.4-5.6,0.4-9.8v-14.9c0-4.4-0.1-6.1-0.4-9.3
					c3.1,0.4,5.5,0.5,10.3,0.5H556c5.1,0,7.9-0.1,10.9-0.5c-0.3,2.9-0.4,4.9-0.4,10.1v14c0,4.5,0.1,7.4,0.4,9.8
					c-2.1-0.2-5.2-0.3-9.3-0.3L525.3,181.3L525.3,181.3z M526.8,161.4h28.9v-4.3h-28.9V161.4z M526.8,173h28.9v-4.2h-28.9V173z
					 M557.9,207.5c-4,8.6-7.9,14.2-14.3,20c4.2,0.5,7.5,0.8,10.5,0.8c3.7,0,4.9-1,5.7-5.4c0.7-3.5,1.4-8,1.9-15.4L557.9,207.5
					L557.9,207.5z"/>
				<path class="st2" d="M608.8,208.9c-4.9,0-8.4,0.1-11,0.3c0.4-3,0.5-6.1,0.5-10.8v-37.2c0-5.5-0.2-10.1-0.5-12.6
					c3,0.3,6,0.4,10.7,0.4h47.1c4.6,0,7.8-0.1,10.7-0.4c-0.3,2.3-0.5,7-0.5,12.6v37.2c0,4.9,0.1,7.9,0.5,10.8
					c-2.7-0.2-6.6-0.3-10.7-0.3h-8.8v15.7c0,2.9,0.9,3.2,8.9,3.2c7.8,0,9.8-0.4,11-2.2c0.9-1.5,1.6-5.3,1.8-13
					c4.2,2.2,6.7,3.2,10.5,4.2c-0.9,11.3-2,15.2-4.6,17.7c-2.8,2.6-7.2,3.4-18.6,3.4c-17,0-20.1-1.4-20.1-9.1v-20h-9.2
					c-1.2,7.8-4.5,14-9.8,18.9c-6.5,5.9-14.2,9.6-25.8,12.3c-1.8-4.3-3-6.5-5.9-10.1c9.6-1.7,15-3.5,19.9-6.8
					c5.5-3.5,8.4-7.9,9.7-14.4h-5.8L608.8,208.9L608.8,208.9z M609,165.9h46.1v-6.7H609V165.9z M609,182.3h46.1v-6.9H609V182.3z
					 M609,199.1h46.1v-7.2H609V199.1z"/>
				<path class="st2" d="M703.1,210.9c-5.3,0-9.3,0.2-12.4,0.6v-11.2c3.4,0.4,7.5,0.6,12.3,0.6h27.8v-0.7c0-2-0.1-3.8-0.3-5.5h4.4
					c4.4-2.3,7.8-4.6,12.1-8.3h-28.1c-4.2,0-7,0.1-10.2,0.4v-10.1c3,0.3,5.9,0.4,10.3,0.4h33.7c4.1,0,5.9-0.1,7.8-0.4l5.6,6.2
					c-1.7,1.4-1.7,1.4-3.6,3c-7.2,6.1-12.4,10-20.4,14.9v0.1h26.5c5.1,0,9.6-0.2,12.6-0.6v11.2c-2.9-0.4-7.3-0.6-12.7-0.6H742v17.8
					c0,3.5-0.3,5-1.2,6.5c-1.8,2.5-5.3,3.3-14.5,3.3c-1.4,0-4.7-0.1-10.1-0.3c-1-5.4-1.6-7.2-3.3-10.8c5,0.6,9.5,0.9,12.7,0.9
					c4.5,0,5.2-0.3,5.2-2.3v-15.1L703.1,210.9L703.1,210.9z M708.4,160.6c-2.3-4.5-3.7-6.6-7.6-11.5l10.2-3c3.5,4.4,5.9,8,9.3,14.6
					H731c-1.6-4.8-3.2-8.3-6-12.8l10.5-3c4.2,7.9,4.8,9.3,7.1,15.8h8.6c3-4.1,6.6-10.5,8.3-15.3l11,3.1c-2.4,4.4-5.3,9.1-7.7,12.2
					h4.6c7,0,8.8-0.1,12.6-0.4c-0.3,2.5-0.4,4.7-0.4,8.4v9.5c0,2.8,0.2,5.3,0.5,7.8H769v-16h-66.4v15.8h-11.1
					c0.4-2.4,0.5-4.7,0.5-7.8v-9.5c0-3.6-0.1-5.7-0.4-8.4c4.7,0.4,5.2,0.4,12.1,0.4L708.4,160.6L708.4,160.6L708.4,160.6z"/>
			</g>
		</g>
		<rect x="2319.7" class="st5" width="1125.6" height="646.8"/>
		<g>
			<rect x="2319.7" class="st6" width="1125.6" height="241.9"/>
		</g>
		<g>
			<g>
				<path class="st2" d="M2666.6,80.1c6.1-4.9,12-11.2,16.9-17.1c2.1-2.5,4.3-3.8,6.6-3.8c2.2,0,4.4,1.1,6.5,3.4
					c7.8,8.3,20.7,19.7,32,28l-6.2,8.2c-11.1-9-23.7-20.9-30.5-28.9c-0.7-0.8-1.3-1.3-1.8-1.3c-0.6,0-1.3,0.5-2,1.3
					c-4,5-10.4,12-16,17L2666.6,80.1z M2711.6,56.4c2.6,2.6,5.5,6.9,7.4,10.9l-4.7,2.7c-2.1-4.4-4.6-8.4-7.1-11.3L2711.6,56.4z
					 M2719.4,52.5c2.6,2.5,5.3,6.4,7.6,10.8l-4.6,2.6c-2-4.2-4.8-8.4-7.2-11L2719.4,52.5z"/>
				<path class="st2" d="M2754.1,89.2c0,4.5,2.2,6.2,10.8,6.2c9,0,17.1-0.8,25.1-2.4l1,8.4c-8.3,1.4-16.7,2-26.1,2
					c-14.6,0-19.3-3.8-19.3-12.8V49.5h8.5v20.8c10.4-2.7,21.4-7.1,29.5-12.3l4.5,7.5c-10,5.5-22.4,9.9-34.1,12.5v11.2H2754.1z
					 M2786.1,46.4c2.7,2.7,5.5,6.9,7.5,11l-4.7,2.7c-2.1-4.4-4.6-8.3-7.1-11.3L2786.1,46.4z M2793.9,42.5c2.6,2.5,5.2,6.3,7.6,10.7
					l-4.6,2.6c-2-4.1-4.9-8.4-7.2-10.9L2793.9,42.5z"/>
				<path class="st2" d="M2865.2,71.8v8.8h-56.3v-8.8H2865.2z"/>
				<path class="st2" d="M2929,104.7c-5.3-7.3-11.8-14.4-18.3-20.1c-7.4,8.4-16.2,14.6-26.8,19.6l-5.5-6.9
					c18.3-7.8,31.2-21,37.7-37.5h-31V52h36.6l4.8,5.3c-3,8.1-6.6,14.9-10.8,20.9c7.3,5.5,14.6,12.9,20.5,20.4L2929,104.7z"/>
				<path class="st2" d="M2971.4,62.8c-4.6,6.2-9.7,11.6-15.2,15.5l-6.2-5.4c9.5-6.9,17.3-17.2,21.7-27.9l8.4,2.6
					c-1.3,2.7-2.6,5.5-4.1,8h20.7l4.6,4.7c-7,25-20,38.5-41.2,46.6l-5.2-7.1c9.5-3.6,17.2-8.3,23.3-14.3c-3.9-3.9-8.3-7.4-12.3-9.9
					l4.9-5.4c4.1,2,8.6,5.4,12.7,9.2c3.7-5,6.5-10.6,8.4-16.8h-20.5L2971.4,62.8L2971.4,62.8z"/>
				<path class="st2" d="M3075.2,71.8v8.8h-56.3v-8.8H3075.2z"/>
				<path class="st2" d="M2519.3,154.1c-6,0.9-12,1.5-17.6,1.8l-2.3-7.8c13.6-0.6,29.6-2.8,40.9-6.8l4.2,7.1
					c-5.2,1.6-10.9,3-16.6,4.1v11.8h22.9v7.4h-23.2c-1.4,13.7-8.5,22.5-22.7,28l-4.6-6.9c11.7-4.5,17.3-10.8,18.6-21.1h-25.1v-7.4
					h25.4v-10.2L2519.3,154.1L2519.3,154.1z"/>
				<path class="st2" d="M2574.6,178.1v-7.2h29.2v-9.8h-31.6V154h39.4v45.7h-7.8v-4.1h-32v-7.1h32V178h-29.2L2574.6,178.1
					L2574.6,178.1z"/>
				<path class="st2" d="M2676.3,183.4v-27.6h-37.7v-8.1h46.3v49h-8.7v-5.3H2638v-8.1h38.3V183.4z"/>
				<path class="st2" d="M2751.4,150.1l4.7,5.2c-7.1,21.3-20.4,35.6-39.7,44.2l-5.6-6.9c17.4-7.5,29.8-20.2,34.9-35.1h-18.9
					c-4.4,6-9.5,11.3-15,15.5l-6.2-5.5c9.2-7.1,17.1-17.1,21.8-28l8.4,2.5c-1.3,2.8-2.7,5.5-4.2,8.2L2751.4,150.1L2751.4,150.1z"/>
				<path class="st2" d="M2826.9,164.6c-5,19.4-16.7,30-34.6,35l-4.4-7.4c16.2-4.5,25.6-12.6,29.5-24.8h-40.7v-7.6h45.8
					L2826.9,164.6z M2820,143.7v7.8h-36.7v-7.8H2820z"/>
				<path class="st2" d="M2852.8,145c5.8,3.3,11.6,7.9,16.6,13.4l-6.4,6.7c-4.9-5.5-10.9-10.7-15.8-14.2L2852.8,145z M2848.3,188.8
					c22.3-5.2,37-16.9,44.3-35.8l7.5,4.6c-8.1,21.3-25.8,34.2-48.8,39.3L2848.3,188.8z"/>
				<path class="st2" d="M2939.3,154.1c-6,0.9-12,1.5-17.6,1.8l-2.3-7.8c13.6-0.6,29.6-2.8,40.9-6.8l4.2,7.1
					c-5.2,1.6-10.9,3-16.6,4.1v11.8h22.9v7.4h-23.2c-1.4,13.7-8.5,22.5-22.7,28l-4.6-6.9c11.7-4.5,17.3-10.8,18.6-21.1h-25.1v-7.4
					h25.4v-10.2L2939.3,154.1L2939.3,154.1z"/>
				<path class="st2" d="M3003,139.9c-0.8,1.8-1,2.2-1.6,3.8c-1.1,2.9-1.1,2.9-4.7,11v38c0,3.2,0.1,6,0.4,8.5h-8.1
					c0.3-2.7,0.4-5,0.4-8.5v-19.5c0-1.7,0-2,0.1-7.8c-2.4,3.3-4.1,5.3-6.5,7.9c-1-3.2-1.9-5.2-3.6-8c5.1-4.6,9.5-11.1,13-19
					c1.5-3.6,2.5-6.4,2.9-9L3003,139.9z M3014,154.6c-3,6.1-6.6,11.4-11.3,16.7c-1.6-2.8-2.5-4-4.9-6.4c5.2-5.3,8.6-10.5,11.6-17.4
					c1.7-4.1,2.7-7.6,3-9.9l7.8,2.3c-0.7,1.6-0.9,2.2-1.4,3.6c-1,2.8-1.1,3.1-1.8,4.6h18.7c3.4,0,5.5-0.1,7.5-0.4v7.4
					c-2-0.2-4.4-0.3-7.5-0.3h-13v8.8h11.2c2.9,0,4.8-0.1,6.8-0.4v7.3c-2.2-0.2-4.3-0.4-6.9-0.4h-11.1v8.8h11.3
					c2.9,0,4.8-0.1,6.9-0.3v7.4c-2.2-0.2-4.3-0.3-6.9-0.3h-11.3v7.9c0,4.1,0.1,6.4,0.4,8.3h-8.3c0.3-2,0.4-4.1,0.4-8.3V155h-1.2
					V154.6z"/>
				<path class="st2" d="M3074.7,193.6c13.7-5.7,18.5-13.7,18.5-26.1c0-10.7-3.5-15.6-8.4-15.6c-4.8,0-9.1,4.5-11.9,12.8
					c-1.5,4.6-2.5,9.5-3,14.6c-1.2,0.2-2.5,0.3-3.7,0.3c-1.3,0-2.6-0.1-3.8-0.3c-0.4-3.4-0.4-6.2-0.4-9c0-7.2,0.8-17.5,2.7-30
					c0.8-0.1,1.7-0.2,2.7-0.2c1.8,0,3.8,0.3,5.4,0.8c-1.5,7.4-2.3,12.3-2.7,16h0.3c3-8.4,9.2-12.8,15.5-12.8
					c9.2,0,15.9,8.4,15.9,23.6c0,15.8-6.6,26.7-21.4,33.1L3074.7,193.6z"/>
				<path class="st2" d="M3134.8,193.4c0,3.6,0.1,5.8,0.3,8h-8.1c0.3-2.6,0.4-4.6,0.4-8.1v-18.8c0-3.7,0-4.8,0.1-7.8
					c-1.9,3.2-3.2,5-5.4,7.4c-0.8-3.4-1.7-5.7-3-8.3c7.6-8.3,12.4-17.6,14.4-28.1l7.6,2c-2.5,7.1-4.1,11.2-6.4,16.2v26.7
					c7.4-5.6,14.1-14.8,18.1-24.7h-7.4c-2.4,0-5,0.1-7.3,0.4v-7.6c2.1,0.2,4.8,0.3,7.4,0.3h10.1v-6.2c0-2.3-0.1-4.4-0.4-6.5h8.1
					c-0.3,2.2-0.4,4.1-0.4,6.5v6.2h12.7c3,0,5.7-0.1,8-0.4v7.7c-2.4-0.2-5.1-0.4-7.8-0.4h-10.2c2.3,5.3,4.2,8.5,8.1,13.8
					c2.9,3.9,6.7,7.5,11.8,11.4c-1.9,2.1-3,3.7-4.8,7.1c-3.6-3.4-5.3-5-7.7-8v6.5c-1.5-0.2-2.9-0.3-5-0.3h-5v5.5
					c0,2.7,0.1,5,0.4,7.5h-8.1c0.3-2.6,0.6-5,0.6-7.5v-5.5h-4.9c-2,0-3.5,0.1-4.9,0.3v-6.4c-2.7,3.2-3.9,4.4-7.3,7.5
					c-1.5-2.7-2.2-3.8-3.9-5.7v9.3L3134.8,193.4L3134.8,193.4z M3155.8,173.4c0-3.6,0-5,0.1-8.2c-3.2,7.4-5.3,11.1-9.4,16.3
					c1.4,0.1,2.6,0.2,4.6,0.2h4.7L3155.8,173.4L3155.8,173.4z M3167.8,181.7c2,0,3.1-0.1,4.6-0.2c-3.9-5-6.7-9.8-9.7-16.5
					c0.1,3.9,0.2,5.5,0.2,8.2v8.5H3167.8z"/>
				<path class="st2" d="M3197.3,179.3c-0.6,9-1.1,13-2.8,19l-4.9-2.5c1.8-5.2,2.8-10.9,3.1-17.6L3197.3,179.3z M3238.8,159.2
					c0,2.5,0,2.9,0,4.1h7.3c2.8,0,4.1-0.1,5.5-0.2c-0.1,1.5-0.2,3.2-0.2,4.9v9.3c0,2.6,0.1,3.6,0.2,4.9c-2-0.1-3.4-0.2-5.3-0.2h-6.2
					c1.7,3.1,3.5,5.3,5.9,7.4c2.5,2.1,4.8,3.4,9.5,5.4c-1.6,2.4-2.6,4.3-3.6,7.2c-7.4-3.6-12.8-8.6-16.2-15.1
					c-3.1,6.9-8,11.6-15.4,15.1c-1.1-2.5-2.4-4.2-4.1-5.8c-1.3,4-2.8,4.9-8.1,4.9c-1.5,0-2.4-0.1-3.9-0.2c0-2.7-0.3-4.6-1-6.8
					c2,0.5,3.2,0.6,4.7,0.6c2.9,0,3.3-0.8,4.1-8.1l-2.8,1.2c-0.3-2.8-1.1-7-1.9-9.4l2.6-0.8c1.2,3.6,1.5,5,2.1,8.2
					c0.3-3.6,0.4-5.5,0.4-9.5h-14c-2.1,0-4,0.1-5.5,0.2c0.2-1.7,0.3-3.5,0.3-6v-23.6c0-3.5-0.1-5.1-0.3-7.1c2,0.3,3.8,0.4,6.9,0.4
					h12c3.2,0,4.6-0.1,6.4-0.4v6.7c-1.6-0.2-2.8-0.3-5.2-0.3h-2.2v4.4h1.3c1.8,0,3.1-0.1,4.6-0.3v1.8c3.2-1.8,5.2-3.3,8.1-5.8
					c2.9-2.7,4.8-5,6.5-8h7.3c1.5,2.5,3,4.1,5.6,6.4c3.4,2.9,6,4.4,11.3,6.9c-1.5,2.4-2.4,4.4-3.1,7.1c-2.6-1.3-3.4-1.8-5-2.8v3.4
					c-1.7-0.1-2.9-0.2-4.8-0.2h-3.8L3238.8,159.2L3238.8,159.2z M3201.9,178.7c0.5,5.1,0.7,8.7,0.7,12.8c0,0.8,0,1.9,0,3.4l-4.6,0.7
					c0.2-3.5,0.3-4.8,0.3-9.4c0-3.4,0-4.2-0.3-6.9L3201.9,178.7z M3204.8,146.4h-5.1v4.4h5.1V146.4z M3204.8,156.1h-5.1v4.3h5.1
					V156.1z M3199.7,165.7v4.7h5.1v-4.7H3199.7z M3206.1,178.3c1,4.1,1.6,8.2,1.9,13.4l-3.6,1.1c-0.3-7.2-0.5-9.2-1.4-13.7
					L3206.1,178.3z M3228.6,159.2c-1.8,0-3.2,0.1-4.6,0.3v-3.3c-1.3,1-2.1,1.5-4.3,2.9c-0.7-2-1.3-3.2-2.9-5.5v2.7
					c-1.5-0.2-2.7-0.3-4.6-0.3h-1.3v4.3h1.3c2.2,0,3.1-0.1,4.6-0.2v5.7c-1.5-0.2-2.8-0.3-4.6-0.3h-1.3v4.7h2.4
					c2.9,0,4.1-0.1,5.5-0.3c-0.1,1.3-0.2,2.8-0.3,5.7c-0.1,7.4-0.8,14.8-1.9,19.5c6.8-2.9,11.4-7.4,13.8-13.3h-4.9
					c-2.2,0-3.6,0.1-5.4,0.3c0.2-1.5,0.3-2.8,0.3-5v-9.3c0-2.2-0.1-3.1-0.2-4.9c1.4,0.1,2.7,0.2,5.5,0.2h6.7l-0.1-4.1h-3.7V159.2z
					 M3226.7,169v7.3h5c0.3-2.4,0.3-4.2,0.5-7.3H3226.7z M3243.3,153.2c-3.6-2.8-5.3-4.6-8.3-8.3c-2.7,3.6-4,5.2-7.4,8.3h1H3243.3z
					 M3238.7,169c-0.1,4.1-0.2,5.2-0.4,7.3h6.6V169H3238.7z"/>
			</g>
		</g>
		<g>
			<path class="st6" d="M3429.2,16v614.8H2335.7V16H3429.2 M3445.2,0H2319.7v646.8h1125.6L3445.2,0L3445.2,0z"/>
		</g>
		<rect x="2319.7" y="646.8" class="st7" width="1125.6" height="646.8"/>
		<g>
			<rect x="2319.7" y="646.8" class="st8" width="1125.6" height="241.9"/>
		</g>
		<g>
			<g>
				<path class="st2" d="M2792.7,705.3c-4.2,24.7-16.8,38.8-38.7,47l-4.8-7.6c18.8-6.4,30.7-18.6,33.7-36.1h-40v-8.1h45.1
					L2792.7,705.3z"/>
				<path class="st2" d="M2818.2,697h8.9v31.3h-8.9V697z M2856,696.2v22.5c0,17.7-8.1,28.3-22.7,34.4l-5.4-7.3
					c13.7-5.1,19.2-13,19.2-28v-21.6L2856,696.2L2856,696.2z"/>
				<path class="st2" d="M2932.7,705.3c-4.2,24.7-16.8,38.8-38.7,47l-4.8-7.6c18.8-6.4,30.7-18.6,33.7-36.1h-40v-8.1h45.1
					L2932.7,705.3z"/>
				<path class="st2" d="M2958.2,697h8.9v31.3h-8.9V697z M2996,696.2v22.5c0,17.7-8.1,28.3-22.7,34.4l-5.4-7.3
					c13.7-5.1,19.2-13,19.2-28v-21.6L2996,696.2L2996,696.2z"/>
				<path class="st2" d="M2596.6,820.2c6.1-4.9,12-11.2,16.9-17.1c2.1-2.5,4.3-3.8,6.6-3.8c2.2,0,4.4,1.1,6.5,3.4
					c7.8,8.3,20.7,19.7,32,28l-6.2,8.2c-11.1-9-23.7-20.9-30.5-28.9c-0.7-0.8-1.3-1.3-1.8-1.3c-0.6,0-1.3,0.5-2,1.3
					c-4,5-10.4,12-16,17L2596.6,820.2z M2641.6,796.5c2.6,2.6,5.5,6.9,7.4,10.9l-4.7,2.7c-2.1-4.4-4.6-8.4-7.1-11.3L2641.6,796.5z
					 M2649.4,792.6c2.6,2.5,5.3,6.4,7.6,10.8l-4.6,2.6c-2-4.2-4.8-8.4-7.2-11L2649.4,792.6z"/>
				<path class="st2" d="M2684.1,829.3c0,4.5,2.2,6.2,10.8,6.2c9,0,17.1-0.8,25.1-2.4l1,8.4c-8.3,1.4-16.7,2-26.1,2
					c-14.6,0-19.3-3.8-19.3-12.8v-41.2h8.5v20.8c10.4-2.7,21.4-7.1,29.5-12.3l4.5,7.5c-10,5.5-22.4,9.9-34.1,12.5v11.3H2684.1z
					 M2716.1,786.5c2.7,2.7,5.5,6.9,7.5,11l-4.7,2.7c-2.1-4.4-4.6-8.3-7.1-11.3L2716.1,786.5z M2723.9,782.6
					c2.6,2.5,5.2,6.3,7.6,10.7l-4.6,2.6c-2-4.1-4.9-8.4-7.2-10.9L2723.9,782.6z"/>
				<path class="st2" d="M2795.2,811.9v8.8h-56.3v-8.8H2795.2z"/>
				<path class="st2" d="M2859,844.8c-5.3-7.3-11.8-14.4-18.3-20.1c-7.4,8.4-16.2,14.6-26.8,19.6l-5.5-6.9
					c18.3-7.8,31.2-21,37.7-37.5h-31v-7.8h36.6l4.8,5.3c-3,8.1-6.6,14.9-10.8,20.9c7.3,5.5,14.6,12.9,20.5,20.4L2859,844.8z"/>
				<path class="st2" d="M2901.4,802.9c-4.6,6.2-9.7,11.6-15.2,15.5l-6.2-5.4c9.5-6.9,17.3-17.2,21.7-27.9l8.4,2.6
					c-1.3,2.7-2.6,5.5-4.1,8h20.7l4.6,4.7c-7,25-20,38.5-41.2,46.6l-5.2-7.1c9.5-3.6,17.2-8.3,23.3-14.3c-3.9-3.9-8.3-7.4-12.3-9.9
					l4.9-5.4c4.1,2,8.6,5.4,12.7,9.2c3.7-5,6.5-10.6,8.4-16.8h-20.5L2901.4,802.9L2901.4,802.9z"/>
				<path class="st2" d="M3005.2,811.9v8.8h-56.3v-8.8H3005.2z"/>
				<path class="st2" d="M3029.8,840.2c0,3.6,0.1,5.8,0.3,8h-8.1c0.3-2.6,0.4-4.6,0.4-8.1v-18.8c0-3.7,0-4.8,0.1-7.8
					c-1.9,3.2-3.2,5-5.4,7.4c-0.8-3.4-1.7-5.7-3-8.3c7.6-8.3,12.4-17.6,14.4-28.1l7.6,2c-2.5,7.1-4.1,11.2-6.4,16.2v26.7
					c7.4-5.6,14.1-14.8,18.1-24.7h-7.4c-2.4,0-5,0.1-7.3,0.4v-7.6c2.1,0.2,4.8,0.3,7.4,0.3h10.1v-6.2c0-2.3-0.1-4.4-0.4-6.5h8.1
					c-0.3,2.2-0.4,4.1-0.4,6.5v6.2h12.7c3,0,5.7-0.1,8-0.4v7.7c-2.4-0.2-5.1-0.4-7.8-0.4h-10.2c2.3,5.3,4.2,8.5,8.1,13.8
					c2.9,3.9,6.7,7.5,11.8,11.4c-1.9,2.1-3,3.7-4.8,7.1c-3.6-3.4-5.3-5-7.7-8v6.5c-1.5-0.2-2.9-0.3-5-0.3h-5v5.5
					c0,2.7,0.1,5,0.4,7.5h-8.1c0.3-2.6,0.6-5,0.6-7.5v-5.5h-4.9c-2,0-3.5,0.1-4.9,0.3v-6.4c-2.7,3.2-3.9,4.4-7.3,7.5
					c-1.5-2.7-2.2-3.8-3.9-5.7v9.3L3029.8,840.2L3029.8,840.2z M3050.8,820.2c0-3.6,0-5,0.1-8.2c-3.2,7.4-5.3,11.1-9.4,16.3
					c1.4,0.1,2.6,0.2,4.6,0.2h4.7L3050.8,820.2L3050.8,820.2z M3062.8,828.5c2,0,3.1-0.1,4.6-0.2c-3.9-5-6.7-9.8-9.7-16.5
					c0.1,3.9,0.2,5.5,0.2,8.2v8.5H3062.8z"/>
				<path class="st2" d="M3092.3,826c-0.6,9-1.1,13-2.8,19l-4.9-2.5c1.8-5.2,2.8-10.9,3.1-17.6L3092.3,826z M3133.8,806
					c0,2.5,0,2.9,0,4.1h7.3c2.8,0,4.1-0.1,5.5-0.2c-0.1,1.5-0.2,3.2-0.2,4.9v9.3c0,2.6,0.1,3.6,0.2,4.9c-2-0.1-3.4-0.2-5.3-0.2h-6.2
					c1.7,3.1,3.5,5.3,5.9,7.4c2.5,2.1,4.8,3.4,9.5,5.4c-1.6,2.4-2.6,4.3-3.6,7.2c-7.4-3.6-12.8-8.6-16.2-15.1
					c-3.1,6.9-8,11.6-15.4,15.1c-1.1-2.5-2.4-4.2-4.1-5.8c-1.3,4-2.8,4.9-8.1,4.9c-1.5,0-2.4-0.1-3.9-0.2c0-2.7-0.3-4.6-1-6.8
					c2,0.5,3.2,0.6,4.7,0.6c2.9,0,3.3-0.8,4.1-8.1l-2.8,1.2c-0.3-2.8-1.1-7-1.9-9.4l2.6-0.8c1.2,3.6,1.5,5,2.1,8.2
					c0.3-3.6,0.4-5.5,0.4-9.5h-14c-2.1,0-4,0.1-5.5,0.2c0.2-1.7,0.3-3.5,0.3-6v-23.6c0-3.5-0.1-5.1-0.3-7.1c2,0.3,3.8,0.4,6.9,0.4
					h12c3.2,0,4.6-0.1,6.4-0.4v6.7c-1.6-0.2-2.8-0.3-5.2-0.3h-2.2v4.4h1.3c1.8,0,3.1-0.1,4.6-0.3v1.8c3.2-1.8,5.2-3.3,8.1-5.8
					c2.9-2.7,4.8-5,6.5-8h7.3c1.5,2.5,3,4.1,5.6,6.4c3.4,2.9,6,4.4,11.3,6.9c-1.5,2.4-2.4,4.4-3.1,7.1c-2.6-1.3-3.4-1.8-5-2.8v3.4
					c-1.7-0.1-2.9-0.2-4.8-0.2L3133.8,806L3133.8,806z M3096.9,825.5c0.5,5.1,0.7,8.7,0.7,12.8c0,0.8,0,1.9,0,3.4l-4.6,0.7
					c0.2-3.5,0.3-4.8,0.3-9.4c0-3.4,0-4.2-0.3-6.9L3096.9,825.5z M3099.8,793.1h-5.1v4.4h5.1V793.1z M3099.8,802.9h-5.1v4.3h5.1
					V802.9z M3094.7,812.5v4.7h5.1v-4.7H3094.7z M3101.1,825.1c1,4.1,1.6,8.2,1.9,13.4l-3.6,1.1c-0.3-7.2-0.5-9.2-1.4-13.7
					L3101.1,825.1z M3123.6,806c-1.8,0-3.2,0.1-4.6,0.3V803c-1.3,1-2.1,1.5-4.3,2.9c-0.7-2-1.3-3.2-2.9-5.5v2.7
					c-1.5-0.2-2.7-0.3-4.6-0.3h-1.3v4.3h1.3c2.2,0,3.1-0.1,4.6-0.2v5.7c-1.5-0.2-2.8-0.3-4.6-0.3h-1.3v4.7h2.4
					c2.9,0,4.1-0.1,5.5-0.3c-0.1,1.3-0.2,2.8-0.3,5.7c-0.1,7.4-0.8,14.8-1.9,19.5c6.8-2.9,11.4-7.4,13.8-13.3h-4.9
					c-2.2,0-3.6,0.1-5.4,0.3c0.2-1.5,0.3-2.8,0.3-5v-9.3c0-2.2-0.1-3.1-0.2-4.9c1.4,0.1,2.7,0.2,5.5,0.2h6.7l-0.1-4.1h-3.7V806z
					 M3121.7,815.8v7.3h5c0.3-2.4,0.3-4.2,0.5-7.3H3121.7z M3138.3,799.9c-3.6-2.8-5.3-4.6-8.3-8.3c-2.7,3.6-4,5.2-7.4,8.3h1H3138.3
					z M3133.7,815.8c-0.1,4.1-0.2,5.2-0.4,7.3h6.6v-7.3H3133.7z"/>
			</g>
		</g>
		<g>
			<path class="st8" d="M3429.2,662.8v614.8H2335.7V662.8H3429.2 M3445.2,646.8H2319.7v646.8h1125.6L3445.2,646.8L3445.2,646.8z"/>
		</g>
		<rect x="2319.7" y="1293.5" class="st9" width="1125.6" height="646.8"/>
		<g>
			<rect x="2319.7" y="1293.5" class="st10" width="1125.6" height="241.9"/>
		</g>
		<g>
			<g>
				<path class="st2" d="M2504.6,1410h-6.1c-3.4,0-5.3,0.1-7,0.4v-7.2c1.8,0.3,3.4,0.3,7.1,0.3h5.1v-6.7h-4.1
					c-2.8,0-4.3,0.1-6.3,0.3v-7.1c1.5,0.3,3.2,0.3,6.4,0.3h4.1v-1.9c0-3-0.1-4.4-0.4-6.2h7.9c-0.3,1.7-0.4,3.2-0.4,6.2v1.9h2.4
					c3.2,0,4.5-0.1,6-0.3v7.1c-1.9-0.2-3.3-0.3-6-0.3h-2.4v6.7h3.6c2.9,0,4.5-0.1,6.1-0.3v1.3c3.2-1.5,4.8-2.9,6.2-5.3
					c1.4-2.2,2.1-4.5,2.4-7.6h-2.8c-2.6,0-3.9,0.1-5.3,0.3v-7.1c1.9,0.3,4.3,0.4,7.3,0.4h16.4c3.6,0,5.6-0.1,6.9-0.4
					c-0.2,1.7-0.2,1.8-0.4,6.4c-0.1,3.4-0.6,9.3-0.9,11c-1,5.9-3.2,7.4-10.1,7.4c-0.8,0-1.4,0-3.9-0.1c-0.3-3.6-0.6-4.6-1.7-7
					c2.5,0.3,4.1,0.5,5.5,0.5c1.8,0,2.6-0.4,2.9-1.5c0.6-1.8,0.9-4.6,1-10h-7.8c-0.6,3.8-1.3,6.5-2.5,9.2c-1.8,3.9-4.9,7.1-9.7,9.8
					c-1-2.2-1.8-3.4-3.5-5.2v4.9c-1.7-0.3-3.2-0.4-6.4-0.4h-2.7v7.8h3.2c2.5,0,3.8-0.1,5.5-0.3v7c-1.8-0.3-2.9-0.4-5.5-0.4h-3.2
					v10.7c4.3,1.8,8.9,2.2,19.9,2.2c9.8,0,16.9-0.3,23.3-1.1c-1.5,3.6-1.8,4.6-2.1,7.6c-9.2,0.2-14.9,0.4-17.3,0.4
					c-13.1,0-18.9-0.5-24.2-2.2c-4.8-1.5-8.7-4.5-11.7-9c-1.1,4.7-2.2,7.9-4.2,12c-1.9-2-3.3-3.2-5.7-4.7c2-3.8,2.9-6,3.8-10.2
					c1-4.4,1.5-8.5,1.5-13c0-1.3-0.1-2.1-0.2-3.3l6.9,0.9c-0.1,1.4-0.1,1.4-0.3,5.5c-0.1,1.8-0.1,2.9-0.4,5.2c1.2,2.1,2.2,3.4,4,5.2
					V1410H2504.6z M2522.5,1416.9c0-3.1-0.1-4.3-0.2-5.6c1.8,0.2,3,0.3,6.1,0.3h15c3.4,0,5.3-0.1,7.5-0.3c-0.2,1.9-0.3,3.2-0.3,6.9
					v7.8c0,3.9,0.1,5.4,0.3,7.1c-2.1-0.2-4.2-0.3-7.1-0.3h-14c-3.4,0-5.5,0.1-7.5,0.3c0.2-1.9,0.3-3.5,0.3-6.9v-9.3H2522.5z
					 M2529.4,1426.5h14v-9.1h-14V1426.5z"/>
				<path class="st2" d="M2588.3,1404.4c8.6,2.7,18.6,6.9,27.7,12.3l-3.8,7.6c-7.6-4.6-16.4-8.7-23.9-11.5v30.1h-8.8v-58.4h8.8
					V1404.4z M2604.5,1388.8c2.7,2.6,5.5,6.9,7.5,10.9l-4.7,2.7c-2.1-4.5-4.6-8.4-7.1-11.3L2604.5,1388.8z M2612.4,1384.8
					c2.6,2.5,5.3,6.3,7.6,10.8l-4.6,2.5c-2-4.1-4.8-8.4-7.2-10.9L2612.4,1384.8z"/>
				<path class="st2" d="M2632.7,1405h56.1v7.5h-23c-0.6,15-7,25-19.4,31.3l-5.5-6.6c10.9-5.7,15.5-12.7,15.9-24.7h-24.2
					L2632.7,1405L2632.7,1405z M2639.2,1388.7h37.7v7.6h-37.7V1388.7z M2682.6,1382.3c2,2.9,4.1,7.6,5.5,12l-5.1,1.8
					c-1.3-4.7-3.2-9-5.2-12.3L2682.6,1382.3z M2690.8,1379.7c2.1,2.8,4.1,7.1,5.7,11.8l-5,1.8c-1.2-4.4-3.4-9.1-5.3-12
					L2690.8,1379.7z"/>
				<path class="st2" d="M2707.3,1405.2v-7.5h18.1c0.1-1.9,0.1-3.9,0.1-5.9v-8.3h8.5v7.9c-0.1,2.1-0.1,4.1-0.1,6.2h18.8l4.1,3.9
					c-0.4,12.8-1,21.7-2.2,29.1c-1.3,7.8-5,11.1-11.2,11.1c-2.9,0-6.4-0.3-9.2-0.7l-0.9-8.5c3.6,0.6,6,0.9,8.8,0.9
					c2.3,0,3.6-0.9,4.1-4.3c1.1-6.4,1.8-13.6,2-23.9h-14.8c-2,18.1-10,30.2-24,37.8l-5.3-6.5c12.1-7,18.6-15.9,20.7-31.3
					L2707.3,1405.2L2707.3,1405.2z"/>
				<path class="st2" d="M2809,1442.6h-8.9V1411c-6.7,4.2-13.9,7.6-21.2,10.4l-5-7c17.8-6.5,32.4-15.6,44.5-29.8l7.2,5.1
					c-5.2,5.7-10.7,10.7-16.6,15.1V1442.6z"/>
				<path class="st2" d="M2901.4,1393.5c-3.4,8.9-9.6,16.5-17.2,21.4l-5.2-5.7c5.5-3.5,9.7-8.2,12-12.8h-45.5v-7.7h51.9
					L2901.4,1393.5z M2875.1,1402.3v5.9c0,17.9-7,28.7-22.5,34.8l-4.7-7.2c13.4-5,18.3-12.5,18.3-27.9v-5.5h8.9V1402.3z"/>
				<path class="st2" d="M2964,1441.8c-5.3-7.3-11.8-14.4-18.3-20.1c-7.4,8.4-16.2,14.6-26.8,19.6l-5.5-6.9
					c18.3-7.8,31.2-21,37.7-37.5h-31v-7.8h36.6l4.8,5.3c-3,8.1-6.6,14.9-10.8,20.9c7.3,5.5,14.6,12.9,20.5,20.4L2964,1441.8z"/>
				<path class="st2" d="M3000.9,1388.1v42.5c11.5-3.2,25-11.7,34.4-23.5l5.3,7.1c-10.3,13.4-25.6,22.7-44.3,26.7l-4.3-4.8v-48
					L3000.9,1388.1L3000.9,1388.1z"/>
				<path class="st2" d="M3079.3,1397.9c-6,0.9-12,1.5-17.6,1.8l-2.3-7.8c13.6-0.6,29.6-2.8,40.9-6.8l4.2,7.1
					c-5.2,1.6-10.9,3-16.6,4.1v11.8h22.9v7.4h-23.2c-1.4,13.7-8.5,22.5-22.7,28l-4.6-6.9c11.7-4.5,17.3-10.8,18.6-21.1h-25.1v-7.4
					h25.4v-10.2H3079.3z"/>
				<path class="st2" d="M3135.9,1400.2c2.7,4.5,5,10.1,6.7,15.5l-7.6,2.7c-1.7-5.5-3.9-11.2-6.2-15.6L3135.9,1400.2z
					 M3175.3,1399.8c-3.5,21.6-13.3,36.3-30.9,44.4l-4.8-6.4c16.1-7.4,24.9-19.6,27.7-39.5L3175.3,1399.8z M3150.4,1397.2
					c2.8,4.8,5.2,10.3,6.7,15.3l-7.4,2.5c-1.5-5.5-3.9-11.2-6.2-15.8L3150.4,1397.2z"/>
				<path class="st2" d="M3241.4,1393.9l4.7,5.2c-7.1,21.3-20.4,35.6-39.7,44.2l-5.6-6.9c17.4-7.5,29.8-20.2,34.9-35.1h-18.9
					c-4.4,6-9.5,11.3-15,15.5l-6.2-5.5c9.2-7.1,17.1-17.1,21.8-28l8.4,2.5c-1.3,2.8-2.7,5.5-4.2,8.2L3241.4,1393.9L3241.4,1393.9z"
					/>
			</g>
		</g>
		<g>
			<path class="st10" d="M3429.2,1309.5v614.8H2335.7v-614.8H3429.2 M3445.2,1293.5H2319.7v646.8h1125.6L3445.2,1293.5
				L3445.2,1293.5z"/>
		</g>
	</g>
</g>
<g id="レイヤー_5">
</g>
<g id="レイヤー_6">
</g>
</svg>
