<?xml version="1.0" encoding="utf-8"?>
<!-- Generator: Adobe Illustrator 21.1.0, SVG Export Plug-In . SVG Version: 6.00 Build 0)  -->
<svg version="1.1" id="レイヤー_1" xmlns="http://www.w3.org/2000/svg" xmlns:xlink="http://www.w3.org/1999/xlink" x="0px"
	 y="0px" viewBox="0 0 3445.2 1940.3" style="enable-background:new 0 0 3445.2 1940.3;" xml:space="preserve">
<style type="text/css">
	.st0{opacity:8.000000e-02;fill:#C30D23;}
	.st1{fill:#C30D23;}
	.st2{opacity:0.1;fill:#74340B;}
	.st3{fill:#864E2B;}
	.st4{fill:#FFFFFF;}
	.st5{opacity:8.000000e-02;fill:#F2971B;}
	.st6{fill:#F28B00;}
	.st7{opacity:8.000000e-02;fill:#8EC43E;}
	.st8{fill:#69C314;}
</style>
<rect x="0" class="st0" width="3445.2" height="1280.4"/>
<g>
	<path class="st1" d="M3419.2,26v1228.4H26V26H3419.2 M3445.2,0H0v1280.4h3445.2V0L3445.2,0z"/>
</g>
<rect y="1280.4" class="st2" width="1148.4" height="659.9"/>
<g>
	<rect y="1280.4" class="st3" width="1148.4" height="246.8"/>
</g>
<g>
	<g>
		<path class="st4" d="M172,1367.1c-0.9,2-1.1,2.4-1.8,4.3c-1.2,3.3-1.2,3.3-5.2,12.2v42.4c0,3.5,0.2,6.6,0.5,9.4h-9
			c0.3-3,0.5-5.5,0.5-9.5v-21.8c0-1.9,0-2.3,0.2-8.7c-2.7,3.7-4.5,5.9-7.3,8.8c-1.1-3.5-2.1-5.8-4.1-8.9
			c5.7-5.1,10.6-12.3,14.5-21.1c1.7-4,2.7-7.1,3.3-10.1L172,1367.1z M184.4,1383.5c-3.4,6.8-7.3,12.7-12.6,18.6
			c-1.8-3.1-2.8-4.4-5.5-7.2c5.8-5.9,9.6-11.7,12.9-19.4c1.9-4.6,3-8.4,3.4-11.1l8.7,2.6c-0.8,1.8-1,2.5-1.6,4.1
			c-1.2,3.1-1.2,3.4-2,5.1h20.8c3.8,0,6.2-0.2,8.3-0.5v8.3c-2.2-0.2-4.9-0.4-8.3-0.4h-14.5v9.8h12.5c3.2,0,5.3-0.2,7.6-0.4v8.1
			c-2.5-0.2-4.8-0.4-7.6-0.4h-12.4v9.8h12.6c3.3,0,5.3-0.1,7.6-0.4v8.2c-2.5-0.2-4.8-0.4-7.6-0.4h-12.6v8.8c0,4.6,0.2,7.1,0.5,9.2
			h-9.2c0.4-2.3,0.5-4.5,0.5-9.2v-43.1H184.4z"/>
		<path class="st4" d="M260.4,1378.8c-6.5,1-12.6,1.7-20.5,2.4c-0.7-2.3-1-5.4-1-8.1c0-0.3,0-0.5,0-0.9c10.5-0.9,23.3-1.9,33.3-3.4
			c1.5,1.8,2.5,4.5,2.7,7.3l-18.7,19.6l0.2,0.2c3.7-1.6,8-2.3,12.2-2.3c14,0,20.4,7.6,20.4,16.5c0,13.5-10.9,22.7-34.6,24.1
			l-3.4-9.2c22.3-1.4,28.3-7,28.3-14.9c0-4.6-3.7-8.6-11.5-8.6c-5.1,0-12.1,1.9-16.9,4.4c-5.8,3.2-11.1,6.9-15.9,11.3
			c-2.3-1.6-4.7-4.3-5.7-6.8c12.3-10.5,22.2-20.9,31.2-31.4L260.4,1378.8z"/>
		<path class="st4" d="M328.7,1426.8c15.7-5.4,21.6-13.7,21.6-23.8c0-5.1-3.3-8-10.5-8c-6.2,0-16.2,2-25.6,5.5
			c-1.3-2.4-2.4-6-2.4-9.3c9.5-3.2,20-4.9,27.8-4.9c14.9,0,20.4,7.1,20.4,16.6c0,14-8.4,25.4-25.4,32.1L328.7,1426.8z M354.7,1370.7
			c0,0.2,0,0.3,0,0.5c0,3-0.7,6.2-1.6,8.7c-10-0.9-22.2-2.9-30.8-5.2c0.2-2.8,1.3-6.5,2.7-8.8C333,1368.1,344.2,1369.9,354.7,1370.7
			z"/>
		<path class="st4" d="M406.5,1429.9h-11.9v-11.3h11.9V1429.9z M396.6,1411.4c0-12.2-1.8-23.2-1.8-37.4v-2.8h11.4v2.7
			c0,14.1-1.9,25.3-1.9,37.4H396.6z"/>
		<path class="st4" d="M474,1382.9c-6.7,1-13.4,1.6-19.6,2l-2.6-8.7c15.1-0.6,33-3.1,45.6-7.6l4.7,8c-5.8,1.8-12.1,3.4-18.5,4.6
			v13.1h25.5v8.2h-25.8c-1.6,15.2-9.4,25-25.3,31.2l-5.1-7.7c13-5,19.3-12,20.7-23.5h-27.9v-8.2H474V1382.9z"/>
		<path class="st4" d="M535.6,1409.7v-8h32.5v-10.9H533v-7.9h43.9v50.9h-8.7v-4.5h-35.6v-7.9h35.6v-11.7H535.6z"/>
		<path class="st4" d="M648.9,1415.6v-30.7h-42v-9h51.6v54.6h-9.7v-5.9h-42.5v-9H648.9z"/>
		<path class="st4" d="M732.6,1378.5l5.2,5.8c-7.9,23.7-22.8,39.7-44.2,49.3l-6.2-7.7c19.4-8.3,33.2-22.5,38.8-39.2h-21.1
			c-4.9,6.7-10.6,12.6-16.7,17.2l-6.9-6.1c10.3-7.9,19-19,24.3-31.2l9.4,2.7c-1.4,3.1-3,6.2-4.7,9.1H732.6z"/>
		<path class="st4" d="M816.7,1394.6c-5.5,21.6-18.6,33.5-38.5,39l-4.9-8.3c18.1-5,28.5-14,32.8-27.6h-45.4v-8.5h51L816.7,1394.6z
			 M809.1,1371.4v8.7h-40.9v-8.7H809.1z"/>
		<path class="st4" d="M845.6,1372.8c6.5,3.7,12.9,8.8,18.5,15l-7.1,7.5c-5.5-6.2-12.1-11.9-17.6-15.8L845.6,1372.8z M840.5,1421.6
			c24.8-5.8,41.3-18.9,49.4-39.9l8.3,5.1c-9,23.7-28.8,38.1-54.4,43.8L840.5,1421.6z"/>
		<path class="st4" d="M942,1382.9c-6.7,1-13.4,1.6-19.6,2l-2.6-8.7c15.1-0.6,33-3.1,45.6-7.6l4.7,8c-5.8,1.8-12.1,3.4-18.5,4.6
			v13.1h25.5v8.2h-25.8c-1.6,15.2-9.4,25-25.3,31.2l-5.1-7.7c13-5,19.3-12,20.7-23.5h-27.9v-8.2H942V1382.9z"/>
	</g>
</g>
<g>
	<path class="st3" d="M1132.1,1296.7V1924H16.3v-627.2H1132.1 M1148.4,1280.4H0v659.9h1148.4V1280.4L1148.4,1280.4z"/>
</g>
<rect x="1148.4" y="1280.4" class="st5" width="1148.4" height="659.9"/>
<g>
	<rect x="1148.4" y="1280.4" class="st6" width="1148.4" height="246.8"/>
</g>
<g>
	<g>
		<path class="st4" d="M1350.6,1380.4c-4.7,27.5-18.7,43.2-43.1,52.3l-5.4-8.5c20.9-7.1,34.2-20.7,37.5-40.2H1295v-9h50.2
			L1350.6,1380.4z"/>
		<path class="st4" d="M1379,1371.2h9.9v34.9h-9.9V1371.2z M1421.1,1370.3v25c0,19.7-9,31.5-25.3,38.3l-6-8.1
			c15.3-5.7,21.4-14.5,21.4-31.2v-24H1421.1z"/>
		<path class="st4" d="M1506.6,1380.4c-4.7,27.5-18.7,43.2-43.1,52.3l-5.4-8.5c20.9-7.1,34.2-20.7,37.5-40.2H1451v-9h50.2
			L1506.6,1380.4z"/>
		<path class="st4" d="M1535,1371.2h9.9v34.9h-9.9V1371.2z M1577.1,1370.3v25c0,19.7-9,31.5-25.3,38.3l-6-8.1
			c15.3-5.7,21.4-14.5,21.4-31.2v-24H1577.1z"/>
		<path class="st4" d="M1626.2,1365.7c1.6,3.4,3.5,6,7.7,9.4c12.9,10.3,15.2,14.7,15.2,21c0,6.6-4.5,13.1-12.9,18.7l-1.2-1.6
			c7.2-6.1,9.7-10.8,9.7-15.8c0-5.3-5-10.3-17.2-17.6v40.3c0,3.3-0.2,5-1.2,7c-2.3,4.7-8.1,8-13.5,8c-5.3,0-8.7-3-8.7-7.6
			c0-2.6,1.3-5.1,3.5-6.9c2.6-2.2,6.4-3.6,9.4-3.6c2.5,0,4.6,0.4,6.9,1.2v-52.6H1626.2z"/>
		<path class="st4" d="M1678.1,1404.4c6.8-5.5,13.4-12.5,18.8-19c2.3-2.8,4.8-4.2,7.3-4.2c2.4,0,4.9,1.2,7.3,3.7
			c8.7,9.3,23,22,35.6,31.2l-6.9,9.1c-12.3-10-26.4-23.3-33.9-32.2c-0.8-0.9-1.4-1.4-2-1.4c-0.7,0-1.4,0.5-2.2,1.5
			c-4.4,5.6-11.6,13.4-17.9,19L1678.1,1404.4z M1728.2,1378.1c2.9,2.9,6.1,7.6,8.3,12.2l-5.2,3c-2.3-4.9-5.1-9.4-7.9-12.6
			L1728.2,1378.1z M1736.9,1373.7c2.9,2.8,5.9,7.1,8.4,12l-5.1,2.9c-2.2-4.7-5.4-9.4-8-12.2L1736.9,1373.7z"/>
		<path class="st4" d="M1775.6,1414.6c0,5,2.5,6.9,12,6.9c10.1,0,19-0.9,27.9-2.7l1.2,9.4c-9.2,1.6-18.6,2.3-29.1,2.3
			c-16.2,0-21.5-4.2-21.5-14.3v-45.9h9.4v23.2c11.6-3,23.8-7.9,32.9-13.7l5.1,8.3c-11.2,6.1-25,11.1-38,14V1414.6z M1811.2,1366.9
			c3,3,6.1,7.6,8.3,12.2l-5.2,3c-2.3-4.9-5.1-9.3-7.9-12.6L1811.2,1366.9z M1820,1362.6c2.9,2.8,5.8,7,8.4,11.9l-5.1,2.9
			c-2.2-4.6-5.5-9.4-8-12.2L1820,1362.6z"/>
		<path class="st4" d="M1899.4,1395.2v9.8h-62.7v-9.8H1899.4z"/>
		<path class="st4" d="M1970.4,1431.9c-5.8-8.1-13.2-16.1-20.4-22.4c-8.2,9.4-18.1,16.3-29.9,21.8l-6.1-7.6
			c20.4-8.7,34.8-23.4,42-41.7h-34.6v-8.7h40.8l5.3,5.9c-3.4,9-7.3,16.6-12,23.2c8.1,6.2,16.2,14.4,22.9,22.7L1970.4,1431.9z"/>
		<path class="st4" d="M2017.7,1385.2c-5.1,6.9-10.8,12.9-16.9,17.3l-6.9-6c10.5-7.6,19.3-19.1,24.2-31l9.4,2.9
			c-1.4,3-2.9,6.1-4.5,8.9h23.1l5.1,5.2c-7.8,27.8-22.3,42.9-45.9,52l-5.8-7.9c10.6-4,19.2-9.3,26-15.9c-4.4-4.4-9.2-8.2-13.7-11
			l5.5-6c4.5,2.3,9.6,6,14.2,10.3c4.1-5.5,7.3-11.8,9.4-18.7H2017.7z"/>
		<path class="st4" d="M2133.4,1395.2v9.8h-62.7v-9.8H2133.4z"/>
	</g>
</g>
<g>
	<path class="st6" d="M2280.5,1296.7V1924H1164.7v-627.2H2280.5 M2296.8,1280.4H1148.4v659.9h1148.4V1280.4L2296.8,1280.4z"/>
</g>
<rect x="2296.8" y="1280.4" class="st7" width="1148.4" height="659.9"/>
<g>
	<rect x="2296.8" y="1280.4" class="st8" width="1148.4" height="246.8"/>
</g>
<g>
	<g>
		<path class="st4" d="M2450.9,1396.4h-6.8c-3.7,0-5.9,0.2-7.8,0.4v-8c2,0.3,3.7,0.4,7.9,0.4h5.7v-7.5h-4.6c-3.1,0-4.8,0.1-7,0.3v-8
			c1.7,0.3,3.5,0.4,7.1,0.4h4.5v-2.1c0-3.4-0.1-4.9-0.5-6.9h8.8c-0.4,1.9-0.5,3.5-0.5,6.9v2.1h2.7c3.6,0,5-0.1,6.7-0.4v8
			c-2.1-0.2-3.7-0.3-6.7-0.3h-2.7v7.5h4.1c3.3,0,5-0.1,6.8-0.4v1.5c3.5-1.7,5.4-3.3,6.9-5.9c1.6-2.5,2.3-5,2.7-8.5h-3.1
			c-2.9,0-4.3,0.1-5.9,0.3v-7.9c2.1,0.3,4.8,0.5,8.1,0.5h18.3c4,0,6.2-0.2,7.6-0.5c-0.2,1.9-0.2,2-0.5,7.2c-0.2,3.8-0.7,10.4-1,12.2
			c-1.2,6.6-3.6,8.3-11.2,8.3c-0.9,0-1.6,0-4.4-0.1c-0.3-4.1-0.6-5.1-1.9-7.8c2.7,0.4,4.6,0.5,6.2,0.5c2,0,2.9-0.5,3.3-1.6
			c0.7-2,1-5.1,1.2-11.2h-8.7c-0.6,4.2-1.4,7.3-2.8,10.3c-2,4.4-5.5,7.9-10.8,10.9c-1.2-2.4-2-3.7-3.9-5.8v5.5
			c-1.9-0.3-3.6-0.4-7.1-0.4h-3v8.7h3.5c2.8,0,4.2-0.1,6.2-0.4v7.8c-2-0.3-3.3-0.4-6.2-0.4h-3.5v11.9c4.8,2,9.9,2.5,22.2,2.5
			c10.9,0,18.8-0.4,26-1.2c-1.6,4-1.9,5.1-2.3,8.5c-10.2,0.2-16.6,0.4-19.3,0.4c-14.6,0-21.1-0.5-27-2.4c-5.3-1.6-9.7-5-13-10
			c-1.2,5.2-2.5,8.8-4.7,13.3c-2.1-2.3-3.7-3.6-6.4-5.2c2.3-4.2,3.2-6.6,4.2-11.4c1.1-4.9,1.6-9.5,1.6-14.5c0-1.5-0.1-2.3-0.2-3.7
			l7.6,1c-0.1,1.6-0.1,1.6-0.3,6.2c-0.1,2-0.2,3.2-0.5,5.8c1.3,2.3,2.5,3.8,4.4,5.8V1396.4z M2470.9,1404.1c0-3.5-0.1-4.8-0.2-6.2
			c2,0.2,3.4,0.3,6.8,0.3h16.7c3.7,0,5.9-0.1,8.3-0.3c-0.2,2.1-0.3,3.6-0.3,7.7v8.7c0,4.4,0.1,6,0.3,8c-2.3-0.2-4.7-0.3-8-0.3h-15.6
			c-3.8,0-6.1,0.1-8.3,0.3c0.2-2.1,0.3-3.9,0.3-7.6V1404.1z M2478.6,1414.8h15.6v-10.1h-15.6V1414.8z"/>
		<path class="st4" d="M2544.2,1390.2c9.6,3,20.7,7.7,30.9,13.7l-4.2,8.4c-8.5-5.1-18.3-9.7-26.7-12.8v33.5h-9.8V1368h9.8V1390.2z
			 M2562.3,1372.8c3,2.9,6.2,7.6,8.3,12.2l-5.2,3c-2.3-5-5.1-9.4-7.9-12.6L2562.3,1372.8z M2571,1368.4c2.9,2.8,5.9,7,8.4,12
			l-5.1,2.8c-2.2-4.6-5.4-9.4-8-12.2L2571,1368.4z"/>
		<path class="st4" d="M2593.7,1390.9h62.6v8.3h-25.6c-0.6,16.7-7.8,27.8-21.6,34.9l-6.1-7.3c12.2-6.3,17.3-14.2,17.7-27.5h-27
			V1390.9z M2600.9,1372.7h42v8.4h-42V1372.7z M2649.4,1365.5c2.3,3.3,4.5,8.5,6.1,13.4l-5.7,2c-1.5-5.2-3.5-10.1-5.8-13.7
			L2649.4,1365.5z M2658.5,1362.6c2.3,3.1,4.6,7.9,6.4,13.2l-5.6,2c-1.3-4.9-3.8-10.1-5.9-13.3L2658.5,1362.6z"/>
		<path class="st4" d="M2676.9,1391.1v-8.3h20.2c0.1-2.1,0.2-4.3,0.2-6.6v-9.2h9.5v8.8c-0.1,2.3-0.1,4.6-0.2,6.9h21l4.5,4.4
			c-0.4,14.3-1.2,24.2-2.5,32.4c-1.4,8.7-5.5,12.3-12.5,12.3c-3.3,0-7.2-0.3-10.3-0.8l-1-9.4c4,0.7,6.7,1,9.8,1c2.6,0,4-1,4.6-4.8
			c1.2-7.1,2-15.1,2.2-26.7h-16.5c-2.3,20.2-11.2,33.6-26.8,42.1l-5.9-7.3c13.5-7.8,20.7-17.7,23.1-34.9H2676.9z"/>
		<path class="st4" d="M2790.1,1432.7h-9.9v-35.3c-7.5,4.7-15.4,8.5-23.6,11.6l-5.6-7.8c19.8-7.3,36.1-17.4,49.6-33.2l8,5.7
			c-5.8,6.3-11.9,11.9-18.5,16.8V1432.7z"/>
		<path class="st4" d="M2893.1,1378.1c-3.8,9.9-10.7,18.3-19.1,23.8l-5.9-6.4c6.1-3.9,10.8-9.1,13.4-14.3h-50.7v-8.6h57.9
			L2893.1,1378.1z M2863.9,1387.8v6.6c0,20-7.8,32-25,38.8l-5.2-8c14.9-5.6,20.4-14,20.4-31.1v-6.2H2863.9z"/>
		<path class="st4" d="M2962.8,1431.9c-5.8-8.1-13.2-16.1-20.4-22.4c-8.2,9.4-18.1,16.3-29.9,21.8l-6.1-7.6
			c20.4-8.7,34.8-23.4,42-41.7h-34.6v-8.7h40.8l5.3,5.9c-3.4,9-7.3,16.6-12,23.2c8.1,6.2,16.2,14.4,22.9,22.7L2962.8,1431.9z"/>
		<path class="st4" d="M3004,1372.1v47.3c12.8-3.5,27.8-13,38.3-26.1l5.9,7.9c-11.5,15-28.5,25.3-49.4,29.7l-4.8-5.3v-53.5H3004z"/>
		<path class="st4" d="M3091.4,1382.9c-6.7,1-13.4,1.6-19.6,2l-2.6-8.7c15.1-0.6,33-3.1,45.6-7.6l4.7,8c-5.8,1.8-12.1,3.4-18.5,4.6
			v13.1h25.5v8.2h-25.8c-1.6,15.2-9.4,25-25.3,31.2l-5.1-7.7c13-5,19.3-12,20.7-23.5h-27.9v-8.2h28.3V1382.9z"/>
		<path class="st4" d="M3154.4,1385.5c3,5,5.5,11.2,7.5,17.3l-8.4,3c-1.9-6.2-4.3-12.5-6.9-17.4L3154.4,1385.5z M3198.3,1385.1
			c-3.9,24.1-14.8,40.5-34.4,49.5l-5.4-7.2c17.9-8.3,27.7-21.8,30.9-44L3198.3,1385.1z M3170.6,1382.1c3.1,5.3,5.8,11.5,7.4,17.1
			l-8.3,2.8c-1.6-6.1-4.3-12.5-6.9-17.6L3170.6,1382.1z"/>
		<path class="st4" d="M3272,1378.5l5.2,5.8c-7.9,23.7-22.8,39.7-44.2,49.3l-6.2-7.7c19.4-8.3,33.2-22.5,38.8-39.2h-21.1
			c-4.9,6.7-10.6,12.6-16.7,17.2l-6.9-6.1c10.3-7.9,19-19,24.3-31.2l9.4,2.7c-1.4,3.1-3,6.2-4.7,9.1H3272z"/>
	</g>
</g>
<g>
	<path class="st8" d="M3428.9,1296.7V1924H2313.1v-627.2H3428.9 M3445.2,1280.4H2296.8v659.9h1148.4V1280.4L3445.2,1280.4z"/>
</g>
<path class="st1" d="M0,0v403.9c430.2,21.6,1042.8,35.1,1722.6,35.1c679.8,0,1292.4-13.5,1722.6-35.1V0H0z"/>
<g>
	<path class="st4" d="M819.4,282.4l7.1-109h28.3l25.2,76.1l26.2-76.1h27.8l7.1,109h-19l-5.7-86.9L888,277.9h-17.1l-27.7-82.5
		l-5.7,87H819.4z"/>
	<path class="st4" d="M955,301.7c2.8,0.7,4.9,0.9,7.5,0.9c10.7,0,16.4-4.1,19.9-13.5l0.4-1.2l-30.2-86h20.6l18.9,60l21.5-60h19.4
		c-5.5,14.9-28.6,76.3-35.2,93.8c-5.7,14.6-15.8,22.6-32.8,22.6c-3,0-7.2-0.1-10-1V301.7z"/>
	<path class="st4" d="M1164.7,286.1c-10.9-15.1-24.5-29.9-37.8-41.6c-15.2,17.4-33.6,30.3-55.5,40.6l-11.3-14.2
		c38-16.2,64.7-43.5,78-77.6h-64.2V177h75.8l9.9,11c-6.2,16.7-13.6,30.9-22.3,43.2c15.1,11.5,30.2,26.7,42.5,42.2L1164.7,286.1z"/>
	<path class="st4" d="M1201.2,235c12.6-10.2,24.9-23.2,34.9-35.4c4.4-5.2,9-7.8,13.6-7.8c4.5,0,9.1,2.3,13.5,7
		c16.1,17.3,42.8,40.9,66.3,58l-12.8,17c-22.9-18.6-49-43.4-63.1-59.9c-1.5-1.7-2.6-2.6-3.8-2.6c-1.3,0-2.6,1-4.1,2.8
		c-8.3,10.4-21.6,24.9-33.2,35.2L1201.2,235z M1322.7,196.2c0,9.3-7.3,16.5-16.5,16.5s-16.5-7.2-16.5-16.5s7.2-16.5,16.5-16.5
		S1322.7,186.9,1322.7,196.2z M1297.5,196.2c0,4.9,3.8,8.7,8.7,8.7s8.7-3.8,8.7-8.7s-3.8-8.7-8.7-8.7S1297.5,191.2,1297.5,196.2z"/>
	<path class="st4" d="M1362.7,204.1c11.7,3.9,26,11,37,18.6l-8.8,15.7c-11.2-7.7-25.2-14.9-36.3-19.4L1362.7,204.1z M1357.9,267.6
		c45.4-6.7,76.7-26,96-68.3l15.1,11.3c-21,44.8-57.3,66.7-106.1,75L1357.9,267.6z M1374.9,170.5c11.6,4.1,24.9,10.4,36,18.3
		l-8.7,15.4c-11.3-8.1-24.5-14.5-35.5-19.1L1374.9,170.5z"/>
	<path class="st4" d="M1557.2,287.9l-16,2.8l-12-61.9l-27.4,4.1l-2-15.2l26.5-3.8l-5.2-26.4l16.2-2.6l5.1,26.7l51.3-7.2l7.8,10.2
		c-6.8,16.4-16.8,30.7-28.3,40.6l-11.5-9.7c8.1-7,15.4-16.4,19.4-24.4l-36,5.4L1557.2,287.9z"/>
	<path class="st4" d="M1669,175.6v33.2c0,33.6-9.6,56.8-32,75.4l-13.5-12.2c20.6-15.7,27.7-34.9,27.7-64.2v-32.2H1669z
		 M1708.1,171.5v89.2c12-5.2,27-16.7,38.9-31.8l9.7,15.2c-12.6,16.4-34.9,31.5-57,40l-9.4-8.1V171.5H1708.1z"/>
	<path class="st4" d="M1775.4,235c12.6-10.2,24.9-23.2,34.9-35.4c4.4-5.2,9-7.8,13.6-7.8c4.5,0,9.1,2.3,13.5,7
		c16.1,17.3,42.8,40.9,66.3,58l-12.8,17c-22.9-18.6-49-43.4-63.1-59.9c-1.5-1.7-2.6-2.6-3.8-2.6c-1.3,0-2.6,1-4.1,2.8
		c-8.3,10.4-21.6,24.9-33.2,35.2L1775.4,235z M1868.6,186c5.4,5.4,11.3,14.2,15.4,22.6l-9.7,5.7c-4.4-9.1-9.4-17.4-14.6-23.3
		L1868.6,186z M1884.7,177.9c5.4,5.2,11,13.2,15.7,22.3l-9.6,5.4c-4.1-8.7-10-17.4-14.9-22.8L1884.7,177.9z"/>
	<path class="st4" d="M1956.6,254c0,9.3,4.6,12.9,22.3,12.9c18.7,0,35.4-1.6,51.9-4.9l2.2,17.4c-17.1,2.9-34.5,4.2-54.1,4.2
		c-30.2,0-39.9-7.8-39.9-26.5v-85.3h17.5v43.1c21.6-5.5,44.2-14.6,61.2-25.5l9.4,15.5c-20.7,11.3-46.4,20.6-70.6,26V254z
		 M2022.9,165.3c5.5,5.5,11.3,14.2,15.5,22.8l-9.7,5.5c-4.3-9.1-9.6-17.3-14.6-23.3L2022.9,165.3z M2039.2,157.3
		c5.4,5.2,10.9,13.1,15.7,22.2l-9.6,5.4c-4.1-8.6-10.2-17.4-14.9-22.6L2039.2,157.3z"/>
	<path class="st4" d="M2186.8,217.9v18.3h-116.6v-18.3H2186.8z"/>
	<path class="st4" d="M2318.9,286.1c-10.9-15.1-24.5-29.9-37.8-41.6c-15.2,17.4-33.6,30.3-55.5,40.6l-11.3-14.2
		c38-16.2,64.7-43.5,78-77.6h-64.2V177h75.8l9.9,11c-6.2,16.7-13.6,30.9-22.3,43.2c15.1,11.5,30.2,26.7,42.5,42.2L2318.9,286.1z"/>
	<path class="st4" d="M2406.7,199.2c-9.4,12.9-20.2,23.9-31.5,32.2l-12.8-11.2c19.6-14.2,35.8-35.5,45-57.7l17.4,5.4
		c-2.6,5.7-5.4,11.3-8.4,16.5h42.9l9.6,9.7c-14.5,51.8-41.5,79.8-85.4,96.6l-10.7-14.6c19.7-7.4,35.7-17.3,48.3-29.6
		c-8.1-8.1-17.1-15.2-25.5-20.4l10.2-11.2c8.4,4.2,17.8,11.2,26.4,19.1c7.7-10.3,13.5-21.9,17.4-34.8H2406.7z"/>
	<path class="st4" d="M2621.8,217.9v18.3h-116.6v-18.3H2621.8z"/>
</g>
</svg>
