<?xml version="1.0" encoding="utf-8"?>
<!-- Generator: Adobe Illustrator 21.1.0, SVG Export Plug-In . SVG Version: 6.00 Build 0)  -->
<svg version="1.1" id="レイヤー_1" xmlns="http://www.w3.org/2000/svg" xmlns:xlink="http://www.w3.org/1999/xlink" x="0px"
	 y="0px" viewBox="0 0 1940.3 3445.2" style="enable-background:new 0 0 1940.3 3445.2;" xml:space="preserve">
<style type="text/css">
	.st0{opacity:8.000000e-02;fill:#C30D23;}
	.st1{opacity:0.1;fill:#74340B;}
	.st2{fill:#864E2B;}
	.st3{opacity:8.000000e-02;fill:#F2971B;}
	.st4{fill:#F28B00;}
	.st5{opacity:8.000000e-02;fill:#8EC43E;}
	.st6{fill:#69C314;}
	.st7{fill:#FFFFFF;}
	.st8{fill:#C30D23;}
</style>
<rect x="0" class="st0" width="1940.3" height="1771.6"/>
<g>
	<rect x="0" y="1771.6" class="st1" width="1940.3" height="557.9"/>
	<g>
		<path class="st2" d="M1922,1789.9v521.2H18.3v-521.2H1922 M1940.3,1771.6H0v557.9h1940.3V1771.6L1940.3,1771.6z"/>
	</g>
</g>
<g>
	<rect x="0" y="2329.5" class="st3" width="1940.3" height="557.9"/>
	<g>
		<path class="st4" d="M1922,2347.8V2869H18.3v-521.2H1922 M1940.3,2329.5H0v557.9h1940.3V2329.5L1940.3,2329.5z"/>
	</g>
</g>
<g>
	<rect x="0" y="2887.4" class="st5" width="1940.3" height="557.9"/>
	<g>
		<path class="st6" d="M1922,2905.7v521.2H18.3v-521.2H1922 M1940.3,2887.4H0v557.9h1940.3V2887.4L1940.3,2887.4z"/>
	</g>
</g>
<g>
	<rect x="0" y="1771.6" class="st2" width="970.2" height="557.9"/>
</g>
<g>
	<rect x="0" y="2329.5" class="st4" width="970.2" height="557.9"/>
</g>
<g>
	<rect x="0" y="2887.4" class="st6" width="970.2" height="557.9"/>
</g>
<g>
	<g>
		<path class="st7" d="M327,1936.4c-1.2,2.6-1.5,3.2-2.4,5.7c-1.7,4.4-1.7,4.4-7,16.3v56.5c0,4.7,0.2,8.8,0.6,12.6h-12.1
			c0.4-4,0.6-7.4,0.6-12.7v-29c0-2.5,0-3,0.2-11.6c-3.5,4.9-6,7.9-9.7,11.8c-1.5-4.7-2.8-7.7-5.4-11.9c7.6-6.9,14.1-16.4,19.3-28.2
			c2.3-5.3,3.6-9.5,4.4-13.4L327,1936.4z M343.4,1958.2c-4.5,9-9.8,17-16.7,24.8c-2.4-4.2-3.7-5.9-7.3-9.6
			c7.7-7.9,12.8-15.6,17.2-25.9c2.5-6.1,4.1-11.2,4.5-14.8l11.6,3.4c-1,2.4-1.4,3.3-2.1,5.4c-1.6,4.2-1.7,4.6-2.6,6.8h27.8
			c5.1,0,8.2-0.2,11.1-0.6v11c-2.9-0.3-6.6-0.5-11.1-0.5h-19.3v13h16.6c4.3,0,7.1-0.2,10.1-0.5v10.8c-3.3-0.3-6.3-0.5-10.2-0.5
			h-16.5v13h16.7c4.4,0,7.1-0.1,10.2-0.5v10.9c-3.3-0.3-6.3-0.5-10.2-0.5h-16.7v11.8c0,6.1,0.2,9.5,0.6,12.3h-12.3
			c0.5-3,0.6-6,0.6-12.3v-57.4H343.4z"/>
		<path class="st7" d="M444.8,1951.9c-8.6,1.4-16.7,2.3-27.4,3.2c-0.9-3.1-1.4-7.2-1.4-10.8c0-0.4,0-0.7,0-1.1
			c14-1.1,31.1-2.6,44.4-4.5c2,2.4,3.3,6,3.5,9.7l-25,26.1l0.3,0.3c4.9-2.1,10.6-3.1,16.2-3.1c18.7,0,27.2,10.1,27.2,21.9
			c0,18-14.6,30.3-46.1,32.1l-4.6-12.3c29.7-1.9,37.8-9.4,37.8-19.9c0-6.1-4.9-11.4-15.3-11.4c-6.8,0-16.1,2.5-22.6,5.9
			c-7.7,4.3-14.8,9.3-21.2,15.1c-3.1-2.2-6.2-5.7-7.6-9c16.4-14,29.5-27.9,41.6-41.8L444.8,1951.9z"/>
		<path class="st7" d="M535.8,2016c20.9-7.2,28.8-18.3,28.8-31.7c0-6.8-4.4-10.6-13.9-10.6c-8.3,0-21.6,2.6-34.1,7.3
			c-1.8-3.2-3.2-8-3.2-12.4c12.7-4.3,26.7-6.6,37-6.6c19.9,0,27.1,9.5,27.1,22.2c0,18.6-11.2,33.9-33.9,42.7L535.8,2016z
			 M570.6,1941.2c0,0.2,0,0.4,0,0.6c0,4-0.9,8.3-2.1,11.5c-13.3-1.1-29.6-3.8-41.1-7c0.2-3.7,1.8-8.6,3.5-11.8
			C541.6,1937.7,556.5,1940.1,570.6,1941.2z"/>
		<path class="st7" d="M639.6,2020.1h-15.9V2005h15.9V2020.1z M626.4,1995.5c0-16.2-2.4-31-2.4-49.8v-3.7h15.2v3.6
			c0,18.8-2.5,33.7-2.5,49.9H626.4z"/>
		<path class="st7" d="M169,2099.4c-8.9,1.4-17.9,2.2-26.1,2.6l-3.4-11.5c20.2-0.8,44-4.2,60.7-10.1l6.2,10.6
			c-7.7,2.4-16.1,4.5-24.6,6.1v17.5h34v10.9h-34.4c-2.1,20.3-12.6,33.4-33.7,41.6l-6.9-10.3c17.4-6.7,25.7-16,27.7-31.3h-37.2v-10.9
			H169V2099.4z"/>
		<path class="st7" d="M251.2,2135.1v-10.7h43.4v-14.6h-46.9v-10.5h58.6v67.9h-11.6v-6H247v-10.5h47.5v-15.6H251.2z"/>
		<path class="st7" d="M402.3,2143v-41h-56v-12h68.9v72.8h-12.9v-7.9h-56.7v-12H402.3z"/>
		<path class="st7" d="M513.9,2093.5l7,7.7c-10.5,31.6-30.4,52.9-59,65.7l-8.3-10.3c25.9-11.1,44.2-30,51.8-52.2h-28.1
			c-6.6,8.9-14.1,16.8-22.3,23l-9.3-8.1c13.7-10.5,25.4-25.4,32.3-41.6l12.5,3.6c-1.9,4.2-4,8.2-6.2,12.2H513.9z"/>
		<path class="st7" d="M626,2115c-7.4,28.8-24.9,44.6-51.4,52l-6.6-11c24.1-6.7,38-18.7,43.8-36.8h-60.5v-11.3h68L626,2115z
			 M615.8,2084v11.5h-54.5V2084H615.8z"/>
		<path class="st7" d="M664.5,2086c8.6,4.9,17.3,11.8,24.6,20l-9.5,10c-7.3-8.2-16.1-15.9-23.5-21.1L664.5,2086z M657.7,2151
			c33.1-7.8,55-25.2,65.8-53.1l11.1,6.9c-12.1,31.6-38.4,50.9-72.5,58.5L657.7,2151z"/>
		<path class="st7" d="M793,2099.4c-8.9,1.4-17.9,2.2-26.1,2.6l-3.4-11.5c20.2-0.8,44-4.2,60.7-10.1l6.2,10.6
			c-7.7,2.4-16.1,4.5-24.6,6.1v17.5h34v10.9h-34.4c-2.1,20.3-12.6,33.4-33.7,41.6l-6.9-10.3c17.4-6.7,25.7-16,27.7-31.3h-37.2v-10.9
			H793V2099.4z"/>
	</g>
</g>
<g>
	<g>
		<path class="st7" d="M315.2,2512c-6.2,36.7-25,57.6-57.5,69.8l-7.2-11.3c27.9-9.5,45.7-27.7,50-53.6H241v-12h67L315.2,2512z"/>
		<path class="st7" d="M353,2499.7h13.2v46.5H353V2499.7z M409.2,2498.4v33.4c0,26.3-12,42-33.7,51.1l-8-10.8
			c20.4-7.6,28.5-19.3,28.5-41.6v-32H409.2z"/>
		<path class="st7" d="M523.2,2512c-6.2,36.7-25,57.6-57.5,69.8l-7.2-11.3c27.9-9.5,45.7-27.7,50-53.6H449v-12h67L523.2,2512z"/>
		<path class="st7" d="M561,2499.7h13.2v46.5H561V2499.7z M617.2,2498.4v33.4c0,26.3-12,42-33.7,51.1l-8-10.8
			c20.4-7.6,28.5-19.3,28.5-41.6v-32H617.2z"/>
		<path class="st7" d="M693.1,2492.3c2.2,4.6,4.7,8,10.3,12.6c17.2,13.7,20.3,19.6,20.3,28c0,8.7-6,17.5-17.2,25l-1.7-2.1
			c9.6-8.1,12.9-14.5,12.9-21.1c0-7.1-6.7-13.7-22.9-23.5v53.8c0,4.4-0.2,6.7-1.6,9.4c-3.1,6.2-10.8,10.7-18,10.7
			c-7.1,0-11.6-4.1-11.6-10.2c0-3.4,1.8-6.9,4.7-9.3c3.4-2.9,8.5-4.8,12.6-4.8c3.3,0,6.1,0.5,9.3,1.7v-70.1H693.1z"/>
		<path class="st7" d="M179.8,2686c9-7.3,17.9-16.6,25.1-25.4c3.1-3.7,6.4-5.6,9.8-5.6c3.2,0,6.6,1.7,9.7,5
			c11.5,12.4,30.7,29.3,47.5,41.6l-9.2,12.2c-16.4-13.3-35.2-31.1-45.2-43c-1-1.2-1.9-1.9-2.7-1.9c-0.9,0-1.9,0.7-2.9,2
			c-5.9,7.5-15.5,17.9-23.8,25.3L179.8,2686z M246.7,2650.8c3.8,3.8,8.1,10.2,11,16.2l-7,4.1c-3.1-6.6-6.8-12.5-10.5-16.7
			L246.7,2650.8z M258.3,2645c3.8,3.7,7.9,9.5,11.2,16l-6.9,3.8c-2.9-6.2-7.2-12.5-10.7-16.3L258.3,2645z"/>
		<path class="st7" d="M309.8,2699.6c0,6.7,3.3,9.3,16,9.3c13.4,0,25.4-1.1,37.2-3.5l1.6,12.5c-12.3,2.1-24.8,3-38.8,3
			c-21.6,0-28.6-5.6-28.6-19v-61.2h12.6v30.9c15.5-4,31.7-10.5,43.9-18.3l6.8,11.1c-14.9,8.1-33.3,14.8-50.6,18.6V2699.6z
			 M357.4,2636c4,4,8.1,10.2,11.1,16.3l-7,4c-3.1-6.6-6.9-12.4-10.5-16.7L357.4,2636z M369,2630.2c3.8,3.7,7.8,9.4,11.2,15.9
			l-6.9,3.8c-2.9-6.1-7.3-12.5-10.7-16.2L369,2630.2z"/>
		<path class="st7" d="M474.9,2673.7v13.1h-83.6v-13.1H474.9z"/>
		<path class="st7" d="M569.6,2722.6c-7.8-10.8-17.6-21.4-27.1-29.8c-10.9,12.5-24.1,21.7-39.8,29.1l-8.1-10.2
			c27.2-11.6,46.4-31.2,56-55.6h-46.1v-11.6h54.4l7.1,7.9c-4.5,12-9.8,22.2-16,31c10.8,8.2,21.6,19.1,30.5,30.3L569.6,2722.6z"/>
		<path class="st7" d="M632.7,2660.3c-6.8,9.3-14.5,17.2-22.6,23.1l-9.2-8c14-10.2,25.7-25.5,32.2-41.4l12.5,3.8
			c-1.9,4.1-3.8,8.1-6,11.9h30.8l6.9,7c-10.4,37.1-29.7,57.2-61.3,69.3l-7.7-10.5c14.1-5.3,25.6-12.4,34.6-21.2
			c-5.8-5.8-12.3-10.9-18.3-14.7l7.3-8c6,3,12.8,8,18.9,13.7c5.5-7.4,9.7-15.7,12.5-25H632.7z"/>
		<path class="st7" d="M786.9,2673.7v13.1h-83.6v-13.1H786.9z"/>
	</g>
</g>
<g>
	<g>
		<path class="st7" d="M251.1,3088.2h-9c-5,0-7.9,0.2-10.4,0.5V3078c2.7,0.4,5,0.5,10.5,0.5h7.6v-10h-6.1c-4.2,0-6.3,0.1-9.4,0.4
			v-10.6c2.3,0.4,4.7,0.5,9.5,0.5h6v-2.8c0-4.5-0.1-6.6-0.6-9.2h11.8c-0.5,2.5-0.6,4.7-0.6,9.2v2.8h3.5c4.8,0,6.7-0.1,8.9-0.5v10.6
			c-2.8-0.3-4.9-0.4-8.9-0.4h-3.5v10h5.4c4.4,0,6.7-0.1,9-0.5v2c4.7-2.3,7.2-4.4,9.3-7.8c2.1-3.3,3.1-6.7,3.5-11.3h-4.2
			c-3.8,0-5.7,0.1-7.9,0.4v-10.5c2.8,0.4,6.3,0.6,10.8,0.6h24.3c5.3,0,8.3-0.2,10.2-0.6c-0.3,2.5-0.3,2.7-0.6,9.6
			c-0.2,5.1-0.9,13.8-1.4,16.3c-1.6,8.7-4.8,11-15,11c-1.2,0-2.1,0-5.8-0.1c-0.4-5.4-0.8-6.9-2.5-10.4c3.6,0.5,6.1,0.7,8.2,0.7
			c2.6,0,3.8-0.6,4.4-2.2c0.9-2.7,1.4-6.8,1.6-14.9h-11.5c-0.8,5.6-1.9,9.7-3.7,13.7c-2.6,5.8-7.3,10.5-14.5,14.6
			c-1.6-3.2-2.7-5-5.2-7.7v7.3c-2.5-0.4-4.8-0.5-9.5-0.5h-4v11.6h4.7c3.7,0,5.6-0.1,8.2-0.5v10.4c-2.6-0.4-4.4-0.5-8.2-0.5h-4.7
			v15.9c6.4,2.6,13.2,3.3,29.5,3.3c14.6,0,25.1-0.5,34.6-1.7c-2.2,5.3-2.6,6.9-3.1,11.3c-13.6,0.3-22.2,0.5-25.7,0.5
			c-19.4,0-28.1-0.7-36-3.2c-7.1-2.2-12.9-6.7-17.4-13.3c-1.7,7-3.3,11.8-6.2,17.8c-2.8-3-4.9-4.8-8.5-7c3-5.6,4.3-8.8,5.6-15.2
			c1.5-6.6,2.2-12.7,2.2-19.3c0-2-0.1-3.1-0.3-4.9l10.2,1.4c-0.1,2.1-0.1,2.1-0.4,8.2c-0.1,2.6-0.2,4.3-0.6,7.7
			c1.8,3.1,3.3,5.1,5.9,7.7V3088.2z M277.7,3098.5c0-4.7-0.1-6.3-0.3-8.3c2.6,0.3,4.5,0.4,9,0.4h22.3c5,0,7.9-0.1,11.1-0.4
			c-0.3,2.8-0.4,4.8-0.4,10.3v11.5c0,5.8,0.1,8,0.4,10.6c-3.1-0.3-6.2-0.4-10.6-0.4h-20.8c-5.1,0-8.1,0.1-11.1,0.4
			c0.3-2.8,0.4-5.2,0.4-10.2V3098.5z M288,3112.8h20.8v-13.5H288V3112.8z"/>
		<path class="st7" d="M375.5,3079.9c12.8,4,27.7,10.3,41.2,18.3l-5.6,11.2c-11.3-6.9-24.3-12.9-35.6-17.1v44.7h-13v-86.7h13V3079.9
			z M399.6,3056.7c4,3.8,8.2,10.2,11.1,16.2l-7,4.1c-3.1-6.7-6.8-12.5-10.5-16.8L399.6,3056.7z M411.2,3050.9
			c3.8,3.7,7.8,9.4,11.2,16l-6.9,3.7c-2.9-6.1-7.2-12.5-10.7-16.2L411.2,3050.9z"/>
		<path class="st7" d="M441.4,3080.8h83.4v11.1h-34.1c-0.8,22.3-10.4,37.1-28.8,46.5l-8.1-9.8c16.2-8.4,23.1-18.9,23.6-36.7h-36
			V3080.8z M451.1,3056.6h56v11.2h-56V3056.6z M515.7,3047c3,4.4,6,11.3,8.1,17.9l-7.6,2.7c-2-7-4.7-13.4-7.7-18.3L515.7,3047z
			 M527.8,3043.2c3.1,4.2,6.1,10.5,8.5,17.6l-7.5,2.6c-1.8-6.6-5.1-13.5-7.9-17.8L527.8,3043.2z"/>
		<path class="st7" d="M552.4,3081.1V3070h26.9c0.1-2.8,0.2-5.7,0.2-8.7V3049h12.7v11.8c-0.1,3.1-0.1,6.1-0.2,9.3h28l6,5.8
			c-0.5,19-1.6,32.2-3.3,43.2c-1.9,11.5-7.4,16.4-16.6,16.4c-4.4,0-9.6-0.4-13.7-1l-1.4-12.6c5.3,0.9,8.9,1.4,13.1,1.4
			c3.4,0,5.3-1.4,6.1-6.4c1.7-9.5,2.7-20.2,2.9-35.6h-22c-3,26.9-14.9,44.8-35.7,56.2l-7.8-9.7c18-10.4,27.6-23.6,30.8-46.5H552.4z"
			/>
		<path class="st7" d="M703.4,3136.7h-13.2v-47c-10,6.2-20.6,11.3-31.5,15.5l-7.5-10.4c26.4-9.7,48.2-23.2,66.1-44.3l10.7,7.6
			c-7.7,8.4-15.9,15.9-24.6,22.5V3136.7z"/>
		<path class="st7" d="M268.7,3205.8c-5.1,13.2-14.2,24.4-25.5,31.7l-7.8-8.5c8.1-5.2,14.4-12.2,17.9-19h-67.6v-11.4h77.2
			L268.7,3205.8z M229.7,3218.8v8.7c0,26.6-10.4,42.6-33.4,51.7l-7-10.7c19.9-7.5,27.1-18.6,27.1-41.5v-8.2H229.7z"/>
		<path class="st7" d="M361.6,3277.5c-7.8-10.8-17.6-21.4-27.1-29.8c-10.9,12.5-24.1,21.7-39.8,29.1l-8.1-10.2
			c27.2-11.6,46.4-31.2,56-55.6h-46.1v-11.6h54.4l7.1,7.9c-4.5,12-9.8,22.2-16,31c10.8,8.2,21.6,19.1,30.5,30.3L361.6,3277.5z"/>
		<path class="st7" d="M416.5,3197.8v63.1c17.1-4.7,37.1-17.4,51.1-34.8l7.9,10.5c-15.3,20-38.1,33.7-65.8,39.6l-6.3-7.1v-71.3
			H416.5z"/>
		<path class="st7" d="M533,3212.2c-8.9,1.4-17.9,2.2-26.1,2.6l-3.4-11.5c20.2-0.8,44-4.2,60.7-10.1l6.2,10.6
			c-7.7,2.4-16.1,4.5-24.6,6.1v17.5h34v10.9h-34.4c-2.1,20.3-12.6,33.4-33.7,41.6l-6.9-10.3c17.4-6.7,25.7-16,27.7-31.3h-37.2v-10.9
			H533V3212.2z"/>
		<path class="st7" d="M617.1,3215.6c4,6.7,7.4,15,10,23.1l-11.2,4c-2.5-8.2-5.7-16.6-9.3-23.2L617.1,3215.6z M675.6,3215.1
			c-5.2,32.1-19.8,54-45.9,65.9l-7.2-9.6c23.9-11,36.9-29.1,41.2-58.7L675.6,3215.1z M638.6,3211.2c4.2,7.1,7.7,15.3,9.9,22.8
			l-11,3.7c-2.2-8.1-5.7-16.6-9.3-23.4L638.6,3211.2z"/>
		<path class="st7" d="M773.9,3206.3l7,7.7c-10.5,31.6-30.4,52.9-59,65.7l-8.3-10.3c25.9-11.1,44.2-30,51.8-52.2h-28.1
			c-6.6,8.9-14.1,16.8-22.3,23l-9.3-8.1c13.7-10.5,25.4-25.4,32.3-41.6l12.5,3.6c-1.9,4.2-4,8.2-6.2,12.2H773.9z"/>
	</g>
</g>
<g>
	<path class="st8" d="M1914.3,26v1719.6H26V26H1914.3 M1940.3,0H0v1771.6h1940.3V0L1940.3,0z"/>
</g>
<path class="st8" d="M0,0v477.6c242.3,25.5,587.3,41.5,970.2,41.5c382.9,0,727.9-16,970.2-41.5V0H0z"/>
<g>
	<path class="st7" d="M235.1,300.5l5.8-88.7h23l20.5,61.9l21.4-61.9h22.7l5.8,88.7h-15.5l-4.6-70.7l-23.2,67H277l-22.5-67.1
		l-4.6,70.8H235.1z"/>
	<path class="st7" d="M345.5,316.2c2.2,0.6,4,0.7,6.1,0.7c8.7,0,13.3-3.3,16.2-11l0.4-0.9l-24.5-70h16.8l15.3,48.9l17.5-48.9h15.8
		c-4.5,12.2-23.2,62.1-28.7,76.3c-4.6,11.9-12.9,18.4-26.7,18.4c-2.5,0-5.9-0.1-8.1-0.8V316.2z"/>
	<path class="st7" d="M516.1,303.4c-8.9-12.3-19.9-24.3-30.8-33.9c-12.4,14.2-27.4,24.7-45.2,33l-9.2-11.6
		c30.9-13.2,52.6-35.4,63.5-63.1h-52.3v-13.2h61.7l8,9c-5.1,13.6-11.1,25.1-18.2,35.2c12.3,9.3,24.5,21.7,34.6,34.3L516.1,303.4z"/>
	<path class="st7" d="M545.8,261.9c10.3-8.3,20.3-18.9,28.4-28.8c3.5-4.2,7.3-6.4,11.1-6.4c3.7,0,7.4,1.9,11,5.7
		c13.1,14,34.8,33.3,53.9,47.2l-10.4,13.8c-18.6-15.1-39.9-35.3-51.3-48.7c-1.2-1.4-2.1-2.1-3.1-2.1c-1.1,0-2.1,0.8-3.3,2.2
		c-6.7,8.5-17.6,20.3-27,28.7L545.8,261.9z M644.7,230.3c0,7.6-5.9,13.5-13.5,13.5c-7.6,0-13.5-5.9-13.5-13.5s5.9-13.5,13.5-13.5
		C638.8,216.8,644.7,222.7,644.7,230.3z M624.2,230.3c0,4,3.1,7.1,7.1,7.1c4,0,7.1-3.1,7.1-7.1s-3.1-7.1-7.1-7.1
		C627.2,223.2,624.2,226.3,624.2,230.3z"/>
	<path class="st7" d="M677.3,236.8c9.6,3.2,21.1,9,30.1,15.1l-7.2,12.7c-9.1-6.3-20.5-12.2-29.5-15.8L677.3,236.8z M673.4,288.5
		c36.9-5.4,62.4-21.1,78.1-55.6l12.3,9.2c-17.1,36.5-46.6,54.3-86.4,61L673.4,288.5z M687.2,209.4c9.4,3.3,20.3,8.5,29.3,14.9
		l-7.1,12.5c-9.2-6.6-19.9-11.8-28.9-15.6L687.2,209.4z"/>
	<path class="st7" d="M835.5,305l-13,2.2l-9.8-50.4l-22.3,3.3l-1.7-12.4l21.6-3.1l-4.2-21.5l13.2-2.1l4.1,21.7l41.8-5.9l6.4,8.3
		c-5.5,13.3-13.7,25-23,33l-9.3-7.9c6.6-5.7,12.5-13.3,15.8-19.8l-29.3,4.4L835.5,305z"/>
	<path class="st7" d="M926.5,213.5v27c0,27.4-7.8,46.3-26.1,61.4l-11-9.9c16.8-12.7,22.5-28.4,22.5-52.3v-26.2H926.5z M958.4,210.2
		v72.6c9.8-4.2,21.9-13.6,31.6-25.8l7.9,12.4c-10.3,13.3-28.4,25.6-46.4,32.6l-7.7-6.6v-85.1H958.4z"/>
	<path class="st7" d="M1013.1,261.9c10.3-8.3,20.3-18.9,28.4-28.8c3.5-4.2,7.3-6.4,11.1-6.4c3.7,0,7.4,1.9,11,5.7
		c13.1,14,34.8,33.3,53.9,47.2l-10.4,13.8c-18.6-15.1-39.9-35.3-51.3-48.7c-1.2-1.4-2.1-2.1-3.1-2.1c-1.1,0-2.1,0.8-3.3,2.2
		c-6.7,8.5-17.6,20.3-27,28.7L1013.1,261.9z M1089,222c4.4,4.4,9.2,11.6,12.5,18.4l-7.9,4.6c-3.5-7.4-7.7-14.2-11.9-19L1089,222z
		 M1102.1,215.4c4.4,4.2,9,10.7,12.7,18.2l-7.8,4.4c-3.3-7.1-8.1-14.2-12.2-18.5L1102.1,215.4z"/>
	<path class="st7" d="M1160.6,277.4c0,7.6,3.8,10.5,18.2,10.5c15.2,0,28.8-1.3,42.2-4l1.8,14.2c-13.9,2.4-28.1,3.4-44,3.4
		c-24.5,0-32.4-6.4-32.4-21.6v-69.4h14.3v35c17.6-4.5,36-11.9,49.8-20.8l7.7,12.6c-16.9,9.2-37.8,16.8-57.5,21.1V277.4z
		 M1214.5,205.2c4.5,4.5,9.2,11.6,12.6,18.5l-7.9,4.5c-3.5-7.4-7.8-14-11.9-19L1214.5,205.2z M1227.7,198.7
		c4.4,4.2,8.8,10.6,12.7,18.1l-7.8,4.4c-3.3-7-8.3-14.2-12.2-18.4L1227.7,198.7z"/>
	<path class="st7" d="M1347.9,248v14.9H1253V248H1347.9z"/>
	<path class="st7" d="M1455.4,303.4c-8.8-12.3-19.9-24.3-30.8-33.9c-12.4,14.2-27.4,24.7-45.2,33l-9.2-11.6
		c30.9-13.2,52.6-35.4,63.5-63.1h-52.3v-13.2h61.7l8,9c-5.1,13.6-11.1,25.1-18.2,35.2c12.3,9.3,24.5,21.7,34.6,34.3L1455.4,303.4z"
		/>
	<path class="st7" d="M1526.9,232.8c-7.7,10.5-16.4,19.5-25.6,26.2l-10.4-9.1c15.9-11.6,29.1-28.9,36.6-47l14.2,4.4
		c-2.1,4.6-4.4,9.2-6.8,13.5h34.9l7.8,7.9c-11.8,42.1-33.7,64.9-69.5,78.6l-8.7-11.9c16-6,29-14,39.3-24.1
		c-6.6-6.6-13.9-12.4-20.8-16.6l8.3-9.1c6.8,3.4,14.5,9.1,21.5,15.6c6.3-8.4,11-17.8,14.2-28.3H1526.9z"/>
	<path class="st7" d="M1701.9,248v14.9H1607V248H1701.9z"/>
</g>
</svg>
