<?xml version="1.0" encoding="utf-8"?>
<!-- Generator: Adobe Illustrator 21.1.0, SVG Export Plug-In . SVG Version: 6.00 Build 0)  -->
<svg version="1.1" id="レイヤー_1" xmlns="http://www.w3.org/2000/svg" xmlns:xlink="http://www.w3.org/1999/xlink" x="0px"
	 y="0px" viewBox="0 0 1940.3 3445.2" style="enable-background:new 0 0 1940.3 3445.2;" xml:space="preserve">
<style type="text/css">
	.st0{opacity:0.1;fill:#74340B;}
	.st1{fill:#864E2B;}
	.st2{opacity:8.000000e-02;fill:#F2971B;}
	.st3{fill:#F28B00;}
	.st4{opacity:8.000000e-02;fill:#8EC43E;}
	.st5{fill:#69C314;}
	.st6{opacity:5.000000e-02;fill:#C30D23;}
	.st7{fill:#C30D23;}
	.st8{fill:#FFFFFF;}
	.st9{opacity:4.000000e-02;fill:#41A5E7;}
	.st10{fill:#3CA5E7;}
</style>
<g>
	<rect x="0" y="2169.7" class="st0" width="1940.3" height="425.2"/>
	<g>
		<path class="st1" d="M1924.3,2185.7v393.2H16v-393.2H1924.3 M1940.3,2169.7H0v425.2h1940.3V2169.7L1940.3,2169.7z"/>
	</g>
</g>
<g>
	<rect x="0" y="2594.9" class="st2" width="1940.3" height="425.2"/>
	<g>
		<path class="st3" d="M1924.3,2610.9v393.2H16v-393.2H1924.3 M1940.3,2594.9H0v425.2h1940.3V2594.9L1940.3,2594.9z"/>
	</g>
</g>
<g>
	<rect x="0" y="3020.1" class="st4" width="1940.3" height="425.2"/>
	<g>
		<path class="st5" d="M1924.3,3036.1v393.2H16v-393.2H1924.3 M1940.3,3020.1H0v425.2h1940.3V3020.1L1940.3,3020.1z"/>
	</g>
</g>
<g>
	<rect x="0" y="2169.7" class="st1" width="970.2" height="425.2"/>
</g>
<g>
	<rect x="0" y="2594.9" class="st3" width="970.2" height="425.2"/>
</g>
<g>
	<rect x="0" y="3020.1" class="st5" width="970.2" height="425.2"/>
</g>
<g>
	<rect x="970.2" y="0" class="st6" width="970.2" height="2169.7"/>
	<path class="st7" d="M970.2,0v347.4c121.1,15.5,293.6,25.2,485.1,25.2c191.4,0,363.9-9.7,485.1-25.2V0H970.2z"/>
	<g>
		<g>
			<path class="st8" d="M1156.3,156.4l4.5-69.2h17.9l16,48.3l16.7-48.3h17.7l4.5,69.2h-12.1l-3.6-55.1l-18.1,52.3H1189l-17.6-52.3
				l-3.6,55.2H1156.3z"/>
			<path class="st8" d="M1246,168.7c1.7,0.5,3.1,0.6,4.8,0.6c6.8,0,10.4-2.6,12.6-8.6l0.3-0.7l-19.1-54.6h13.1l12,38.1l13.6-38.1
				h12.3c-3.5,9.5-18.1,48.4-22.4,59.5c-3.6,9.3-10,14.4-20.8,14.4c-1.9,0-4.6-0.1-6.3-0.6V168.7z"/>
			<path class="st8" d="M1379.1,158.7c-6.9-9.6-15.5-19-24-26.4c-9.7,11-21.3,19.2-35.2,25.8l-7.2-9c24.1-10.3,41-27.6,49.5-49.2
				h-40.8V89.6h48.1l6.3,7c-4,10.6-8.6,19.6-14.2,27.4c9.6,7.3,19.1,16.9,27,26.8L1379.1,158.7z"/>
			<path class="st8" d="M1402.2,126.4c8-6.4,15.8-14.7,22.2-22.4c2.8-3.3,5.7-5,8.6-5c2.9,0,5.8,1.5,8.6,4.4
				c10.2,10.9,27.1,25.9,42,36.8l-8.1,10.8c-14.5-11.8-31.1-27.5-40-38c-0.9-1.1-1.7-1.7-2.4-1.7c-0.8,0-1.7,0.6-2.6,1.7
				c-5.2,6.6-13.7,15.8-21.1,22.4L1402.2,126.4z M1479.3,101.7c0,5.9-4.6,10.5-10.5,10.5s-10.5-4.6-10.5-10.5s4.6-10.5,10.5-10.5
				S1479.3,95.8,1479.3,101.7z M1463.3,101.7c0,3.1,2.4,5.5,5.5,5.5c3.1,0,5.5-2.4,5.5-5.5s-2.4-5.5-5.5-5.5
				C1465.7,96.2,1463.3,98.6,1463.3,101.7z"/>
			<path class="st8" d="M1504.7,106.8c7.5,2.5,16.5,7,23.5,11.8l-5.6,9.9c-7.1-4.9-16-9.5-23-12.3L1504.7,106.8z M1501.7,147.1
				c28.8-4.2,48.7-16.5,60.9-43.3l9.6,7.2c-13.3,28.4-36.3,42.3-67.3,47.6L1501.7,147.1z M1512.5,85.4c7.4,2.6,15.8,6.6,22.8,11.6
				l-5.5,9.8c-7.2-5.2-15.5-9.2-22.5-12.1L1512.5,85.4z"/>
			<path class="st8" d="M1629.9,159.9l-10.1,1.7l-7.6-39.3l-17.4,2.6l-1.3-9.7l16.8-2.4l-3.3-16.7l10.3-1.7l3.2,16.9l32.6-4.6l5,6.4
				c-4.3,10.4-10.7,19.5-17.9,25.8l-7.3-6.2c5.2-4.4,9.8-10.4,12.3-15.5l-22.8,3.4L1629.9,159.9z"/>
			<path class="st8" d="M1702.7,88.6v21.1c0,21.3-6.1,36.1-20.3,47.8l-8.6-7.7c13.1-9.9,17.6-22.2,17.6-40.8V88.6H1702.7z
				 M1727.6,86.1v56.6c7.6-3.3,17.1-10.6,24.7-20.1l6.2,9.7c-8,10.4-22.2,20-36.2,25.4l-6-5.2V86.1H1727.6z"/>
			<path class="st8" d="M1185.2,250.4c8-6.4,15.8-14.7,22.2-22.4c2.8-3.3,5.7-5,8.6-5c2.9,0,5.8,1.5,8.6,4.4
				c10.2,10.9,27.1,25.9,42,36.8l-8.1,10.8c-14.5-11.8-31.1-27.5-40-38c-0.9-1.1-1.7-1.7-2.4-1.7c-0.8,0-1.7,0.6-2.6,1.7
				c-5.2,6.6-13.7,15.8-21.1,22.4L1185.2,250.4z M1244.4,219.3c3.4,3.4,7.2,9,9.8,14.4l-6.2,3.6c-2.8-5.8-6-11-9.3-14.8
				L1244.4,219.3z M1254.6,214.1c3.4,3.3,7,8.4,9.9,14.2l-6.1,3.4c-2.6-5.5-6.3-11-9.5-14.4L1254.6,214.1z"/>
			<path class="st8" d="M1300.2,262.4c0,5.9,2.9,8.2,14.2,8.2c11.9,0,22.4-1,32.9-3.1l1.4,11c-10.9,1.8-21.9,2.7-34.3,2.7
				c-19.1,0-25.3-5-25.3-16.8v-54.1h11.1v27.3c13.7-3.5,28.1-9.3,38.8-16.2l6,9.8c-13.2,7.2-29.4,13.1-44.8,16.5V262.4z
				 M1342.3,206.1c3.5,3.5,7.2,9,9.8,14.4l-6.2,3.5c-2.8-5.8-6.1-10.9-9.3-14.8L1342.3,206.1z M1352.6,201.1
				c3.4,3.3,6.9,8.3,9.9,14.1l-6.1,3.4c-2.6-5.4-6.4-11-9.5-14.4L1352.6,201.1z"/>
			<path class="st8" d="M1446.2,239.5v11.6h-74v-11.6H1446.2z"/>
			<path class="st8" d="M1530,282.7c-6.9-9.6-15.5-19-24-26.4c-9.7,11-21.3,19.2-35.2,25.8l-7.2-9c24.1-10.3,41-27.6,49.5-49.2
				h-40.8v-10.3h48.1l6.3,7c-4,10.6-8.6,19.6-14.2,27.4c9.6,7.3,19.1,16.9,27,26.8L1530,282.7z"/>
			<path class="st8" d="M1585.8,227.6c-6,8.2-12.8,15.2-20,20.4l-8.1-7.1c12.4-9,22.7-22.5,28.5-36.6l11,3.4
				c-1.7,3.6-3.4,7.2-5.3,10.5h27.2l6.1,6.2c-9.2,32.8-26.3,50.6-54.2,61.3l-6.8-9.3c12.5-4.7,22.6-10.9,30.6-18.8
				c-5.2-5.2-10.9-9.7-16.2-13l6.4-7.1c5.3,2.7,11.3,7.1,16.7,12.1c4.9-6.5,8.6-13.9,11-22.1H1585.8z"/>
			<path class="st8" d="M1722.2,239.5v11.6h-74v-11.6H1722.2z"/>
		</g>
	</g>
</g>
<g>
	<rect x="0" y="0" class="st9" width="970.2" height="2169.7"/>
	<path class="st10" d="M0,0v347.4c121.1,15.5,293.6,25.2,485.1,25.2c191.4,0,363.9-9.7,485.1-25.2V0H0z"/>
	<g>
		<g>
			<path class="st8" d="M157.5,119.8c5.2-1.7,11.2-2.5,16.7-2.5c15.2,0,24.6,8.7,24.6,19.7c0,12.9-8.6,21-22.4,21
				c-1.9,0-4.3-0.1-6.3-0.4l-2.1-10.8c3,0.6,5.2,0.7,7.5,0.7c7.4,0,12.1-3.2,12.1-10.6c0-5.5-3.8-10-13.5-10
				c-5.6,0-11.5,0.9-16.5,2.8v20.1c0,8.4-4.3,11.5-9.8,11.5c-4.2,0-7.7-0.8-13.7-4.5c-5.3-3.4-8.1-7.8-8.1-12.1
				c0-5.7,3.6-13.9,21.4-21.9v-14.9c-6.2,0.6-12.4,0.8-17.9,0.8c-0.4-1.7-0.6-3.5-0.6-5.4c0-1.7,0.1-3.3,0.4-4.8
				c5.6,0,11.9-0.3,18.1-0.7c-0.1-5.2-0.2-10.3-0.4-15.5c1.5-0.3,3.4-0.5,5.4-0.5s4,0.2,5.5,0.5c-0.2,4.8-0.3,9.7-0.4,14.5
				c5.1-0.6,9.8-1.3,13.8-2.1c0.8,2.3,1.3,5.3,1.3,8.3c0,0.6,0,1,0,1.5c-4.4,0.9-9.7,1.7-15.1,2.4V119.8z M147.3,133.2
				c-9.1,5-10.8,8.2-10.8,10.9c0,1.5,0.9,2.8,3.4,4.2c2.5,1.5,4,1.8,5.2,1.8c1.5,0,2.1-0.6,2.1-2.4V133.2z M203.6,103
				c-1.4,3-4.1,6.3-6.9,8.4c-5.3-5.7-12.4-10.9-18.7-13.9c1.5-3.1,3.7-6.3,5.9-8C190.3,92.1,198.1,97.5,203.6,103z"/>
			<path class="st8" d="M260.6,123.1c4,1.4,8.4,2.2,12.5,2.2c7,0,10.7-2.9,10.7-9c0-4.9-4-8.3-10.3-8.3c-7.4,0-15,1.7-28,6.3
				c2.3,6.5,4.5,13,6.5,19.4c2.6,8.5,5.1,16.9,7.3,25.4c-2.9,1.7-7.3,3.3-11.3,3.5c-3.2-14-7.6-29.6-12.6-44.5
				c-5.5,2.1-11.3,4.3-16.9,6.7c-1.8-2.8-3.3-6.9-3.8-10.4c5.7-2.2,11.6-4.3,17.2-6.3c-2.1-6-4.3-11.7-6.6-17.1
				c2.9-1.7,6.9-3,10.4-3c2.1,5.2,4.3,10.9,6.5,16.8c7.6-2.5,13.7-4.2,19-5.3c-4.6-4.6-9.9-8.6-15-11.1c1.4-2.9,4-5.9,6.3-7.4
				c5.2,2.2,11.1,5.9,16.1,10.9c-1.6,2.4-4,5.4-6.6,7.5c4.1-0.8,8-1.2,11.6-1.2c13,0,21.5,8.3,21.5,18.1c0,12.5-8.5,19.2-21.6,19.2
				c-4,0-8.1-0.6-11.5-1.6L260.6,123.1z"/>
			<path class="st8" d="M335,142.3c28.2-3.3,36.7-10.9,36.7-23.6c0-7.5-5.4-12.8-16.9-12.8c-8.5,0-20.5,2.2-42.6,8.9
				c-1.9-3.1-3.3-7.6-3.3-11.7c23.8-6.3,36.1-7.9,46-7.9c19.6,0,28.6,10.7,28.6,23.5c0,18.9-13.3,31.2-43.5,34.7L335,142.3z"/>
			<path class="st8" d="M406.6,110.6v-9.8h23.8c0.1-2.5,0.2-5.1,0.2-7.7V82.2h11.2v10.4c-0.1,2.8-0.1,5.4-0.2,8.2h24.7l5.3,5.2
				c-0.5,16.8-1.4,28.5-2.9,38.2c-1.7,10.2-6.5,14.5-14.7,14.5c-3.9,0-8.5-0.4-12.1-0.9l-1.2-11.1c4.7,0.8,7.9,1.2,11.6,1.2
				c3,0,4.7-1.2,5.4-5.7c1.5-8.4,2.4-17.8,2.6-31.5h-19.5c-2.7,23.8-13.2,39.6-31.6,49.7l-6.9-8.6c15.9-9.2,24.4-20.9,27.2-41.1
				H406.6z"/>
			<path class="st8" d="M505.8,89.1c7.6,4.3,15.3,10.4,21.8,17.7l-8.4,8.8c-6.4-7.3-14.3-14.1-20.8-18.7L505.8,89.1z M499.8,146.6
				c29.3-6.9,48.7-22.3,58.2-47l9.8,6.1c-10.7,28-33.9,45-64.1,51.7L499.8,146.6z"/>
			<path class="st8" d="M581.7,148.2C592.3,134.3,599,118,602.2,96l11.6,2.5c-2.9,22.6-10.3,40.3-22.1,56.4L581.7,148.2z
				 M640.3,93.8c10.2,15.9,18.9,35.3,24.2,56.2l-12.2,4.7c-4.7-19.7-12.3-39.4-22.1-56.1L640.3,93.8z M666.2,88.1
				c0,5.9-4.6,10.5-10.5,10.5s-10.5-4.6-10.5-10.5s4.6-10.5,10.5-10.5S666.2,82.2,666.2,88.1z M650.2,88.1c0,3.1,2.4,5.5,5.5,5.5
				c3.1,0,5.5-2.4,5.5-5.5s-2.4-5.5-5.5-5.5C652.6,82.6,650.2,85,650.2,88.1z"/>
			<path class="st8" d="M752.2,139v10.8h-74.3V139H752.2z M686.3,95.5h57.5v10.8h-57.5V95.5z"/>
			<path class="st8" d="M844.1,115.5v11.6h-74v-11.6H844.1z"/>
			<path class="st8" d="M244.7,225.2c-5.6,9.9-12,17.5-21.2,25.1c-2.5-3.5-4.3-5.3-7.8-7.7c9.8-7.2,16.7-15.5,22.1-26.2
				c2.6-5.2,3.9-8.6,4.4-12.2l11.4,1.7c-0.6,1.4-0.9,1.8-1.8,4.1c-0.7,1.9-1.6,3.8-2.6,6.1h15.6c3.3,0,5.1-0.1,7-0.5l5,4.9
				c-1,2.4-1,2.4-2.4,6.2c-2.7,7.2-5.7,13.5-9.4,19.8c2.3,4.5,5.8,9.5,9.7,13.8c3.3,3.7,7.8,7.3,13.7,11.2c3.4,2.3,5.1,3.1,9.5,5.2
				c-3,3-4.9,5.7-6.9,10c-14.5-8.3-24.9-18.6-31.8-31.4c-3.7,4.8-8,9.4-13.6,14.4c-4,3.5-8.7,7.2-14.3,10.8c-3.7,2.4-5.7,3.5-11,6.1
				c-1.9-4-4-6.6-6.7-9c12.8-5.8,21.3-11.4,29.9-20.1c9.5-9.4,14.5-17.6,20.1-32.3H244.7z"/>
			<path class="st8" d="M323.3,247.8c-1,17.8-3.6,27.4-10.2,39.1c-2.6-3.4-4.7-5.5-8.3-8.5c3.6-5.7,5.3-10.1,6.7-16.8
				c2-9.4,2.9-22.4,2.9-44.7c0-4.4-0.2-7.1-0.6-10.2c3.2,0.4,6.6,0.5,11.9,0.5h48c4.5,0,7.6-0.1,10.4-0.4c-0.3,2.4-0.3,4.6-0.3,8
				v9.8c0,3.6,0,5.2,0.3,8c-2.9-0.2-5.8-0.3-9.8-0.3H358v7h20.3c4,0,6-0.1,8.9-0.5v9.4c-2.9-0.4-5.6-0.5-9-0.5H358v8.2h16.2
				c3.4,0,5.4-0.1,7.6-0.4c-0.2,2.3-0.3,4.4-0.3,7.5v15.4c0,3.5,0.1,6,0.4,8.6h-9.8v-3.8h-34.9v3.8h-9.8c0.3-2.6,0.5-4.6,0.5-8.3
				v-15.7c0-3.4-0.1-5.2-0.3-7.5c2.5,0.3,3.5,0.3,7.1,0.3h13.6v-8.2H323.3z M348.4,232.3h-24.5l-0.2,7h24.7V232.3z M374.5,223.8
				v-8.1H324v8.1H374.5z M337.2,274.7h34.9v-10.2h-34.9V274.7z"/>
			<path class="st8" d="M415,221.6c-5.1,0-8.1,0.2-11.7,0.6v-10.7c3.2,0.4,6.3,0.6,11.8,0.6h48.6c5.2,0,8.2-0.1,11.6-0.6v10.7
				c-3.7-0.5-6.7-0.6-11.6-0.6h-19.8v48.3h24.2c5.2,0,8.6-0.2,12.1-0.6v10.9c-3.3-0.5-7.4-0.6-12.1-0.6h-57.7
				c-4.6,0-8.4,0.2-12.1,0.6v-10.9c3.7,0.5,6.9,0.6,12.3,0.6h22.6v-48.3H415z"/>
			<path class="st8" d="M526,259.3c-3.8,3.3-5.7,4.7-11,7.7c-1.1-2-1.6-2.7-3.5-4.9c-5.2,3.2-9.5,5.5-17.8,9.6
				c-0.2,0-0.6,0.3-1.2,0.6c-0.2,0.1-0.5,0.3-0.8,0.5l-2.3-10.6c2.4-0.6,5.7-1.7,10.1-3.6v-23.8h-2.6c-2.6,0-4.7,0.1-7,0.5v-9.6
				c2.1,0.3,4.1,0.4,7.1,0.4h2.5v-11.1c0-4.6-0.2-7.4-0.6-10h10.5c-0.5,2.9-0.6,5.3-0.6,10v11.1h1.7c2.9,0,4.7-0.1,6.3-0.3v9.3
				c-2.1-0.2-3.9-0.3-6.3-0.3h-1.7v19.4c2.4-1.3,3.1-1.7,6.1-3.4v6.3c5-2.9,8.1-5.7,10.7-9.1h-1.9c-3.8,0-6.3,0.1-8.4,0.5v-9
				c2,0.4,4.3,0.5,8.5,0.5h39.4c4.3,0,7.2-0.2,9.4-0.6v9c-2.5-0.3-5.4-0.4-9.3-0.4h-27.6c-0.8,1.4-1.3,2.1-2.5,3.7h28.7
				c4.4,0,6.2-0.1,8.8-0.3c-0.2,1.5-0.3,2.6-0.5,5.3c-0.4,11.3-1.7,20.4-3.6,24.5c-1.9,4.1-4.8,5.3-12.7,5.3c-2.5,0-4-0.1-7.5-0.3
				c-0.4-3.3-1.1-5.7-2.5-8.3c-4.9,4.2-8.6,6.8-14.9,9.9c-1.9-2.9-3.4-4.5-6.4-6.9c7.9-3.4,11.7-5.7,16.4-9.7
				c3.8-3.2,6.6-6.9,9.4-12.1h-5.3c-5.6,8.4-13.3,14.4-25,19.8c-1.6-2.8-2.9-4.3-5.8-6.8c10.3-3.9,16.2-7.5,20.9-13H526z
				 M528.8,236.1c-3.5,0-6.4,0.1-8.3,0.3c0.3-2.4,0.4-5,0.4-8.6v-13.2c0-3.9-0.1-5.4-0.4-8.2c2.8,0.4,4.9,0.5,9.1,0.5h26.3
				c4.5,0,7-0.1,9.7-0.5c-0.3,2.6-0.4,4.3-0.4,8.9v12.4c0,4,0.1,6.5,0.4,8.6c-1.8-0.2-4.6-0.3-8.2-0.3H528.8z M530.2,218.5h25.6
				v-3.8h-25.6V218.5z M530.2,228.8h25.6v-3.7h-25.6V228.8z M557.6,259.3c-3.5,7.6-7,12.5-12.6,17.7c3.7,0.5,6.6,0.7,9.3,0.7
				c3.3,0,4.3-0.9,5.1-4.8c0.6-3.1,1.2-7.1,1.7-13.6H557.6z"/>
			<path class="st8" d="M602.7,260.6c-4.3,0-7.5,0.1-9.8,0.3c0.4-2.7,0.5-5.4,0.5-9.6v-32.9c0-4.9-0.2-8.9-0.5-11.1
				c2.7,0.3,5.3,0.4,9.5,0.4h41.7c4,0,6.9-0.1,9.5-0.4c-0.3,2-0.5,6.2-0.5,11.1v32.9c0,4.3,0.1,7,0.5,9.6c-2.4-0.2-5.8-0.3-9.5-0.3
				h-7.8v13.9c0,2.6,0.8,2.9,7.9,2.9c6.9,0,8.6-0.4,9.8-1.9c0.8-1.3,1.4-4.7,1.6-11.5c3.7,1.9,5.9,2.9,9.3,3.7
				c-0.8,10-1.7,13.4-4,15.6c-2.5,2.3-6.3,3-16.5,3c-15,0-17.8-1.2-17.8-8v-17.7h-8.1c-1.1,6.9-4,12.4-8.6,16.7
				c-5.7,5.2-12.5,8.5-22.8,10.9c-1.6-3.8-2.7-5.7-5.2-8.9c8.5-1.5,13.2-3.1,17.6-6c4.9-3.1,7.5-7,8.6-12.7H602.7z M602.8,222.5
				h40.8v-5.9h-40.8V222.5z M602.8,237h40.8V231h-40.8V237z M602.8,251.8h40.8v-6.3h-40.8V251.8z"/>
			<path class="st8" d="M686,262.3c-4.7,0-8.2,0.2-10.9,0.6v-9.9c3,0.4,6.6,0.6,10.9,0.6h24.6v-0.6c0-1.7-0.1-3.4-0.3-4.9h3.9
				c3.9-2,6.9-4,10.7-7.4h-24.8c-3.7,0-6.2,0.1-9,0.4v-8.9c2.7,0.3,5.2,0.4,9.1,0.4h29.8c3.6,0,5.2-0.1,6.9-0.4l5,5.5
				c-1.5,1.2-1.5,1.2-3.2,2.7c-6.3,5.4-10.9,8.8-18,13.2v0.1h23.5c4.5,0,8.5-0.2,11.1-0.6v9.9c-2.6-0.4-6.4-0.6-11.2-0.6h-23.4v15.7
				c0,3.1-0.3,4.4-1.1,5.7c-1.6,2.2-4.7,2.9-12.8,2.9c-1.2,0-4.1-0.1-8.9-0.3c-0.9-4.8-1.4-6.3-2.9-9.6c4.4,0.6,8.4,0.8,11.2,0.8
				c4,0,4.6-0.3,4.6-2v-13.3H686z M690.7,217.8c-2-4-3.3-5.8-6.7-10.2l9-2.7c3.1,3.9,5.2,7.1,8.2,12.9h9.5
				c-1.4-4.2-2.9-7.4-5.3-11.3l9.3-2.7c3.7,7,4.2,8.2,6.3,14h7.6c2.7-3.6,5.8-9.3,7.4-13.5l9.8,2.8c-2.1,3.9-4.7,8-6.8,10.8h4
				c6.2,0,7.8-0.1,11.1-0.4c-0.3,2.2-0.4,4.1-0.4,7.5v8.4c0,2.5,0.2,4.7,0.5,6.9h-9.8v-14h-58.7v14h-9.8c0.4-2.1,0.5-4.1,0.5-6.9
				v-8.4c0-3.2-0.1-5.1-0.4-7.5c4.1,0.4,4.6,0.4,10.7,0.4H690.7z"/>
		</g>
	</g>
</g>
<g>
	<g>
		<path class="st8" d="M340.7,2278.9c-1.1,2.4-1.3,2.9-2.2,5.2c-1.5,4-1.5,4-6.4,14.9v51.6c0,4.3,0.2,8.1,0.6,11.5h-11
			c0.4-3.6,0.6-6.7,0.6-11.6V2324c0-2.3,0-2.8,0.2-10.6c-3.2,4.5-5.5,7.2-8.8,10.7c-1.3-4.3-2.6-7-4.9-10.8
			c6.9-6.3,12.9-15,17.7-25.7c2.1-4.8,3.3-8.6,4-12.3L340.7,2278.9z M355.7,2298.8c-4.1,8.3-8.9,15.5-15.3,22.6
			c-2.2-3.8-3.4-5.4-6.7-8.7c7-7.2,11.7-14.2,15.7-23.7c2.3-5.6,3.7-10.3,4.1-13.5l10.6,3.1c-0.9,2.2-1.2,3-1.9,4.9
			c-1.4,3.8-1.5,4.2-2.4,6.2h25.4c4.7,0,7.5-0.2,10.2-0.6v10.1c-2.7-0.3-6-0.5-10.2-0.5h-17.7v11.9h15.2c3.9,0,6.5-0.2,9.2-0.5v9.9
			c-3-0.3-5.8-0.5-9.3-0.5h-15.1v11.9h15.3c4,0,6.5-0.1,9.3-0.5v10c-3-0.3-5.8-0.5-9.3-0.5h-15.3v10.7c0,5.6,0.2,8.6,0.6,11.2h-11.2
			c0.5-2.8,0.6-5.5,0.6-11.2v-52.4H355.7z"/>
		<path class="st8" d="M448.3,2293.1c-7.9,1.2-15.3,2.1-25,2.9c-0.9-2.8-1.2-6.6-1.2-9.9c0-0.4,0-0.7,0-1c12.8-1,28.4-2.4,40.6-4.1
			c1.8,2.2,3,5.5,3.2,8.8l-22.8,23.8l0.3,0.3c4.5-1.9,9.7-2.8,14.8-2.8c17.1,0,24.9,9.2,24.9,20c0,16.4-13.3,27.6-42.1,29.4
			l-4.2-11.2c27.2-1.7,34.5-8.5,34.5-18.1c0-5.6-4.5-10.5-14-10.5c-6.2,0-14.7,2.3-20.6,5.4c-7,3.9-13.5,8.5-19.4,13.8
			c-2.9-2-5.7-5.2-6.9-8.3c15-12.8,27-25.5,38-38.2L448.3,2293.1z"/>
		<path class="st8" d="M531.4,2351.6c19.1-6.6,26.3-16.7,26.3-29c0-6.2-4-9.7-12.7-9.7c-7.6,0-19.8,2.4-31.2,6.7
			c-1.6-2.9-2.9-7.3-2.9-11.3c11.6-3.9,24.4-6,33.8-6c18.1,0,24.8,8.6,24.8,20.2c0,17-10.3,31-31,39L531.4,2351.6z M563.2,2283.3
			c0,0.2,0,0.4,0,0.6c0,3.6-0.9,7.6-1.9,10.5c-12.2-1-27.1-3.5-37.5-6.4c0.2-3.4,1.6-7.9,3.2-10.7
			C536.7,2280,550.3,2282.3,563.2,2283.3z"/>
		<path class="st8" d="M626.3,2355.4h-14.5v-13.8h14.5V2355.4z M614.2,2332.9c0-14.8-2.2-28.3-2.2-45.5v-3.4h13.9v3.3
			c0,17.2-2.3,30.8-2.3,45.6H614.2z"/>
		<path class="st8" d="M196.4,2422.3c-8.2,1.2-16.3,2-23.8,2.4l-3.1-10.5c18.4-0.8,40.2-3.8,55.5-9.2l5.7,9.7
			c-7,2.2-14.7,4.1-22.5,5.6v16h31.1v10h-31.4c-1.9,18.5-11.5,30.5-30.8,38l-6.3-9.4c15.9-6.1,23.5-14.6,25.3-28.6h-34v-10h34.5
			V2422.3z"/>
		<path class="st8" d="M271.4,2454.9v-9.8H311v-13.3h-42.8v-9.6h53.5v62H311v-5.5h-43.4v-9.6H311v-14.2H271.4z"/>
		<path class="st8" d="M409.5,2462.1v-37.4h-51.1v-10.9h62.9v66.5h-11.8v-7.2h-51.8v-10.9H409.5z"/>
		<path class="st8" d="M511.4,2416.9l6.4,7c-9.6,28.9-27.7,48.4-53.9,60l-7.6-9.4c23.7-10.2,40.4-27.4,47.3-47.7H478
			c-6,8.2-12.9,15.4-20.3,21l-8.5-7.4c12.5-9.6,23.2-23.2,29.5-38l11.4,3.3c-1.7,3.8-3.6,7.5-5.7,11.1H511.4z"/>
		<path class="st8" d="M613.8,2436.5c-6.7,26.3-22.7,40.8-46.9,47.5l-6-10.1c22-6.1,34.7-17.1,40-33.6h-55.3V2430h62.1L613.8,2436.5
			z M604.5,2408.2v10.5h-49.8v-10.5H604.5z"/>
		<path class="st8" d="M649,2410c7.9,4.5,15.8,10.7,22.5,18.2l-8.6,9.1c-6.6-7.5-14.7-14.5-21.5-19.3L649,2410z M642.8,2469.4
			c30.2-7.1,50.3-23,60.1-48.5l10.2,6.3c-11,28.9-35.1,46.5-66.2,53.4L642.8,2469.4z"/>
		<path class="st8" d="M766.4,2422.3c-8.2,1.2-16.3,2-23.8,2.4l-3.1-10.5c18.4-0.8,40.2-3.8,55.5-9.2l5.7,9.7
			c-7,2.2-14.7,4.1-22.5,5.6v16h31.1v10h-31.4c-1.9,18.5-11.5,30.5-30.8,38l-6.3-9.4c15.9-6.1,23.5-14.6,25.3-28.6h-34v-10h34.5
			V2422.3z"/>
	</g>
</g>
<g>
	<g>
		<path class="st8" d="M329.9,2720.2c-5.7,33.5-22.8,52.6-52.5,63.7l-6.6-10.4c25.5-8.6,41.7-25.3,45.7-48.9h-54.3v-10.9h61.2
			L329.9,2720.2z"/>
		<path class="st8" d="M364.4,2709h12.1v42.5h-12.1V2709z M415.7,2707.9v30.5c0,24-10.9,38.4-30.8,46.6l-7.3-9.9
			c18.6-6.9,26-17.7,26-38v-29.3H415.7z"/>
		<path class="st8" d="M519.9,2720.2c-5.7,33.5-22.8,52.6-52.5,63.7l-6.6-10.4c25.5-8.6,41.7-25.3,45.7-48.9h-54.3v-10.9h61.2
			L519.9,2720.2z"/>
		<path class="st8" d="M554.4,2709h12.1v42.5h-12.1V2709z M605.7,2707.9v30.5c0,24-10.9,38.4-30.8,46.6l-7.3-9.9
			c18.6-6.9,26-17.7,26-38v-29.3H605.7z"/>
		<path class="st8" d="M665.6,2702.3c2,4.2,4.3,7.3,9.4,11.5c15.7,12.5,18.5,17.9,18.5,25.6c0,8-5.5,16-15.7,22.8l-1.5-1.9
			c8.7-7.4,11.8-13.2,11.8-19.3c0-6.5-6.1-12.5-20.9-21.5v49.1c0,4-0.2,6.1-1.4,8.5c-2.9,5.7-9.9,9.8-16.4,9.8
			c-6.5,0-10.6-3.7-10.6-9.3c0-3.1,1.6-6.3,4.3-8.5c3.1-2.7,7.8-4.4,11.5-4.4c3,0,5.6,0.5,8.5,1.5v-64H665.6z"/>
		<path class="st8" d="M206.3,2873.7c8.3-6.7,16.3-15.2,22.9-23.2c2.9-3.4,5.9-5.1,8.9-5.1c2.9,0,6,1.5,8.8,4.6
			c10.5,11.3,28,26.8,43.4,38L282,2899c-15-12.2-32.1-28.4-41.3-39.2c-0.9-1.1-1.7-1.7-2.5-1.7c-0.9,0-1.7,0.7-2.7,1.8
			c-5.4,6.8-14.2,16.3-21.8,23.1L206.3,2873.7z M267.3,2841.6c3.5,3.5,7.4,9.3,10.1,14.8l-6.4,3.7c-2.8-6-6.2-11.4-9.6-15.3
			L267.3,2841.6z M277.9,2836.3c3.5,3.4,7.2,8.6,10.3,14.6l-6.3,3.5c-2.7-5.7-6.6-11.4-9.8-14.9L277.9,2836.3z"/>
		<path class="st8" d="M325,2886.1c0,6.1,3,8.5,14.6,8.5c12.3,0,23.2-1,34-3.2l1.4,11.4c-11.2,1.9-22.6,2.8-35.4,2.8
			c-19.8,0-26.1-5.1-26.1-17.4v-55.9H325v28.2c14.2-3.6,29-9.6,40.1-16.7l6.2,10.2c-13.6,7.4-30.4,13.5-46.3,17V2886.1z M368.4,2828
			c3.6,3.6,7.4,9.3,10.2,14.9l-6.4,3.6c-2.8-6-6.3-11.3-9.6-15.3L368.4,2828z M379.1,2822.8c3.5,3.4,7.1,8.6,10.3,14.5l-6.3,3.5
			c-2.7-5.6-6.7-11.4-9.8-14.8L379.1,2822.8z"/>
		<path class="st8" d="M475.8,2862.5v12h-76.4v-12H475.8z"/>
		<path class="st8" d="M562.3,2907.1c-7.1-9.9-16.1-19.6-24.8-27.3c-10,11.4-22,19.9-36.4,26.6l-7.4-9.3
			c24.9-10.6,42.4-28.5,51.1-50.8h-42.1v-10.6h49.7l6.5,7.2c-4.1,10.9-8.9,20.2-14.6,28.3c9.9,7.5,19.8,17.5,27.8,27.6L562.3,2907.1
			z"/>
		<path class="st8" d="M619.9,2850.2c-6.2,8.5-13.2,15.7-20.6,21.1l-8.4-7.3c12.8-9.3,23.5-23.3,29.5-37.8l11.4,3.5
			c-1.7,3.7-3.5,7.4-5.5,10.8h28.1l6.3,6.4c-9.5,33.9-27.2,52.2-56,63.3l-7-9.6c12.9-4.8,23.4-11.3,31.6-19.4
			c-5.3-5.3-11.2-10-16.7-13.4l6.6-7.3c5.5,2.8,11.7,7.3,17.3,12.5c5-6.7,8.8-14.3,11.4-22.8H619.9z"/>
		<path class="st8" d="M760.8,2862.5v12h-76.4v-12H760.8z"/>
	</g>
</g>
<g>
	<g>
		<path class="st8" d="M271.3,3162.8h-8.3c-4.6,0-7.2,0.2-9.5,0.5v-9.8c2.5,0.4,4.6,0.5,9.6,0.5h6.9v-9.1h-5.6
			c-3.8,0-5.8,0.1-8.6,0.4v-9.7c2.1,0.4,4.3,0.5,8.6,0.5h5.5v-2.6c0-4.1-0.1-6-0.6-8.4h10.7c-0.5,2.3-0.6,4.3-0.6,8.4v2.6h3.2
			c4.4,0,6.1-0.1,8.2-0.5v9.7c-2.6-0.3-4.5-0.4-8.2-0.4h-3.2v9.1h4.9c4,0,6.1-0.1,8.3-0.5v1.8c4.3-2.1,6.6-4,8.5-7.1
			c1.9-3,2.8-6.1,3.2-10.4h-3.8c-3.5,0-5.2,0.1-7.2,0.4v-9.6c2.6,0.4,5.8,0.6,9.9,0.6h22.2c4.8,0,7.6-0.2,9.3-0.6
			c-0.3,2.3-0.3,2.5-0.6,8.7c-0.2,4.7-0.9,12.6-1.2,14.9c-1.4,8-4.4,10.1-13.7,10.1c-1.1,0-1.9,0-5.3-0.1c-0.4-4.9-0.8-6.3-2.3-9.5
			c3.3,0.5,5.6,0.7,7.5,0.7c2.4,0,3.5-0.6,4-2c0.9-2.5,1.2-6.2,1.4-13.6h-10.5c-0.8,5.1-1.7,8.8-3.4,12.5
			c-2.4,5.3-6.7,9.6-13.2,13.3c-1.4-2.9-2.5-4.6-4.8-7v6.6c-2.3-0.4-4.4-0.5-8.6-0.5h-3.6v10.6h4.3c3.4,0,5.1-0.1,7.5-0.5v9.5
			c-2.4-0.4-4-0.5-7.5-0.5h-4.3v14.5c5.9,2.4,12.1,3,27,3c13.3,0,22.9-0.5,31.6-1.5c-2,4.8-2.4,6.3-2.9,10.4
			c-12.4,0.3-20.2,0.5-23.5,0.5c-17.8,0-25.7-0.7-32.9-2.9c-6.5-2-11.8-6.1-15.9-12.2c-1.5,6.4-3,10.7-5.7,16.2
			c-2.6-2.8-4.5-4.4-7.8-6.4c2.8-5.1,3.9-8.1,5.1-13.9c1.3-6,2-11.6,2-17.7c0-1.8-0.1-2.9-0.3-4.5l9.3,1.2c-0.1,1.9-0.1,1.9-0.4,7.5
			c-0.1,2.4-0.2,3.9-0.6,7c1.6,2.9,3,4.7,5.4,7V3162.8z M295.7,3172.2c0-4.3-0.1-5.8-0.3-7.6c2.4,0.3,4.1,0.4,8.3,0.4H324
			c4.6,0,7.2-0.1,10.2-0.4c-0.3,2.6-0.4,4.4-0.4,9.4v10.5c0,5.3,0.1,7.3,0.4,9.7c-2.9-0.3-5.7-0.4-9.7-0.4h-19
			c-4.7,0-7.4,0.1-10.2,0.4c0.3-2.6,0.4-4.8,0.4-9.3V3172.2z M305.1,3185.2h19v-12.3h-19V3185.2z"/>
		<path class="st8" d="M385,3155.2c11.7,3.6,25.3,9.4,37.6,16.7l-5.1,10.3c-10.4-6.3-22.2-11.8-32.5-15.6v40.9h-11.9v-79.2H385
			V3155.2z M407,3134c3.6,3.5,7.5,9.3,10.2,14.8l-6.4,3.7c-2.9-6.1-6.2-11.4-9.6-15.4L407,3134z M417.6,3128.7
			c3.5,3.4,7.1,8.5,10.3,14.6l-6.3,3.4c-2.7-5.6-6.6-11.4-9.8-14.8L417.6,3128.7z"/>
		<path class="st8" d="M445.2,3156h76.2v10.2h-31.2c-0.8,20.3-9.5,33.9-26.3,42.5l-7.4-8.9c14.8-7.7,21.1-17.3,21.6-33.5h-32.9V3156
			z M454,3133.9h51.1v10.3H454V3133.9z M513,3125.1c2.8,4,5.5,10.4,7.4,16.3l-6.9,2.5c-1.8-6.4-4.3-12.3-7-16.7L513,3125.1z
			 M524.1,3121.6c2.9,3.8,5.6,9.6,7.8,16.1l-6.8,2.4c-1.6-6-4.7-12.4-7.2-16.2L524.1,3121.6z"/>
		<path class="st8" d="M546.5,3156.3v-10.2h24.6c0.1-2.6,0.2-5.2,0.2-8V3127h11.6v10.7c-0.1,2.8-0.1,5.6-0.2,8.5h25.6l5.5,5.3
			c-0.5,17.4-1.4,29.5-3,39.4c-1.7,10.5-6.7,15-15.2,15c-4,0-8.7-0.4-12.5-1l-1.2-11.5c4.8,0.9,8.2,1.2,12,1.2
			c3.1,0,4.8-1.2,5.6-5.9c1.5-8.6,2.5-18.4,2.7-32.5h-20.1c-2.8,24.6-13.6,40.9-32.6,51.3l-7.1-8.8c16.4-9.5,25.2-21.6,28.1-42.5
			H546.5z"/>
		<path class="st8" d="M684.5,3207h-12.1v-42.9c-9.1,5.7-18.8,10.4-28.8,14.2l-6.8-9.5c24.1-8.8,44-21.2,60.4-40.5l9.8,6.9
			c-7,7.7-14.5,14.5-22.5,20.5V3207z"/>
		<path class="st8" d="M287.4,3281.5c-4.7,12.1-13,22.3-23.3,29l-7.1-7.8c7.4-4.8,13.1-11.1,16.3-17.4h-61.8v-10.5h70.5
			L287.4,3281.5z M251.8,3293.4v8c0,24.3-9.5,39-30.5,47.2l-6.4-9.8c18.1-6.8,24.8-17,24.8-37.9v-7.5H251.8z"/>
		<path class="st8" d="M372.3,3347.1c-7.1-9.9-16.1-19.6-24.8-27.3c-10,11.4-22,19.9-36.4,26.6l-7.4-9.3
			c24.9-10.6,42.4-28.5,51.1-50.8h-42.1v-10.6h49.7l6.5,7.2c-4.1,10.9-8.9,20.2-14.6,28.3c9.9,7.5,19.8,17.5,27.8,27.6L372.3,3347.1
			z"/>
		<path class="st8" d="M422.5,3274.2v57.7c15.6-4.3,33.9-15.9,46.6-31.8l7.2,9.6c-14,18.2-34.8,30.8-60.1,36.2l-5.8-6.5v-65.2H422.5
			z"/>
		<path class="st8" d="M528.9,3287.4c-8.2,1.2-16.3,2-23.8,2.4l-3.1-10.5c18.4-0.8,40.2-3.8,55.5-9.2l5.7,9.7
			c-7,2.2-14.7,4.1-22.5,5.6v16h31.1v10h-31.4c-1.9,18.5-11.5,30.5-30.8,38l-6.3-9.4c15.9-6.1,23.5-14.6,25.3-28.6h-34v-10h34.5
			V3287.4z"/>
		<path class="st8" d="M605.6,3290.6c3.6,6.1,6.7,13.7,9.1,21.1l-10.3,3.6c-2.3-7.5-5.2-15.2-8.5-21.2L605.6,3290.6z M659.1,3290.1
			c-4.8,29.4-18.1,49.3-41.9,60.2l-6.6-8.7c21.9-10.1,33.7-26.6,37.6-53.6L659.1,3290.1z M625.3,3286.5c3.8,6.5,7,14,9,20.8
			l-10.1,3.4c-2-7.4-5.2-15.2-8.5-21.4L625.3,3286.5z"/>
		<path class="st8" d="M748.9,3282l6.4,7c-9.6,28.9-27.7,48.4-53.9,60l-7.6-9.4c23.7-10.2,40.4-27.4,47.3-47.7h-25.7
			c-6,8.2-12.9,15.4-20.3,21l-8.5-7.4c12.5-9.6,23.2-23.2,29.5-38l11.4,3.3c-1.7,3.8-3.6,7.5-5.7,11.1H748.9z"/>
	</g>
</g>
</svg>
